ply
format ascii 1.0
element vertex 778
property float x
property float y
property float z
property uchar red
property uchar green
property uchar blue
end_header
0.247069 -0.188521 0.895697 100 220 120
0.259265 -0.185815 0.893036 100 220 120
0.252644 -0.181419 0.896257 100 220 120
0.240262 -0.184664 0.895400 100 220 120
0.269331 -0.167102 0.891570 100 220 120
0.270069 -0.161630 0.881116 100 220 120
0.255604 -0.159467 0.890103 100 220 120
0.256641 -0.163722 0.899150 100 220 120
0.234095 -0.183549 0.895901 100 220 120
0.245483 -0.178146 0.899779 100 220 120
0.231829 -0.185809 0.894551 100 220 120
0.221672 -0.195035 0.886773 100 220 120
0.223952 -0.190138 0.891202 100 220 120
0.214689 -0.200477 0.886809 100 220 120
0.226372 -0.201838 0.879862 100 220 120
0.215624 -0.210213 0.886032 100 220 120
0.242948 -0.221587 0.889544 100 220 120
0.252017 -0.225311 0.899422 100 220 120
0.237308 -0.228231 0.908558 100 220 120
0.229478 -0.223137 0.897669 100 220 120
0.254228 -0.227757 0.921113 100 220 120
0.244271 -0.228104 0.914584 100 220 120
0.258964 -0.226560 0.905169 100 220 120
0.267232 -0.226178 0.911397 100 220 120
0.259349 -0.193400 0.901743 100 220 120
0.269919 -0.190939 0.897937 100 220 120
0.266062 -0.190241 0.894507 100 220 120
0.255492 -0.192042 0.898436 100 220 120
0.230739 -0.180622 0.890389 100 220 120
0.234889 -0.186448 0.879667 100 220 120
0.231566 -0.188661 0.886307 100 220 120
0.231169 -0.180125 0.896147 100 220 120
0.298114 -0.182149 0.898012 100 220 120
0.308450 -0.185616 0.889254 100 220 120
0.305423 -0.184486 0.884152 100 220 120
0.296573 -0.182139 0.892928 100 220 120
0.288713 -0.172948 0.872218 100 220 120
0.296543 -0.179933 0.868155 100 220 120
0.296195 -0.184906 0.855785 100 220 120
0.285899 -0.179770 0.858282 100 220 120
0.279275 -0.166115 0.875766 100 220 120
0.276306 -0.170054 0.863611 100 220 120
0.266201 -0.163917 0.870577 100 220 120
0.252447 -0.161956 0.881480 100 220 120
0.315108 -0.190950 0.899150 100 220 120
0.308744 -0.188601 0.907246 100 220 120
0.186804 -0.179294 0.917320 100 220 120
0.189726 -0.180182 0.922530 100 220 120
0.192445 -0.182981 0.919891 100 220 120
0.188949 -0.181558 0.915267 100 220 120
0.314054 -0.209082 0.908177 100 220 120
0.312294 -0.218527 0.904717 100 220 120
0.318995 -0.216718 0.902176 100 220 120
0.319987 -0.207528 0.903544 100 220 120
0.306353 -0.211344 0.914435 100 220 120
0.302782 -0.220506 0.908054 100 220 120
0.175775 -0.186311 0.916514 100 220 120
0.178594 -0.182306 0.914683 100 220 120
0.179928 -0.186157 0.912016 100 220 120
0.177719 -0.190788 0.913879 100 220 120
0.229195 -0.188189 0.894338 100 220 120
0.236687 -0.189798 0.898251 100 220 120
0.214119 -0.193248 0.901037 100 220 120
0.222584 -0.192988 0.900171 100 220 120
0.220058 -0.191831 0.894194 100 220 120
0.212982 -0.193122 0.894832 100 220 120
0.240595 -0.198993 0.914759 100 220 120
0.251054 -0.197031 0.909070 100 220 120
0.245724 -0.195813 0.905144 100 220 120
0.233314 -0.196874 0.910151 100 220 120
0.260744 -0.196906 0.919855 100 220 120
0.249808 -0.199478 0.924309 100 220 120
0.256671 -0.198858 0.929702 100 220 120
0.263102 -0.196237 0.926005 100 220 120
0.229335 -0.203605 0.929530 100 220 120
0.222538 -0.205529 0.931955 100 220 120
0.224390 -0.206536 0.933279 100 220 120
0.232202 -0.204163 0.931376 100 220 120
0.325464 -0.216006 0.899023 100 220 120
0.325219 -0.206219 0.898401 100 220 120
0.270464 -0.223011 0.935340 100 220 120
0.278588 -0.215763 0.938449 100 220 120
0.268516 -0.214945 0.947237 100 220 120
0.262570 -0.223989 0.942282 100 220 120
0.306795 -0.224517 0.898099 100 220 120
0.314613 -0.224118 0.896922 100 220 120
0.175616 -0.190344 0.921385 100 220 120
0.177769 -0.194662 0.918847 100 220 120
0.262295 -0.175188 0.861213 100 220 120
0.248523 -0.168261 0.874052 100 220 120
0.274955 -0.183655 0.854378 100 220 120
0.284906 -0.191372 0.852498 100 220 120
0.293771 -0.195453 0.849979 100 220 120
0.222204 -0.195259 0.906607 100 220 120
0.245185 -0.192482 0.900465 100 220 120
0.262962 -0.194088 0.905336 100 220 120
0.279961 -0.193311 0.931821 100 220 120
0.289086 -0.191134 0.926449 100 220 120
0.279820 -0.189099 0.920795 100 220 120
0.273788 -0.192010 0.926495 100 220 120
0.279956 -0.206388 0.941785 100 220 120
0.275827 -0.199540 0.940430 100 220 120
0.268911 -0.200222 0.944335 100 220 120
0.271321 -0.206440 0.947178 100 220 120
0.230330 -0.176271 0.884836 100 220 120
0.237994 -0.183268 0.874577 100 220 120
0.313691 -0.198418 0.908860 100 220 120
0.318308 -0.197405 0.902327 100 220 120
0.324305 -0.198784 0.896075 100 220 120
0.283495 -0.185349 0.896604 100 220 120
0.295406 -0.181939 0.889219 100 220 120
0.292555 -0.180258 0.885807 100 220 120
0.281617 -0.185980 0.893432 100 220 120
0.271435 -0.180181 0.891011 100 220 120
0.280404 -0.172401 0.884845 100 220 120
0.263260 -0.175492 0.897926 100 220 120
0.302597 -0.182777 0.876371 100 220 120
0.313804 -0.184966 0.877716 100 220 120
0.309511 -0.184073 0.869828 100 220 120
0.318651 -0.188465 0.885580 100 220 120
0.322401 -0.193015 0.892300 100 220 120
0.322514 -0.226657 0.894326 100 220 120
0.304733 -0.184510 0.862893 100 220 120
0.247409 -0.163700 0.901639 100 220 120
0.239276 -0.163130 0.903193 100 220 120
0.237839 -0.170207 0.906231 100 220 120
0.245016 -0.170860 0.905255 100 220 120
0.206760 -0.203099 0.889731 100 220 120
0.209419 -0.196039 0.891608 100 220 120
0.217378 -0.193931 0.888796 100 220 120
0.291746 -0.184164 0.907858 100 220 120
0.301226 -0.189143 0.915407 100 220 120
0.213537 -0.195725 0.907459 100 220 120
0.180275 -0.194760 0.911169 100 220 120
0.182543 -0.189705 0.908873 100 220 120
0.195511 -0.197725 0.897675 100 220 120
0.192749 -0.203626 0.900340 100 220 120
0.207162 -0.201619 0.913949 100 220 120
0.210060 -0.196258 0.910092 100 220 120
0.208089 -0.196600 0.911653 100 220 120
0.205649 -0.199991 0.916844 100 220 120
0.232846 -0.204602 0.937113 100 220 120
0.239841 -0.202983 0.935538 100 220 120
0.216467 -0.221491 0.907371 100 220 120
0.210231 -0.220721 0.894128 100 220 120
0.222053 -0.218999 0.888790 100 220 120
0.246476 -0.199577 0.919667 100 220 120
0.237596 -0.201442 0.925407 100 220 120
0.240635 -0.201832 0.928213 100 220 120
0.220588 -0.197242 0.910830 100 220 120
0.213480 -0.198979 0.912680 100 220 120
0.217781 -0.200116 0.915069 100 220 120
0.224980 -0.198493 0.913822 100 220 120
0.289305 -0.215640 0.930136 100 220 120
0.290801 -0.204758 0.934605 100 220 120
0.182713 -0.179880 0.914751 100 220 120
0.184338 -0.182860 0.912395 100 220 120
0.256554 -0.197519 0.913981 100 220 120
0.235575 -0.215602 0.883241 100 220 120
0.266844 -0.194244 0.909435 100 220 120
0.244370 -0.221867 0.940909 100 220 120
0.244772 -0.213589 0.943971 100 220 120
0.238899 -0.211763 0.945692 100 220 120
0.237187 -0.217859 0.945653 100 220 120
0.194704 -0.194239 0.925570 100 220 120
0.196084 -0.188938 0.923307 100 220 120
0.193647 -0.186505 0.925124 100 220 120
0.191466 -0.191366 0.928047 100 220 120
0.210046 -0.193384 0.904780 100 220 120
0.208143 -0.192579 0.898540 100 220 120
0.204539 -0.191152 0.902674 100 220 120
0.206705 -0.193247 0.907937 100 220 120
0.204105 -0.195365 0.894917 100 220 120
0.200113 -0.193277 0.898540 100 220 120
0.190297 -0.199261 0.925206 100 220 120
0.184146 -0.201291 0.921016 100 220 120
0.196336 -0.209779 0.912376 100 220 120
0.200014 -0.205085 0.917593 100 220 120
0.279857 -0.226230 0.902231 100 220 120
0.287350 -0.224464 0.910449 100 220 120
0.274878 -0.224346 0.919949 100 220 120
0.262994 -0.225368 0.929967 100 220 120
0.251687 -0.225078 0.938526 100 220 120
0.243811 -0.230372 0.930189 100 220 120
0.281338 -0.222276 0.924932 100 220 120
0.209801 -0.211527 0.913913 100 220 120
0.206524 -0.215824 0.907169 100 220 120
0.211963 -0.217706 0.911845 100 220 120
0.271160 -0.192893 0.915684 100 220 120
0.186536 -0.185772 0.909161 100 220 120
0.288327 -0.215445 0.859552 100 220 120
0.294452 -0.223216 0.869419 100 220 120
0.286018 -0.221930 0.872069 100 220 120
0.278759 -0.212048 0.861392 100 220 120
0.194909 -0.184594 0.917873 100 220 120
0.191566 -0.183169 0.912390 100 220 120
0.243308 -0.201757 0.940541 100 220 120
0.236494 -0.203649 0.941625 100 220 120
0.236984 -0.205177 0.944195 100 220 120
0.244025 -0.201352 0.944757 100 220 120
0.292205 -0.222753 0.913776 100 220 120
0.263138 -0.209117 0.952079 100 220 120
0.257729 -0.219277 0.948144 100 220 120
0.297801 -0.224660 0.901909 100 220 120
0.291409 -0.226600 0.894618 100 220 120
0.300015 -0.226863 0.889657 100 220 120
0.229898 -0.227041 0.924116 100 220 120
0.272559 -0.226281 0.897274 100 220 120
0.285331 -0.226190 0.889794 100 220 120
0.295362 -0.226554 0.883688 100 220 120
0.302819 -0.227410 0.879772 100 220 120
0.307140 -0.227660 0.886752 100 220 120
0.181141 -0.198749 0.916144 100 220 120
0.180672 -0.197224 0.924999 100 220 120
0.315312 -0.230455 0.883588 100 220 120
0.310103 -0.229333 0.875851 100 220 120
0.278621 -0.224535 0.883312 100 220 120
0.270584 -0.220518 0.875797 100 220 120
0.266571 -0.224686 0.890751 100 220 120
0.257791 -0.221310 0.883842 100 220 120
0.225335 -0.230636 0.914305 100 220 120
0.177897 -0.183040 0.935729 100 220 120
0.183554 -0.191001 0.931095 100 220 120
0.188315 -0.187518 0.930720 100 220 120
0.181452 -0.180744 0.936731 100 220 120
0.186840 -0.195528 0.928348 100 220 120
0.178955 -0.192593 0.927472 100 220 120
0.248814 -0.212449 0.875247 100 220 120
0.211583 -0.202783 0.916672 100 220 120
0.261454 -0.207197 0.865606 100 220 120
0.237065 -0.201109 0.872473 100 220 120
0.246594 -0.194583 0.866561 100 220 120
0.274097 -0.199467 0.854664 100 220 120
0.258959 -0.189312 0.857852 100 220 120
0.293367 -0.206785 0.851368 100 220 120
0.284121 -0.204626 0.854016 100 220 120
0.248187 -0.179766 0.866843 100 220 120
0.183005 -0.172239 0.925440 100 220 120
0.185834 -0.174004 0.930072 100 220 120
0.296350 -0.217325 0.856415 100 220 120
0.253014 -0.172300 0.902904 100 220 120
0.279297 -0.188776 0.909313 100 220 120
0.275650 -0.189939 0.904734 100 220 120
0.294097 -0.190150 0.922447 100 220 120
0.285050 -0.186982 0.915022 100 220 120
0.178748 -0.172845 0.922086 100 220 120
0.218968 -0.209323 0.933897 100 220 120
0.221618 -0.211155 0.932451 100 220 120
0.246730 -0.160000 0.894191 100 220 120
0.239774 -0.159313 0.896364 100 220 120
0.232871 -0.163169 0.885779 100 220 120
0.236703 -0.159213 0.890463 100 220 120
0.243804 -0.161082 0.885815 100 220 120
0.240144 -0.165334 0.880155 100 220 120
0.284806 -0.184790 0.899537 100 220 120
0.286869 -0.184651 0.903264 100 220 120
0.298645 -0.213422 0.922191 100 220 120
0.299114 -0.202574 0.926718 100 220 120
0.201083 -0.201228 0.893734 100 220 120
0.205567 -0.211345 0.890750 100 220 120
0.199584 -0.207926 0.895824 100 220 120
0.194386 -0.209280 0.904744 100 220 120
0.208296 -0.206605 0.916468 100 220 120
0.205766 -0.207684 0.913721 100 220 120
0.286545 -0.176387 0.884975 100 220 120
0.277172 -0.184399 0.890234 100 220 120
0.240226 -0.176753 0.902249 100 220 120
0.234719 -0.176513 0.903737 100 220 120
0.231938 -0.199954 0.918151 100 220 120
0.219142 -0.222759 0.928348 100 220 120
0.215810 -0.225892 0.920146 100 220 120
0.223550 -0.202150 0.921583 100 220 120
0.171958 -0.178007 0.923442 100 220 120
0.175180 -0.174539 0.921696 100 220 120
0.201379 -0.214072 0.899839 100 220 120
0.247157 -0.200453 0.933504 100 220 120
0.227081 -0.223165 0.930832 100 220 120
0.218698 -0.216522 0.933366 100 220 120
0.266664 -0.203664 0.949279 100 220 120
0.302600 -0.224197 0.865569 100 220 120
0.190784 -0.183001 0.928195 100 220 120
0.186076 -0.176953 0.933965 100 220 120
0.174741 -0.184332 0.932832 100 220 120
0.171901 -0.182894 0.927443 100 220 120
0.305658 -0.199663 0.918178 100 220 120
0.272961 -0.190822 0.901912 100 220 120
0.240089 -0.174528 0.875625 100 220 120
0.231016 -0.170087 0.883550 100 220 120
0.218583 -0.203463 0.923675 100 220 120
0.250064 -0.218213 0.944891 100 220 120
0.237112 -0.226880 0.937155 100 220 120
0.230100 -0.223143 0.943084 100 220 120
0.223625 -0.221886 0.939170 100 220 120
0.219678 -0.216474 0.935737 100 220 120
0.173053 -0.180642 0.935969 100 220 120
0.170081 -0.179537 0.930712 100 220 120
0.169561 -0.174786 0.926655 100 220 120
0.172391 -0.171413 0.924795 100 220 120
0.177008 -0.170185 0.924827 100 220 120
0.175903 -0.179062 0.939157 100 220 120
0.178965 -0.176688 0.939869 100 220 120
0.183937 -0.174244 0.936409 100 220 120
0.174390 -0.175018 0.942008 100 220 120
0.169152 -0.174313 0.940654 100 220 120
0.164530 -0.162956 0.933942 100 220 120
0.165461 -0.168581 0.931910 100 220 120
0.164305 -0.168027 0.934471 100 220 120
0.162999 -0.163688 0.937011 100 220 120
0.161294 -0.160215 0.940828 100 220 120
0.162754 -0.158667 0.937639 100 220 120
0.165957 -0.171982 0.936490 100 220 120
0.164221 -0.166592 0.940581 100 220 120
0.166553 -0.168120 0.943965 100 220 120
0.164169 -0.164025 0.947271 100 220 120
0.161802 -0.162654 0.944398 100 220 120
0.167285 -0.171840 0.940967 100 220 120
0.166724 -0.173806 0.935252 100 220 120
0.161832 -0.156621 0.942092 100 220 120
0.160408 -0.158661 0.943366 100 220 120
0.161127 -0.160209 0.946465 100 220 120
0.162078 -0.157162 0.947487 100 220 120
0.170069 -0.167728 0.927550 100 220 120
0.166635 -0.161451 0.932756 100 220 120
0.165982 -0.157372 0.937647 100 220 120
0.164735 -0.155474 0.942116 100 220 120
0.170386 -0.159704 0.934395 100 220 120
0.168934 -0.157040 0.938696 100 220 120
0.168246 -0.155591 0.942766 100 220 120
0.173779 -0.159406 0.937305 100 220 120
0.171545 -0.157251 0.940781 100 220 120
0.179069 -0.167779 0.929195 100 220 120
0.175323 -0.167909 0.926596 100 220 120
0.170476 -0.155745 0.943040 100 220 120
0.164395 -0.156136 0.947896 100 220 120
0.169802 -0.169754 0.945174 100 220 120
0.167308 -0.163741 0.948583 100 220 120
0.172221 -0.169244 0.945775 100 220 120
0.169725 -0.163481 0.949513 100 220 120
0.164613 -0.160355 0.950599 100 220 120
0.163021 -0.161446 0.948584 100 220 120
0.181677 -0.170666 0.927349 100 220 120
0.184421 -0.172358 0.932347 100 220 120
0.182484 -0.169649 0.934254 100 220 120
0.176516 -0.160896 0.941169 100 220 120
0.182245 -0.171244 0.938480 100 220 120
0.177471 -0.172664 0.942486 100 220 120
0.174412 -0.167065 0.946296 100 220 120
0.176538 -0.164480 0.945063 100 220 120
0.172169 -0.162413 0.948722 100 220 120
0.173500 -0.160919 0.946924 100 220 120
0.173437 -0.158222 0.943938 100 220 120
0.169892 -0.158724 0.949322 100 220 120
0.167078 -0.159535 0.950646 100 220 120
0.168008 -0.156083 0.946979 100 220 120
0.171582 -0.158650 0.947921 100 220 120
0.170467 -0.156860 0.945569 100 220 120
0.187730 -0.193003 0.938247 100 220 120
0.191394 -0.193144 0.943521 100 220 120
0.193293 -0.196585 0.940389 100 220 120
0.190046 -0.196374 0.936045 100 220 120
0.178057 -0.203707 0.939332 100 220 120
0.180515 -0.198418 0.936555 100 220 120
0.182389 -0.203153 0.933760 100 220 120
0.180865 -0.209071 0.937489 100 220 120
0.179980 -0.207647 0.945205 100 220 120
0.183589 -0.212546 0.943196 100 220 120
0.184816 -0.212419 0.934313 100 220 120
0.186514 -0.206199 0.930725 100 220 120
0.204301 -0.211697 0.919303 100 220 120
0.203457 -0.218307 0.921730 100 220 120
0.214982 -0.204585 0.932121 100 220 120
0.214222 -0.207309 0.934540 100 220 120
0.184375 -0.194776 0.936653 100 220 120
0.186218 -0.198863 0.933999 100 220 120
0.199161 -0.201737 0.945924 100 220 120
0.198613 -0.197912 0.941819 100 220 120
0.195585 -0.197262 0.944806 100 220 120
0.195209 -0.201120 0.948939 100 220 120
0.208965 -0.204626 0.921114 100 220 120
0.212694 -0.204321 0.926505 100 220 120
0.206244 -0.207246 0.919619 100 220 120
0.196966 -0.207878 0.948298 100 220 120
0.192919 -0.213707 0.947153 100 220 120
0.209234 -0.220639 0.934938 100 220 120
0.211590 -0.214958 0.937607 100 220 120
0.189200 -0.201185 0.930583 100 220 120
0.195732 -0.196452 0.936986 100 220 120
0.192762 -0.197252 0.932745 100 220 120
0.188485 -0.215423 0.940415 100 220 120
0.188019 -0.210454 0.950001 100 220 120
0.181668 -0.193031 0.958421 100 220 120
0.188760 -0.201894 0.953638 100 220 120
0.191770 -0.197789 0.951947 100 220 120
0.184872 -0.188983 0.958158 100 220 120
0.192365 -0.205791 0.951265 100 220 120
0.184574 -0.205765 0.951603 100 220 120
0.181945 -0.181426 0.946838 100 220 120
0.185622 -0.181942 0.952031 100 220 120
0.178162 -0.182915 0.944608 100 220 120
0.205924 -0.222307 0.927832 100 220 120
0.172880 -0.192198 0.945773 100 220 120
0.175390 -0.186256 0.943766 100 220 120
0.193274 -0.194554 0.948291 100 220 120
0.186378 -0.184639 0.956260 100 220 120
0.178239 -0.195589 0.956604 100 220 120
0.174437 -0.196889 0.950653 100 220 120
0.175176 -0.190846 0.958604 100 220 120
0.171597 -0.191379 0.953417 100 220 120
0.170262 -0.187008 0.948237 100 220 120
0.173302 -0.182329 0.946211 100 220 120
0.176641 -0.179987 0.946744 100 220 120
0.178280 -0.188529 0.960690 100 220 120
0.181655 -0.184887 0.960809 100 220 120
0.184345 -0.182089 0.957409 100 220 120
0.176081 -0.181675 0.963728 100 220 120
0.171793 -0.182693 0.962456 100 220 120
0.164386 -0.166973 0.955799 100 220 120
0.165939 -0.172501 0.953492 100 220 120
0.165026 -0.173427 0.955867 100 220 120
0.163599 -0.168439 0.958188 100 220 120
0.166348 -0.178916 0.952566 100 220 120
0.165869 -0.178036 0.955048 100 220 120
0.167571 -0.180724 0.958523 100 220 120
0.166438 -0.174806 0.960430 100 220 120
0.169535 -0.176060 0.964044 100 220 120
0.167301 -0.171158 0.966637 100 220 120
0.163951 -0.169924 0.963212 100 220 120
0.169353 -0.180102 0.962007 100 220 120
0.162871 -0.165663 0.960578 100 220 120
0.163744 -0.163148 0.960171 100 220 120
0.167960 -0.183623 0.957258 100 220 120
0.170790 -0.179030 0.948065 100 220 120
0.168090 -0.170743 0.952012 100 220 120
0.166893 -0.164808 0.955333 100 220 120
0.166397 -0.161553 0.960873 100 220 120
0.171702 -0.168595 0.952701 100 220 120
0.169818 -0.163631 0.956361 100 220 120
0.169213 -0.161563 0.961181 100 220 120
0.175681 -0.167429 0.955079 100 220 120
0.173304 -0.163112 0.958901 100 220 120
0.179749 -0.176984 0.949919 100 220 120
0.175466 -0.177406 0.947580 100 220 120
0.171649 -0.162070 0.960958 100 220 120
0.163772 -0.163909 0.965167 100 220 120
0.166660 -0.161870 0.965220 100 220 120
0.163322 -0.165738 0.964685 100 220 120
0.171304 -0.176116 0.965309 100 220 120
0.169235 -0.170184 0.967530 100 220 120
0.173844 -0.175120 0.966212 100 220 120
0.171102 -0.168679 0.968246 100 220 120
0.166800 -0.166058 0.968392 100 220 120
0.165412 -0.166894 0.967544 100 220 120
0.180467 -0.179583 0.949023 100 220 120
0.183853 -0.180380 0.953520 100 220 120
0.183137 -0.178010 0.954399 100 220 120
0.178503 -0.168611 0.959466 100 220 120
0.183300 -0.179744 0.958894 100 220 120
0.179560 -0.180403 0.962937 100 220 120
0.176481 -0.173949 0.965728 100 220 120
0.178475 -0.171068 0.963578 100 220 120
0.173255 -0.167917 0.968480 100 220 120
0.175580 -0.167341 0.966044 100 220 120
0.175660 -0.164402 0.962089 100 220 120
0.170536 -0.163891 0.968578 100 220 120
0.168242 -0.164886 0.968749 100 220 120
0.168985 -0.161689 0.964797 100 220 120
0.173150 -0.164203 0.966806 100 220 120
0.172131 -0.162285 0.963715 100 220 120
0.209542 -0.193888 0.946127 100 220 120
0.214687 -0.192447 0.948785 100 220 120
0.215662 -0.195233 0.947964 100 220 120
0.210651 -0.197012 0.945508 100 220 120
0.202064 -0.200459 0.954819 100 220 120
0.202231 -0.197889 0.950343 100 220 120
0.203342 -0.202583 0.949193 100 220 120
0.203482 -0.206652 0.953369 100 220 120
0.204662 -0.199502 0.960063 100 220 120
0.206929 -0.207847 0.959101 100 220 120
0.206581 -0.211558 0.951019 100 220 120
0.205594 -0.206480 0.947236 100 220 120
0.216667 -0.214610 0.938794 100 220 120
0.217790 -0.219299 0.943333 100 220 120
0.205407 -0.195693 0.947413 100 220 120
0.206490 -0.199221 0.946457 100 220 120
0.221775 -0.197400 0.954229 100 220 120
0.220137 -0.195727 0.950030 100 220 120
0.218819 -0.194800 0.952447 100 220 120
0.219363 -0.196226 0.956582 100 220 120
0.223426 -0.206626 0.934982 100 220 120
0.228536 -0.205486 0.938056 100 220 120
0.218941 -0.209508 0.936050 100 220 120
0.220294 -0.202343 0.958846 100 220 120
0.216424 -0.208757 0.960464 100 220 120
0.228732 -0.214887 0.951627 100 220 120
0.231628 -0.209659 0.949748 100 220 120
0.208010 -0.202177 0.944864 100 220 120
0.216931 -0.196132 0.945515 100 220 120
0.212064 -0.198342 0.943516 100 220 120
0.211215 -0.212268 0.955942 100 220 120
0.212586 -0.204014 0.962722 100 220 120
0.209434 -0.180566 0.964709 100 220 120
0.215405 -0.195961 0.962214 100 220 120
0.218283 -0.193302 0.957416 100 220 120
0.212624 -0.178669 0.961908 100 220 120
0.217231 -0.199332 0.961386 100 220 120
0.210485 -0.198685 0.963365 100 220 120
0.206566 -0.178530 0.949210 100 220 120
0.211321 -0.178010 0.952180 100 220 120
0.202825 -0.181222 0.949876 100 220 120
0.222696 -0.220123 0.948563 100 220 120
0.232463 -0.205221 0.944689 100 220 120
0.198565 -0.183762 0.955987 100 220 120
0.200178 -0.182516 0.951900 100 220 120
0.217876 -0.192422 0.953175 100 220 120
0.213748 -0.177766 0.957420 100 220 120
0.205297 -0.183281 0.964861 100 220 120
0.200517 -0.185387 0.961496 100 220 120
0.204450 -0.177305 0.965268 100 220 120
0.199519 -0.179304 0.961793 100 220 120
0.197141 -0.178174 0.956534 100 220 120
0.198982 -0.177406 0.952351 100 220 120
0.201795 -0.176480 0.950195 100 220 120
0.208667 -0.174742 0.964601 100 220 120
0.211367 -0.173419 0.961761 100 220 120
0.212537 -0.175532 0.957104 100 220 120
0.208675 -0.169808 0.964003 100 220 120
0.203144 -0.169607 0.965020 100 220 120
0.195757 -0.157740 0.954682 100 220 120
0.196407 -0.163724 0.954993 100 220 120
0.196485 -0.163509 0.956262 100 220 120
0.195538 -0.157561 0.956484 100 220 120
0.196289 -0.170307 0.957249 100 220 120
0.196485 -0.168424 0.958154 100 220 120
0.198377 -0.169088 0.961604 100 220 120
0.198067 -0.162390 0.961286 100 220 120
0.203760 -0.162399 0.963618 100 220 120
0.202549 -0.157186 0.962848 100 220 120
0.197136 -0.156781 0.961079 100 220 120
0.202087 -0.167847 0.964063 100 220 120
0.195793 -0.154312 0.957233 100 220 120
0.194825 -0.153474 0.955465 100 220 120
0.198421 -0.171655 0.961949 100 220 120
0.197370 -0.171759 0.952536 100 220 120
0.197090 -0.163837 0.951986 100 220 120
0.196459 -0.157683 0.951257 100 220 120
0.197453 -0.153364 0.952651 100 220 120
0.200370 -0.163633 0.949866 100 220 120
0.199583 -0.157956 0.950095 100 220 120
0.200384 -0.154048 0.951364 100 220 120
0.203746 -0.163333 0.949627 100 220 120
0.202950 -0.158218 0.950284 100 220 120
0.205172 -0.173516 0.949815 100 220 120
0.200794 -0.172824 0.950184 100 220 120
0.202564 -0.155058 0.951355 100 220 120
0.197622 -0.151647 0.959201 100 220 120
0.201030 -0.150745 0.956527 100 220 120
0.197550 -0.153444 0.959801 100 220 120
0.205617 -0.162908 0.963987 100 220 120
0.204724 -0.156056 0.963177 100 220 120
0.208321 -0.162928 0.962727 100 220 120
0.207343 -0.156063 0.961908 100 220 120
0.202124 -0.152555 0.962072 100 220 120
0.201174 -0.153482 0.962044 100 220 120
0.206060 -0.176270 0.950080 100 220 120
0.210504 -0.175909 0.952669 100 220 120
0.209551 -0.173301 0.952069 100 220 120
0.207942 -0.162408 0.951745 100 220 120
0.211989 -0.172739 0.956263 100 220 120
0.210924 -0.168882 0.960993 100 220 120
0.209952 -0.162620 0.959763 100 220 120
0.210139 -0.162021 0.955923 100 220 120
0.208786 -0.156476 0.959356 100 220 120
0.208772 -0.157682 0.956590 100 220 120
0.206791 -0.157506 0.951963 100 220 120
0.206126 -0.153289 0.957982 100 220 120
0.204587 -0.152225 0.960507 100 220 120
0.203286 -0.152018 0.954401 100 220 120
0.207027 -0.154633 0.955876 100 220 120
0.204868 -0.153824 0.953156 100 220 120
0.231542 -0.204607 0.941371 100 220 120
0.234368 -0.185760 0.951589 100 220 120
0.238221 -0.184174 0.952118 100 220 120
0.238876 -0.186016 0.952909 100 220 120
0.235436 -0.188499 0.951470 100 220 120
0.230519 -0.190893 0.961386 100 220 120
0.229789 -0.189199 0.956912 100 220 120
0.230509 -0.194481 0.956903 100 220 120
0.231393 -0.196319 0.961242 100 220 120
0.234136 -0.190388 0.965122 100 220 120
0.235534 -0.195113 0.965058 100 220 120
0.233795 -0.199858 0.959445 100 220 120
0.232705 -0.197977 0.955202 100 220 120
0.242365 -0.209276 0.947406 100 220 120
0.245708 -0.212182 0.950322 100 220 120
0.261715 -0.199694 0.950959 100 220 120
0.260856 -0.197716 0.946853 100 220 120
0.253662 -0.193682 0.950090 100 220 120
0.255772 -0.195726 0.953838 100 220 120
0.231448 -0.187412 0.953613 100 220 120
0.232220 -0.191631 0.952816 100 220 120
0.246466 -0.186569 0.960217 100 220 120
0.244181 -0.185704 0.955636 100 220 120
0.242372 -0.184724 0.955231 100 220 120
0.244844 -0.184241 0.959502 100 220 120
0.255634 -0.197293 0.944164 100 220 120
0.250422 -0.198964 0.943722 100 220 120
0.247525 -0.197290 0.944307 100 220 120
0.249328 -0.193980 0.947087 100 220 120
0.242967 -0.202008 0.944793 100 220 120
0.245924 -0.189390 0.963957 100 220 120
0.242457 -0.194416 0.966326 100 220 120
0.255823 -0.205338 0.958019 100 220 120
0.256811 -0.200473 0.956322 100 220 120
0.233224 -0.194072 0.952558 100 220 120
0.240544 -0.187188 0.952405 100 220 120
0.236390 -0.189423 0.951375 100 220 120
0.237852 -0.199269 0.963902 100 220 120
0.240631 -0.190689 0.966329 100 220 120
0.240750 -0.174734 0.962663 100 220 120
0.243693 -0.183639 0.963091 100 220 120
0.244267 -0.182155 0.958345 100 220 120
0.241267 -0.174130 0.959645 100 220 120
0.244106 -0.186335 0.963795 100 220 120
0.239571 -0.186315 0.965859 100 220 120
0.232126 -0.176802 0.951695 100 220 120
0.237129 -0.175662 0.952982 100 220 120
0.229532 -0.178046 0.953274 100 220 120
0.250909 -0.211741 0.954677 100 220 120
0.228293 -0.179588 0.960639 100 220 120
0.227711 -0.178495 0.956223 100 220 120
0.241513 -0.182725 0.954441 100 220 120
0.240093 -0.174650 0.956054 100 220 120
0.237616 -0.176439 0.965114 100 220 120
0.232137 -0.179416 0.964760 100 220 120
0.236029 -0.171435 0.965013 100 220 120
0.230454 -0.174597 0.964332 100 220 120
0.226557 -0.174886 0.959608 100 220 120
0.226874 -0.175327 0.955692 100 220 120
0.228524 -0.175086 0.952861 100 220 120
0.239483 -0.170189 0.962306 100 220 120
0.240136 -0.170249 0.959176 100 220 120
0.239339 -0.171717 0.955485 100 220 120
0.237837 -0.165897 0.961675 100 220 120
0.233405 -0.165584 0.963962 100 220 120
0.224231 -0.160196 0.954781 100 220 120
0.224801 -0.164371 0.955731 100 220 120
0.225034 -0.163986 0.956968 100 220 120
0.223762 -0.159981 0.955928 100 220 120
0.225632 -0.169117 0.958633 100 220 120
0.225977 -0.167544 0.959448 100 220 120
0.228506 -0.167766 0.962192 100 220 120
0.227072 -0.162587 0.960549 100 220 120
0.231935 -0.160191 0.961913 100 220 120
0.230226 -0.156448 0.960512 100 220 120
0.225957 -0.158813 0.959775 100 220 120
0.231490 -0.164712 0.963555 100 220 120
0.223421 -0.157173 0.956282 100 220 120
0.222969 -0.156259 0.955119 100 220 120
0.228726 -0.169370 0.962942 100 220 120
0.225914 -0.171225 0.954734 100 220 120
0.224774 -0.164259 0.953144 100 220 120
0.223962 -0.159000 0.952609 100 220 120
0.224345 -0.155099 0.953496 100 220 120
0.226527 -0.165164 0.951214 100 220 120
0.225420 -0.158932 0.950596 100 220 120
0.226062 -0.155282 0.951587 100 220 120
0.229627 -0.165239 0.949756 100 220 120
0.228141 -0.159365 0.949930 100 220 120
0.231650 -0.172016 0.950712 100 220 120
0.228165 -0.171894 0.952094 100 220 120
0.227697 -0.156287 0.951146 100 220 120
0.225097 -0.154027 0.957639 100 220 120
0.226638 -0.153094 0.955126 100 220 120
0.225256 -0.155240 0.958725 100 220 120
0.233410 -0.160018 0.961703 100 220 120
0.231505 -0.155417 0.959929 100 220 120
0.235633 -0.159972 0.960065 100 220 120
0.232784 -0.155085 0.958073 100 220 120
0.228709 -0.153202 0.958712 100 220 120
0.227915 -0.154910 0.959651 100 220 120
0.232006 -0.173977 0.951147 100 220 120
0.236288 -0.173296 0.952481 100 220 120
0.235841 -0.170881 0.952092 100 220 120
0.233543 -0.164285 0.950640 100 220 120
0.238796 -0.169070 0.955148 100 220 120
0.239169 -0.167145 0.958794 100 220 120
0.236594 -0.160718 0.957277 100 220 120
0.236233 -0.162023 0.953849 100 220 120
0.233283 -0.155338 0.955735 100 220 120
0.233203 -0.156915 0.952876 100 220 120
0.231333 -0.158577 0.950525 100 220 120
0.230036 -0.153488 0.954612 100 220 120
0.229482 -0.152785 0.956428 100 220 120
0.228006 -0.153755 0.953405 100 220 120
0.230533 -0.154676 0.952921 100 220 120
0.229342 -0.155368 0.951931 100 220 120
0.260247 -0.202346 0.953546 100 220 120
0.220741 -0.170800 0.895573 100 220 120
0.221154 -0.174385 0.899720 100 220 120
0.228266 -0.164549 0.911168 100 220 120
0.225163 -0.171212 0.910109 100 220 120
0.228985 -0.158156 0.908251 100 220 120
0.226730 -0.155630 0.897738 100 220 120
0.228906 -0.155636 0.902731 100 220 120
0.222419 -0.174323 0.905650 100 220 120
0.221310 -0.165989 0.892675 100 220 120
0.223793 -0.159218 0.892944 100 220 120
0.214991 -0.161834 0.897523 100 220 120
0.218379 -0.155665 0.898404 100 220 120
0.221874 -0.152159 0.903763 100 220 120
0.224741 -0.153014 0.908662 100 220 120
0.225833 -0.155606 0.912523 100 220 120
0.215021 -0.167906 0.900289 100 220 120
0.215624 -0.171497 0.904580 100 220 120
0.218991 -0.172057 0.909858 100 220 120
0.207969 -0.165330 0.905760 100 220 120
0.202339 -0.156553 0.909994 100 220 120
0.203459 -0.142744 0.924201 100 220 120
0.208890 -0.144969 0.920786 100 220 120
0.206377 -0.145169 0.918800 100 220 120
0.201757 -0.142526 0.921707 100 220 120
0.211007 -0.146498 0.916080 100 220 120
0.208464 -0.146980 0.915650 100 220 120
0.205783 -0.150535 0.912033 100 220 120
0.201522 -0.147978 0.914876 100 220 120
0.202073 -0.154284 0.911676 100 220 120
0.198710 -0.153925 0.914237 100 220 120
0.197254 -0.145820 0.917838 100 220 120
0.197795 -0.141691 0.922209 100 220 120
0.193974 -0.144218 0.920847 100 220 120
0.198231 -0.142356 0.925560 100 220 120
0.205761 -0.149779 0.910430 100 220 120
0.218253 -0.149071 0.916228 100 220 120
0.212156 -0.147015 0.922589 100 220 120
0.205302 -0.145445 0.926670 100 220 120
0.198939 -0.144820 0.927865 100 220 120
0.213703 -0.151168 0.924789 100 220 120
0.206648 -0.150046 0.927879 100 220 120
0.200542 -0.150110 0.928489 100 220 120
0.212944 -0.156319 0.925327 100 220 120
0.206159 -0.154277 0.927525 100 220 120
0.222946 -0.160957 0.917112 100 220 120
0.222629 -0.153986 0.917253 100 220 120
0.201715 -0.152912 0.927831 100 220 120
0.192463 -0.144538 0.923471 100 220 120
0.193314 -0.147449 0.926062 100 220 120
0.198247 -0.157570 0.913786 100 220 120
0.194188 -0.151574 0.916497 100 220 120
0.193839 -0.154779 0.917595 100 220 120
0.199670 -0.161708 0.914202 100 220 120
0.194295 -0.157657 0.919079 100 220 120
0.191153 -0.150300 0.920664 100 220 120
0.192529 -0.148280 0.918789 100 220 120
0.225847 -0.161919 0.914211 100 220 120
0.223401 -0.168454 0.912772 100 220 120
0.220028 -0.167337 0.915331 100 220 120
0.210428 -0.162380 0.922958 100 220 120
0.214712 -0.170556 0.912856 100 220 120
0.209959 -0.169057 0.908645 100 220 120
0.201831 -0.164556 0.916433 100 220 120
0.205928 -0.165265 0.919621 100 220 120
0.196817 -0.159653 0.921606 100 220 120
0.199571 -0.159931 0.923409 100 220 120
0.203347 -0.157831 0.926325 100 220 120
0.194787 -0.155289 0.924502 100 220 120
0.192024 -0.153208 0.922616 100 220 120
0.196123 -0.151695 0.927099 100 220 120
0.197580 -0.156731 0.924989 100 220 120
0.199073 -0.154545 0.926808 100 220 120
0.264504 -0.199269 0.945458 100 220 120
0.259095 -0.197810 0.941638 100 220 120
0.264826 -0.197954 0.940596 100 220 120
0.271904 -0.196130 0.937002 100 220 120
0.282563 -0.197511 0.935753 100 220 120
0.267137 -0.195508 0.931813 100 220 120
0.259793 -0.197975 0.936219 100 220 120
0.251309 -0.199087 0.938924 100 220 120
0.269344 -0.193898 0.922097 100 220 120
