<svg xmlns="http://www.w3.org/2000/svg" width="1200" height="560" viewBox="0 0 1200 560"><rect width="100%" height="100%" fill="#fbf7ee"/><text x="90" y="38" font-size="28" font-family="Arial, sans-serif" font-weight="700" fill="#1d1d1b">Object Pred/GT Vertex Ratio</text><text x="920" y="38" font-size="16" font-family="Arial, sans-serif" fill="#5b5b55">baseline vs PCA canonicalization</text><line x1="90" y1="70.0" x2="1170" y2="70.0" stroke="#d8d2c7" stroke-width="1"/><text x="80" y="75.0" text-anchor="end" font-size="13" font-family="Arial, sans-serif" fill="#6a665d">46</text><line x1="90" y1="136.0" x2="1170" y2="136.0" stroke="#d8d2c7" stroke-width="1"/><text x="80" y="141.0" text-anchor="end" font-size="13" font-family="Arial, sans-serif" fill="#6a665d">37</text><line x1="90" y1="202.0" x2="1170" y2="202.0" stroke="#d8d2c7" stroke-width="1"/><text x="80" y="207.0" text-anchor="end" font-size="13" font-family="Arial, sans-serif" fill="#6a665d">28</text><line x1="90" y1="268.0" x2="1170" y2="268.0" stroke="#d8d2c7" stroke-width="1"/><text x="80" y="273.0" text-anchor="end" font-size="13" font-family="Arial, sans-serif" fill="#6a665d">18</text><line x1="90" y1="334.0" x2="1170" y2="334.0" stroke="#d8d2c7" stroke-width="1"/><text x="80" y="339.0" text-anchor="end" font-size="13" font-family="Arial, sans-serif" fill="#6a665d">9</text><line x1="90" y1="400.0" x2="1170" y2="400.0" stroke="#d8d2c7" stroke-width="1"/><text x="80" y="405.0" text-anchor="end" font-size="13" font-family="Arial, sans-serif" fill="#6a665d">0</text><line x1="90" y1="400" x2="1170" y2="400" stroke="#655f55" stroke-width="2"/><line x1="90" y1="70" x2="90" y2="400" stroke="#655f55" stroke-width="2"/><text x="24" y="235.0" transform="rotate(-90 24 235.0)" font-size="16" font-family="Arial, sans-serif" fill="#4f4b43">ratio</text><rect x="131.5" y="256.5" width="60.5" height="143.5" rx="6" fill="#8d6c2f"/><rect x="204.0" y="256.5" width="60.5" height="143.5" rx="6" fill="#5f8b3d"/><text x="198.0" y="428" text-anchor="end" transform="rotate(-28 198.0 428)" font-size="13" font-family="Arial, sans-serif" fill="#4f4b43">009_gelatin_box frame 40</text><rect x="347.5" y="70.0" width="60.5" height="330.0" rx="6" fill="#8d6c2f"/><rect x="420.0" y="70.0" width="60.5" height="330.0" rx="6" fill="#5f8b3d"/><text x="414.0" y="428" text-anchor="end" transform="rotate(-28 414.0 428)" font-size="13" font-family="Arial, sans-serif" fill="#4f4b43">025_mug frame 38</text><rect x="563.5" y="214.6" width="60.5" height="185.4" rx="6" fill="#8d6c2f"/><rect x="636.0" y="214.6" width="60.5" height="185.4" rx="6" fill="#5f8b3d"/><text x="630.0" y="428" text-anchor="end" transform="rotate(-28 630.0 428)" font-size="13" font-family="Arial, sans-serif" fill="#4f4b43">019_pitcher_base frame 37</text><rect x="779.5" y="219.5" width="60.5" height="180.5" rx="6" fill="#8d6c2f"/><rect x="852.0" y="219.5" width="60.5" height="180.5" rx="6" fill="#5f8b3d"/><text x="846.0" y="428" text-anchor="end" transform="rotate(-28 846.0 428)" font-size="13" font-family="Arial, sans-serif" fill="#4f4b43">019_pitcher_base frame 39</text><rect x="995.5" y="239.2" width="60.5" height="160.8" rx="6" fill="#8d6c2f"/><rect x="1068.0" y="239.2" width="60.5" height="160.8" rx="6" fill="#5f8b3d"/><text x="1062.0" y="428" text-anchor="end" transform="rotate(-28 1062.0 428)" font-size="13" font-family="Arial, sans-serif" fill="#4f4b43">006_mustard_bottle frame 24</text><rect x="900" y="475" width="18" height="18" rx="4" fill="#8d6c2f"/><text x="928" y="489" font-size="14" font-family="Arial, sans-serif" fill="#3e3b35">Officialized baseline</text><rect x="900" y="503" width="18" height="18" rx="4" fill="#5f8b3d"/><text x="928" y="517" font-size="14" font-family="Arial, sans-serif" fill="#3e3b35">Hand PCA canonicalization</text></svg>