ply
format ascii 1.0
element vertex 778
property float x
property float y
property float z
property uchar red
property uchar green
property uchar blue
end_header
0.586760 -0.610471 1.384678 34 197 94
0.577857 -0.615822 1.388018 34 197 94
0.582593 -0.615557 1.379850 34 197 94
0.589488 -0.608520 1.377066 34 197 94
0.566268 -0.627639 1.377608 34 197 94
0.556832 -0.625146 1.373167 34 197 94
0.569035 -0.622355 1.363127 34 197 94
0.576034 -0.625804 1.367632 34 197 94
0.592650 -0.605591 1.371537 34 197 94
0.587514 -0.614859 1.372787 34 197 94
0.593046 -0.601817 1.370951 34 197 94
0.596749 -0.590143 1.372361 34 197 94
0.597531 -0.596253 1.371157 34 197 94
0.602522 -0.584769 1.373073 34 197 94
0.590260 -0.585232 1.378814 34 197 94
0.603077 -0.580180 1.380997 34 197 94
0.591452 -0.589071 1.405246 34 197 94
0.593615 -0.596472 1.415302 34 197 94
0.609298 -0.592907 1.411364 34 197 94
0.605425 -0.586372 1.400788 34 197 94
0.607339 -0.607804 1.422955 34 197 94
0.609125 -0.599510 1.416230 34 197 94
0.593569 -0.601983 1.421169 34 197 94
0.592769 -0.609467 1.426786 34 197 94
0.584739 -0.617511 1.397344 34 197 94
0.575491 -0.621674 1.400579 34 197 94
0.575726 -0.618290 1.396563 34 197 94
0.584590 -0.614581 1.393200 34 197 94
0.587620 -0.599771 1.364953 34 197 94
0.580302 -0.594373 1.370989 34 197 94
0.587713 -0.595816 1.371832 34 197 94
0.591507 -0.603422 1.365200 34 197 94
0.556987 -0.640235 1.409585 34 197 94
0.545632 -0.638926 1.415223 34 197 94
0.543557 -0.635287 1.411601 34 197 94
0.554393 -0.636904 1.407634 34 197 94
0.542872 -0.625729 1.392151 34 197 94
0.536606 -0.624369 1.400403 34 197 94
0.528526 -0.614472 1.400706 34 197 94
0.535126 -0.612654 1.392645 34 197 94
0.549503 -0.625805 1.381961 34 197 94
0.542317 -0.615347 1.381529 34 197 94
0.551097 -0.616081 1.371874 34 197 94
0.564529 -0.614831 1.362455 34 197 94
0.549488 -0.645013 1.424929 34 197 94
0.558409 -0.647044 1.421709 34 197 94
0.639395 -0.591488 1.352856 34 197 94
0.641135 -0.595689 1.356048 34 197 94
0.638958 -0.595110 1.357960 34 197 94
0.637677 -0.591016 1.354528 34 197 94
0.560056 -0.639307 1.439361 34 197 94
0.560492 -0.631600 1.444621 34 197 94
0.554355 -0.634710 1.446394 34 197 94
0.552954 -0.640949 1.440368 34 197 94
0.569356 -0.637194 1.437871 34 197 94
0.568783 -0.627402 1.441421 34 197 94
0.647534 -0.582160 1.352438 34 197 94
0.643643 -0.584383 1.350340 34 197 94
0.641845 -0.581772 1.353376 34 197 94
0.645377 -0.579474 1.356220 34 197 94
0.596345 -0.601936 1.374119 34 197 94
0.595013 -0.607116 1.380871 34 197 94
0.612502 -0.596799 1.371406 34 197 94
0.605876 -0.600711 1.376014 34 197 94
0.603044 -0.596482 1.371988 34 197 94
0.608752 -0.592536 1.369349 34 197 94
0.606342 -0.613630 1.394060 34 197 94
0.595550 -0.616018 1.397205 34 197 94
0.595804 -0.612133 1.392318 34 197 94
0.607091 -0.608883 1.387427 34 197 94
0.597449 -0.626525 1.405297 34 197 94
0.607904 -0.622893 1.401780 34 197 94
0.607792 -0.629141 1.406725 34 197 94
0.600312 -0.631319 1.407735 34 197 94
0.624644 -0.613645 1.395212 34 197 94
0.630684 -0.610951 1.393548 34 197 94
0.631480 -0.612858 1.395270 34 197 94
0.624653 -0.615870 1.397625 34 197 94
0.548014 -0.636745 1.448506 34 197 94
0.545888 -0.641688 1.440921 34 197 94
0.606698 -0.625375 1.432648 34 197 94
0.603226 -0.634869 1.432425 34 197 94
0.615123 -0.635301 1.429935 34 197 94
0.616030 -0.624734 1.431281 34 197 94
0.559992 -0.622116 1.444192 34 197 94
0.554436 -0.625712 1.448096 34 197 94
0.651801 -0.582895 1.356682 34 197 94
0.649799 -0.580480 1.360328 34 197 94
0.548571 -0.603898 1.377070 34 197 94
0.562780 -0.605960 1.364478 34 197 94
0.539142 -0.603311 1.389305 34 197 94
0.533915 -0.603858 1.399350 34 197 94
0.527576 -0.604778 1.405885 34 197 94
0.611188 -0.602832 1.379126 34 197 94
0.592137 -0.610837 1.388432 34 197 94
0.585167 -0.620915 1.400745 34 197 94
0.593692 -0.643802 1.415990 34 197 94
0.584058 -0.646359 1.417830 34 197 94
0.585088 -0.639874 1.410388 34 197 94
0.593304 -0.638531 1.410811 34 197 94
0.603135 -0.642522 1.427105 34 197 94
0.603706 -0.643485 1.419952 34 197 94
0.611806 -0.641844 1.418178 34 197 94
0.612712 -0.641468 1.424743 34 197 94
0.582387 -0.597524 1.360867 34 197 94
0.573438 -0.594135 1.369582 34 197 94
0.558608 -0.645241 1.431622 34 197 94
0.551092 -0.644817 1.431888 34 197 94
0.543436 -0.644243 1.434445 34 197 94
0.565420 -0.630690 1.404033 34 197 94
0.552491 -0.634629 1.406038 34 197 94
0.551737 -0.632156 1.402520 34 197 94
0.564884 -0.627800 1.402566 34 197 94
0.569106 -0.623608 1.389571 34 197 94
0.557823 -0.628665 1.388612 34 197 94
0.576339 -0.624037 1.380571 34 197 94
0.539295 -0.630707 1.407028 34 197 94
0.534240 -0.635992 1.414484 34 197 94
0.530839 -0.629981 1.409704 34 197 94
0.537611 -0.640963 1.421535 34 197 94
0.540774 -0.644531 1.428467 34 197 94
0.548036 -0.626816 1.453596 34 197 94
0.528809 -0.623242 1.406142 34 197 94
0.582041 -0.622217 1.361761 34 197 94
0.586751 -0.618527 1.356487 34 197 94
0.591570 -0.616427 1.361356 34 197 94
0.587829 -0.619717 1.366285 34 197 94
0.610173 -0.580784 1.372491 34 197 94
0.609089 -0.586990 1.368808 34 197 94
0.601178 -0.590623 1.370282 34 197 94
0.567961 -0.641606 1.409917 34 197 94
0.568689 -0.647393 1.419883 34 197 94
0.618036 -0.598406 1.374492 34 197 94
0.641746 -0.578185 1.359912 34 197 94
0.638125 -0.580696 1.356468 34 197 94
0.623134 -0.580127 1.366027 34 197 94
0.626936 -0.577096 1.370064 34 197 94
0.627881 -0.594884 1.377070 34 197 94
0.622888 -0.596873 1.373363 34 197 94
0.625731 -0.595789 1.372819 34 197 94
0.631070 -0.595362 1.375508 34 197 94
0.629149 -0.619509 1.400575 34 197 94
0.623413 -0.622147 1.402632 34 197 94
0.619707 -0.586052 1.394969 34 197 94
0.613434 -0.577050 1.388454 34 197 94
0.602952 -0.580661 1.391658 34 197 94
0.606454 -0.618690 1.398934 34 197 94
0.616383 -0.616837 1.396846 34 197 94
0.616814 -0.619586 1.399452 34 197 94
0.615567 -0.603114 1.380849 34 197 94
0.621890 -0.599504 1.378506 34 197 94
0.620748 -0.602224 1.382615 34 197 94
0.615107 -0.606147 1.384936 34 197 94
0.591068 -0.635359 1.435522 34 197 94
0.591215 -0.644594 1.429694 34 197 94
0.640508 -0.587609 1.350646 34 197 94
0.638785 -0.586145 1.352816 34 197 94
0.595902 -0.621084 1.401800 34 197 94
0.590200 -0.585192 1.395494 34 197 94
0.585711 -0.624818 1.404293 34 197 94
0.626760 -0.616231 1.418720 34 197 94
0.628411 -0.622948 1.415262 34 197 94
0.633006 -0.621939 1.411618 34 197 94
0.634091 -0.617021 1.414204 34 197 94
0.643252 -0.594951 1.368383 34 197 94
0.640413 -0.596988 1.364434 34 197 94
0.642367 -0.596840 1.362313 34 197 94
0.646532 -0.595081 1.365660 34 197 94
0.618823 -0.595279 1.369897 34 197 94
0.615209 -0.591281 1.367177 34 197 94
0.621023 -0.591127 1.365326 34 197 94
0.623628 -0.594276 1.368855 34 197 94
0.615582 -0.585341 1.366853 34 197 94
0.620865 -0.585252 1.364579 34 197 94
0.646362 -0.590024 1.370425 34 197 94
0.647634 -0.583140 1.368656 34 197 94
0.633950 -0.582886 1.378720 34 197 94
0.635076 -0.589755 1.377457 34 197 94
0.579029 -0.610353 1.431503 34 197 94
0.580074 -0.619445 1.436405 34 197 94
0.593846 -0.618878 1.431842 34 197 94
0.607647 -0.617965 1.428673 34 197 94
0.620385 -0.617206 1.424276 34 197 94
0.620367 -0.606094 1.421053 34 197 94
0.593221 -0.625343 1.435361 34 197 94
0.627236 -0.592008 1.385852 34 197 94
0.624438 -0.583963 1.386277 34 197 94
0.625312 -0.588356 1.390743 34 197 94
0.587301 -0.630868 1.407468 34 197 94
0.635625 -0.585193 1.355251 34 197 94
0.541358 -0.597038 1.419146 34 197 94
0.546339 -0.601439 1.429877 34 197 94
0.553148 -0.599052 1.424978 34 197 94
0.547824 -0.594724 1.412334 34 197 94
0.636976 -0.595474 1.359433 34 197 94
0.634801 -0.591126 1.356026 34 197 94
0.625340 -0.626791 1.406058 34 197 94
0.630297 -0.623615 1.404065 34 197 94
0.632293 -0.624562 1.406406 34 197 94
0.629031 -0.630052 1.408037 34 197 94
0.579282 -0.624201 1.438679 34 197 94
0.621982 -0.637389 1.426654 34 197 94
0.622879 -0.627423 1.428567 34 197 94
0.568017 -0.619634 1.440277 34 197 94
0.567024 -0.611372 1.436502 34 197 94
0.558363 -0.612856 1.440206 34 197 94
0.624579 -0.598118 1.409937 34 197 94
0.579989 -0.604023 1.426557 34 197 94
0.567162 -0.606000 1.431869 34 197 94
0.556886 -0.607573 1.436126 34 197 94
0.549657 -0.608778 1.439888 34 197 94
0.552007 -0.614578 1.443985 34 197 94
0.645549 -0.579650 1.364471 34 197 94
0.652701 -0.584571 1.364863 34 197 94
0.545064 -0.615439 1.449876 34 197 94
0.542365 -0.609300 1.444391 34 197 94
0.566147 -0.600393 1.425325 34 197 94
0.564724 -0.594154 1.416641 34 197 94
0.578687 -0.598823 1.420714 34 197 94
0.578351 -0.592567 1.411881 34 197 94
0.620749 -0.588804 1.407793 34 197 94
0.658165 -0.597282 1.354658 34 197 94
0.653531 -0.592621 1.362707 34 197 94
0.649286 -0.596276 1.362499 34 197 94
0.655835 -0.600489 1.355406 34 197 94
0.650460 -0.590922 1.366877 34 197 94
0.654414 -0.587421 1.361045 34 197 94
0.575916 -0.588289 1.399044 34 197 94
0.626493 -0.598754 1.381495 34 197 94
0.559999 -0.591199 1.400655 34 197 94
0.577918 -0.586091 1.383036 34 197 94
0.566175 -0.590380 1.382752 34 197 94
0.543164 -0.595278 1.400261 34 197 94
0.551405 -0.594132 1.385234 34 197 94
0.530982 -0.599421 1.414044 34 197 94
0.537844 -0.597367 1.408534 34 197 94
0.560891 -0.596925 1.372542 34 197 94
0.644855 -0.598241 1.347904 34 197 94
0.646716 -0.601415 1.351800 34 197 94
0.534656 -0.598455 1.423960 34 197 94
0.583184 -0.622164 1.372242 34 197 94
0.577138 -0.633522 1.407232 34 197 94
0.576362 -0.628615 1.405173 34 197 94
0.578048 -0.647086 1.418533 34 197 94
0.577516 -0.640596 1.410054 34 197 94
0.645621 -0.593979 1.345232 34 197 94
0.634977 -0.608709 1.394882 34 197 94
0.633300 -0.608993 1.396357 34 197 94
0.575944 -0.619357 1.358003 34 197 94
0.580513 -0.616624 1.353424 34 197 94
0.577547 -0.604660 1.352454 34 197 94
0.577836 -0.611331 1.351382 34 197 94
0.571530 -0.612411 1.356789 34 197 94
0.570657 -0.605382 1.358010 34 197 94
0.566350 -0.633069 1.405119 34 197 94
0.567656 -0.636106 1.406888 34 197 94
0.579608 -0.636666 1.436898 34 197 94
0.580411 -0.645484 1.430634 34 197 94
0.617019 -0.580188 1.370086 34 197 94
0.612516 -0.577030 1.378952 34 197 94
0.619867 -0.577349 1.375219 34 197 94
0.629472 -0.577977 1.376021 34 197 94
0.629443 -0.595331 1.382317 34 197 94
0.628918 -0.590839 1.380810 34 197 94
0.554599 -0.630319 1.396078 34 197 94
0.565717 -0.624682 1.397623 34 197 94
0.590599 -0.613363 1.368334 34 197 94
0.593552 -0.610807 1.364643 34 197 94
0.614243 -0.611110 1.390773 34 197 94
0.633292 -0.597784 1.402886 34 197 94
0.630109 -0.590079 1.401238 34 197 94
0.622118 -0.607569 1.388780 34 197 94
0.652233 -0.589591 1.345261 34 197 94
0.648103 -0.591528 1.344290 34 197 94
0.622201 -0.577847 1.381535 34 197 94
0.616987 -0.625994 1.404059 34 197 94
0.630393 -0.602634 1.406859 34 197 94
0.635868 -0.604010 1.399739 34 197 94
0.617682 -0.641379 1.422377 34 197 94
0.538705 -0.602888 1.434094 34 197 94
0.644959 -0.598212 1.359976 34 197 94
0.649978 -0.602556 1.354959 34 197 94
0.658519 -0.593465 1.353234 34 197 94
0.656141 -0.589530 1.349693 34 197 94
0.570012 -0.645377 1.430144 34 197 94
0.576230 -0.625386 1.403399 34 197 94
0.569988 -0.599040 1.364379 34 197 94
0.578850 -0.599480 1.356642 34 197 94
0.626985 -0.605391 1.387746 34 197 94
0.625435 -0.622902 1.421913 34 197 94
0.628946 -0.607714 1.416991 34 197 94
0.636927 -0.609364 1.412715 34 197 94
0.638000 -0.605912 1.406705 34 197 94
0.637624 -0.606688 1.399776 34 197 94
0.660694 -0.597270 1.349550 34 197 94
0.658534 -0.593350 1.345991 34 197 94
0.654515 -0.593175 1.341656 34 197 94
0.650385 -0.594586 1.340999 34 197 94
0.647258 -0.596741 1.343011 34 197 94
0.660284 -0.601250 1.351070 34 197 94
0.657841 -0.604021 1.351712 34 197 94
0.651835 -0.604657 1.352616 34 197 94
0.661046 -0.605206 1.348106 34 197 94
0.663092 -0.603303 1.343731 34 197 94
0.655764 -0.603971 1.332536 34 197 94
0.656939 -0.599425 1.336006 34 197 94
0.658765 -0.601510 1.335340 34 197 94
0.658580 -0.605554 1.332544 34 197 94
0.659818 -0.609938 1.330145 34 197 94
0.656566 -0.608703 1.329508 34 197 94
0.661070 -0.600935 1.339205 34 197 94
0.661530 -0.606664 1.335706 34 197 94
0.662961 -0.608713 1.338910 34 197 94
0.663747 -0.612996 1.335502 34 197 94
0.662760 -0.611224 1.332505 34 197 94
0.662878 -0.604585 1.340944 34 197 94
0.660942 -0.598827 1.340644 34 197 94
0.658430 -0.612876 1.328595 34 197 94
0.660887 -0.612482 1.329042 34 197 94
0.662920 -0.613993 1.331066 34 197 94
0.661452 -0.616522 1.330207 34 197 94
0.651533 -0.598084 1.337733 34 197 94
0.653234 -0.604431 1.332805 34 197 94
0.654207 -0.610100 1.330953 34 197 94
0.656300 -0.614106 1.329950 34 197 94
0.651313 -0.607416 1.334655 34 197 94
0.653005 -0.611656 1.333039 34 197 94
0.654833 -0.615244 1.332654 34 197 94
0.650870 -0.610459 1.337409 34 197 94
0.652878 -0.613574 1.335466 34 197 94
0.647535 -0.601791 1.343847 34 197 94
0.648110 -0.598831 1.341067 34 197 94
0.653839 -0.615827 1.334415 34 197 94
0.659920 -0.617740 1.331367 34 197 94
0.662725 -0.609354 1.342448 34 197 94
0.662670 -0.614659 1.337901 34 197 94
0.661399 -0.610613 1.343982 34 197 94
0.661785 -0.615950 1.339648 34 197 94
0.663371 -0.617506 1.334434 34 197 94
0.663670 -0.615187 1.333499 34 197 94
0.646269 -0.599812 1.346718 34 197 94
0.648369 -0.603160 1.350721 34 197 94
0.649419 -0.605049 1.348417 34 197 94
0.652218 -0.612951 1.341060 34 197 94
0.652749 -0.606938 1.350210 34 197 94
0.658306 -0.607680 1.348857 34 197 94
0.659299 -0.612683 1.344293 34 197 94
0.656155 -0.613701 1.343931 34 197 94
0.659459 -0.616470 1.340533 34 197 94
0.657001 -0.616316 1.340219 34 197 94
0.654007 -0.615694 1.338062 34 197 94
0.659069 -0.618457 1.336989 34 197 94
0.661717 -0.618344 1.335744 34 197 94
0.657463 -0.617886 1.333694 34 197 94
0.657385 -0.617920 1.337841 34 197 94
0.655798 -0.616997 1.335560 34 197 94
0.654512 -0.607105 1.371163 34 197 94
0.655319 -0.611705 1.374803 34 197 94
0.653631 -0.608658 1.377030 34 197 94
0.652926 -0.604879 1.373953 34 197 94
0.664570 -0.598154 1.373219 34 197 94
0.659797 -0.600492 1.370188 34 197 94
0.658190 -0.596547 1.373739 34 197 94
0.663032 -0.594605 1.378032 34 197 94
0.668109 -0.600136 1.378999 34 197 94
0.665757 -0.597033 1.383769 34 197 94
0.658505 -0.592412 1.381320 34 197 94
0.653976 -0.594911 1.376797 34 197 94
0.635064 -0.592738 1.385198 34 197 94
0.638188 -0.589766 1.390133 34 197 94
0.635395 -0.608547 1.389452 34 197 94
0.637891 -0.607910 1.391897 34 197 94
0.656268 -0.603949 1.369998 34 197 94
0.654690 -0.600743 1.372988 34 197 94
0.654571 -0.611081 1.385125 34 197 94
0.651833 -0.610867 1.380845 34 197 94
0.654947 -0.611747 1.380095 34 197 94
0.658650 -0.611843 1.383771 34 197 94
0.632139 -0.599574 1.383129 34 197 94
0.632979 -0.604324 1.386365 34 197 94
0.633395 -0.596270 1.383285 34 197 94
0.658568 -0.607985 1.389086 34 197 94
0.661452 -0.602326 1.390701 34 197 94
0.643365 -0.598171 1.399012 34 197 94
0.642687 -0.603874 1.397146 34 197 94
0.651302 -0.598899 1.374853 34 197 94
0.650539 -0.607827 1.376758 34 197 94
0.649712 -0.603850 1.374595 34 197 94
0.660349 -0.595576 1.387388 34 197 94
0.666452 -0.604395 1.386873 34 197 94
0.670098 -0.618484 1.373340 34 197 94
0.665636 -0.612501 1.382018 34 197 94
0.661477 -0.614670 1.380531 34 197 94
0.666497 -0.621427 1.372601 34 197 94
0.663047 -0.609559 1.386214 34 197 94
0.668289 -0.607495 1.381887 34 197 94
0.659281 -0.616967 1.362909 34 197 94
0.660057 -0.621244 1.366912 34 197 94
0.660988 -0.613623 1.361049 34 197 94
0.641155 -0.591842 1.396208 34 197 94
0.668185 -0.607780 1.364309 34 197 94
0.663456 -0.610534 1.361377 34 197 94
0.657276 -0.614558 1.378237 34 197 94
0.662826 -0.622901 1.370252 34 197 94
0.672058 -0.614838 1.372535 34 197 94
0.671358 -0.608791 1.369676 34 197 94
0.673773 -0.618157 1.367875 34 197 94
0.673233 -0.613416 1.364600 34 197 94
0.669706 -0.612021 1.359676 34 197 94
0.664781 -0.613825 1.358204 34 197 94
0.661981 -0.616109 1.359003 34 197 94
0.672043 -0.621691 1.368987 34 197 94
0.668465 -0.624446 1.368999 34 197 94
0.663773 -0.624280 1.367974 34 197 94
0.671774 -0.627169 1.364324 34 197 94
0.674358 -0.624823 1.361786 34 197 94
0.667045 -0.627490 1.345930 34 197 94
0.667920 -0.622952 1.349575 34 197 94
0.670126 -0.624107 1.350053 34 197 94
0.669439 -0.628372 1.346833 34 197 94
0.670524 -0.618819 1.353243 34 197 94
0.671629 -0.621051 1.353055 34 197 94
0.673790 -0.622361 1.356669 34 197 94
0.672254 -0.626902 1.352907 34 197 94
0.672952 -0.629362 1.356714 34 197 94
0.672758 -0.633619 1.352978 34 197 94
0.672428 -0.631316 1.349086 34 197 94
0.674152 -0.625564 1.358414 34 197 94
0.669538 -0.631593 1.345302 34 197 94
0.667573 -0.632752 1.344324 34 197 94
0.674537 -0.619743 1.358332 34 197 94
0.665666 -0.616404 1.355128 34 197 94
0.665022 -0.623180 1.349601 34 197 94
0.664227 -0.628653 1.346211 34 197 94
0.665517 -0.634504 1.345456 34 197 94
0.662149 -0.625478 1.350978 34 197 94
0.662412 -0.630526 1.347847 34 197 94
0.664028 -0.635147 1.347518 34 197 94
0.660322 -0.628503 1.353673 34 197 94
0.661370 -0.633215 1.350652 34 197 94
0.660286 -0.620478 1.360249 34 197 94
0.661854 -0.617774 1.357091 34 197 94
0.662759 -0.635070 1.349466 34 197 94
0.670364 -0.636095 1.346001 34 197 94
0.667615 -0.637603 1.346956 34 197 94
0.671276 -0.634670 1.346601 34 197 94
0.672549 -0.630478 1.358337 34 197 94
0.671588 -0.635082 1.354010 34 197 94
0.670868 -0.632167 1.359678 34 197 94
0.670035 -0.636720 1.354637 34 197 94
0.671229 -0.637682 1.350143 34 197 94
0.671972 -0.636373 1.349453 34 197 94
0.660673 -0.618822 1.361693 34 197 94
0.661356 -0.622359 1.365547 34 197 94
0.661001 -0.623783 1.364300 34 197 94
0.661502 -0.631529 1.357401 34 197 94
0.664015 -0.626077 1.366686 34 197 94
0.668599 -0.627917 1.365707 34 197 94
0.668479 -0.632859 1.360701 34 197 94
0.664847 -0.633185 1.359872 34 197 94
0.668544 -0.637637 1.355781 34 197 94
0.665719 -0.636529 1.356457 34 197 94
0.662230 -0.635240 1.353841 34 197 94
0.668042 -0.639504 1.351636 34 197 94
0.669956 -0.638765 1.350604 34 197 94
0.665969 -0.637725 1.348369 34 197 94
0.665846 -0.638487 1.353228 34 197 94
0.663929 -0.637100 1.350629 34 197 94
0.650187 -0.621883 1.384663 34 197 94
0.648618 -0.626305 1.387533 34 197 94
0.647880 -0.624827 1.389349 34 197 94
0.649371 -0.620438 1.386774 34 197 94
0.661266 -0.618536 1.388119 34 197 94
0.657852 -0.618257 1.384794 34 197 94
0.656860 -0.615140 1.387863 34 197 94
0.659985 -0.614362 1.392150 34 197 94
0.663177 -0.622764 1.391043 34 197 94
0.661993 -0.617700 1.397099 34 197 94
0.656525 -0.611492 1.395839 34 197 94
0.654230 -0.612869 1.390676 34 197 94
0.641605 -0.608272 1.398163 34 197 94
0.644339 -0.607279 1.403473 34 197 94
0.653754 -0.619568 1.384048 34 197 94
0.652731 -0.617582 1.386351 34 197 94
0.648522 -0.628523 1.396756 34 197 94
0.646715 -0.627244 1.393328 34 197 94
0.648902 -0.628498 1.392499 34 197 94
0.651419 -0.629592 1.395319 34 197 94
0.634137 -0.614492 1.395398 34 197 94
0.633018 -0.618577 1.399138 34 197 94
0.638009 -0.611393 1.395256 34 197 94
0.652911 -0.626766 1.400708 34 197 94
0.656887 -0.621575 1.403304 34 197 94
0.643330 -0.618015 1.410403 34 197 94
0.639950 -0.621913 1.408271 34 197 94
0.650859 -0.615770 1.388342 34 197 94
0.645544 -0.623753 1.389862 34 197 94
0.647274 -0.619431 1.387691 34 197 94
0.657033 -0.615012 1.400727 34 197 94
0.660664 -0.624496 1.399167 34 197 94
0.661009 -0.639492 1.383240 34 197 94
0.657525 -0.630814 1.395408 34 197 94
0.652274 -0.631290 1.393456 34 197 94
0.656962 -0.640551 1.382779 34 197 94
0.656244 -0.628944 1.398093 34 197 94
0.661675 -0.627427 1.394966 34 197 94
0.652333 -0.631880 1.374542 34 197 94
0.651393 -0.635620 1.377965 34 197 94
0.655403 -0.629018 1.374396 34 197 94
0.645120 -0.610716 1.408883 34 197 94
0.635477 -0.623033 1.404245 34 197 94
0.662289 -0.628758 1.375922 34 197 94
0.658500 -0.628136 1.374466 34 197 94
0.649613 -0.629697 1.390974 34 197 94
0.653251 -0.639364 1.381144 34 197 94
0.664022 -0.636178 1.382755 34 197 94
0.664854 -0.631199 1.380188 34 197 94
0.664137 -0.640181 1.378457 34 197 94
0.665039 -0.635280 1.375568 34 197 94
0.662988 -0.632410 1.371501 34 197 94
0.659003 -0.631377 1.370602 34 197 94
0.655695 -0.631865 1.370877 34 197 94
0.660536 -0.642985 1.379096 34 197 94
0.656759 -0.643256 1.378836 34 197 94
0.653494 -0.639954 1.379028 34 197 94
0.659011 -0.645891 1.376004 34 197 94
0.663128 -0.644745 1.372931 34 197 94
0.657859 -0.644641 1.357683 34 197 94
0.659233 -0.640949 1.361676 34 197 94
0.659944 -0.641837 1.362069 34 197 94
0.659080 -0.645678 1.358053 34 197 94
0.662399 -0.637761 1.366364 34 197 94
0.662403 -0.639606 1.365672 34 197 94
0.663670 -0.641678 1.368500 34 197 94
0.661842 -0.645908 1.364194 34 197 94
0.659885 -0.648982 1.368514 34 197 94
0.658706 -0.651590 1.364347 34 197 94
0.660818 -0.649256 1.360198 34 197 94
0.662667 -0.645093 1.370902 34 197 94
0.658564 -0.648383 1.356483 34 197 94
0.657877 -0.647650 1.354751 34 197 94
0.664549 -0.640102 1.370216 34 197 94
0.658995 -0.634569 1.366143 34 197 94
0.656879 -0.639454 1.361085 34 197 94
0.655222 -0.642972 1.356787 34 197 94
0.654378 -0.646953 1.355250 34 197 94
0.653474 -0.639528 1.362195 34 197 94
0.652616 -0.643107 1.358374 34 197 94
0.651917 -0.646665 1.356934 34 197 94
0.651201 -0.640709 1.363927 34 197 94
0.650803 -0.644124 1.360644 34 197 94
0.652856 -0.634698 1.370853 34 197 94
0.655599 -0.633829 1.368029 34 197 94
0.650856 -0.646673 1.358891 34 197 94
0.658069 -0.651820 1.356666 34 197 94
0.654010 -0.651922 1.357301 34 197 94
0.658875 -0.650928 1.357924 34 197 94
0.659097 -0.649391 1.370069 34 197 94
0.657314 -0.653173 1.365107 34 197 94
0.656625 -0.649559 1.371242 34 197 94
0.654955 -0.653340 1.366304 34 197 94
0.657322 -0.654111 1.361024 34 197 94
0.658077 -0.653223 1.360968 34 197 94
0.653013 -0.633502 1.373177 34 197 94
0.651931 -0.636710 1.376434 34 197 94
0.651557 -0.637498 1.374146 34 197 94
0.649689 -0.643779 1.366655 34 197 94
0.652633 -0.640911 1.376835 34 197 94
0.655426 -0.645569 1.375641 34 197 94
0.653640 -0.648656 1.370936 34 197 94
0.650961 -0.647018 1.369260 34 197 94
0.652506 -0.652146 1.366495 34 197 94
0.651113 -0.649778 1.366148 34 197 94
0.649329 -0.646721 1.363152 34 197 94
0.652489 -0.652615 1.362447 34 197 94
0.654753 -0.654198 1.361786 34 197 94
0.651579 -0.650613 1.358640 34 197 94
0.650923 -0.650878 1.363020 34 197 94
0.650269 -0.649248 1.360210 34 197 94
0.633480 -0.621726 1.401873 34 197 94
0.644475 -0.642581 1.401483 34 197 94
0.642151 -0.645414 1.402837 34 197 94
0.641892 -0.644994 1.404526 34 197 94
0.643240 -0.641360 1.403420 34 197 94
0.653042 -0.641071 1.407904 34 197 94
0.650828 -0.640331 1.404002 34 197 94
0.649718 -0.636940 1.407285 34 197 94
0.651785 -0.637369 1.411354 34 197 94
0.652867 -0.644277 1.411756 34 197 94
0.651425 -0.641277 1.415110 34 197 94
0.648839 -0.635397 1.413180 34 197 94
0.646927 -0.634835 1.409086 34 197 94
0.633331 -0.627406 1.414348 34 197 94
0.632954 -0.627535 1.419539 34 197 94
0.622699 -0.641989 1.419496 34 197 94
0.620704 -0.640760 1.414862 34 197 94
0.628702 -0.642561 1.412837 34 197 94
0.629221 -0.643448 1.417414 34 197 94
0.647682 -0.641007 1.402024 34 197 94
0.646150 -0.638274 1.404294 34 197 94
0.640909 -0.649476 1.412473 34 197 94
0.639715 -0.647703 1.408333 34 197 94
0.640898 -0.647939 1.406710 34 197 94
0.641936 -0.650672 1.409922 34 197 94
0.622155 -0.637472 1.410886 34 197 94
0.624397 -0.633632 1.409463 34 197 94
0.628357 -0.634974 1.407770 34 197 94
0.629676 -0.639748 1.409281 34 197 94
0.631706 -0.630646 1.408509 34 197 94
0.643276 -0.648652 1.415898 34 197 94
0.646862 -0.644962 1.418566 34 197 94
0.630985 -0.639138 1.425243 34 197 94
0.629350 -0.641788 1.422098 34 197 94
0.645090 -0.637040 1.405693 34 197 94
0.640168 -0.644336 1.405733 34 197 94
0.642587 -0.641032 1.404310 34 197 94
0.648683 -0.639120 1.417458 34 197 94
0.648822 -0.647054 1.415742 34 197 94
0.647005 -0.657246 1.404588 34 197 94
0.645081 -0.652151 1.411269 34 197 94
0.641748 -0.651578 1.408019 34 197 94
0.644678 -0.656599 1.402974 34 197 94
0.644916 -0.650473 1.413179 34 197 94
0.649648 -0.649774 1.412452 34 197 94
0.646494 -0.647876 1.395562 34 197 94
0.643683 -0.651108 1.398163 34 197 94
0.649270 -0.646705 1.395683 34 197 94
0.632468 -0.631668 1.424507 34 197 94
0.654576 -0.648323 1.399894 34 197 94
0.652370 -0.647018 1.396613 34 197 94
0.641204 -0.648620 1.404879 34 197 94
0.643280 -0.654275 1.400743 34 197 94
0.650808 -0.655942 1.405358 34 197 94
0.654408 -0.651592 1.404117 34 197 94
0.651302 -0.658989 1.401185 34 197 94
0.655117 -0.654683 1.399841 34 197 94
0.654761 -0.650998 1.395512 34 197 94
0.652197 -0.648999 1.394063 34 197 94
0.649386 -0.648479 1.393475 34 197 94
0.647042 -0.659748 1.401016 34 197 94
0.644604 -0.658539 1.399929 34 197 94
0.643159 -0.655621 1.398545 34 197 94
0.647002 -0.661935 1.397329 34 197 94
0.651191 -0.661842 1.395612 34 197 94
0.650382 -0.658451 1.383216 34 197 94
0.651437 -0.656059 1.386379 34 197 94
0.651946 -0.657056 1.386826 34 197 94
0.651305 -0.659031 1.383317 34 197 94
0.653594 -0.654389 1.390929 34 197 94
0.653497 -0.656032 1.390490 34 197 94
0.653637 -0.657984 1.393315 34 197 94
0.652505 -0.660509 1.388816 34 197 94
0.649663 -0.664194 1.390832 34 197 94
0.649171 -0.665696 1.387039 34 197 94
0.651965 -0.662532 1.385643 34 197 94
0.651950 -0.661727 1.393841 34 197 94
0.651152 -0.661216 1.381658 34 197 94
0.650596 -0.661158 1.380414 34 197 94
0.654386 -0.657235 1.394906 34 197 94
0.651366 -0.651132 1.390555 34 197 94
0.649812 -0.654850 1.385143 34 197 94
0.648973 -0.658142 1.381426 34 197 94
0.648527 -0.661541 1.379828 34 197 94
0.647649 -0.653912 1.385820 34 197 94
0.646792 -0.657607 1.381352 34 197 94
0.646301 -0.660933 1.380042 34 197 94
0.644750 -0.654178 1.387018 34 197 94
0.644715 -0.657870 1.382853 34 197 94
0.645329 -0.650692 1.392376 34 197 94
0.648396 -0.650259 1.390990 34 197 94
0.645171 -0.660495 1.381353 34 197 94
0.650366 -0.664719 1.381381 34 197 94
0.647677 -0.664431 1.380749 34 197 94
0.651114 -0.664424 1.382694 34 197 94
0.648648 -0.664611 1.391444 34 197 94
0.647906 -0.666468 1.386943 34 197 94
0.646271 -0.664564 1.391993 34 197 94
0.645907 -0.666165 1.386687 34 197 94
0.648565 -0.666811 1.383518 34 197 94
0.649842 -0.665834 1.384421 34 197 94
0.645809 -0.649644 1.393839 34 197 94
0.643743 -0.652174 1.396299 34 197 94
0.643227 -0.653478 1.394649 34 197 94
0.642575 -0.656521 1.389110 34 197 94
0.642747 -0.657066 1.396721 34 197 94
0.644446 -0.660215 1.397506 34 197 94
0.644073 -0.663133 1.391768 34 197 94
0.642396 -0.660509 1.390821 34 197 94
0.644248 -0.665064 1.386108 34 197 94
0.642803 -0.662557 1.385722 34 197 94
0.642848 -0.659687 1.384523 34 197 94
0.645267 -0.664854 1.382643 34 197 94
0.646611 -0.666097 1.382709 34 197 94
0.645873 -0.663512 1.381082 34 197 94
0.644108 -0.663354 1.382874 34 197 94
0.644405 -0.662044 1.382124 34 197 94
0.625310 -0.640995 1.422186 34 197 94
0.593130 -0.600231 1.352374 34 197 94
0.596548 -0.601880 1.355618 34 197 94
0.597748 -0.616232 1.351980 34 197 94
0.600280 -0.611277 1.355278 34 197 94
0.593546 -0.617381 1.347187 34 197 94
0.586873 -0.610895 1.343138 34 197 94
0.589092 -0.615061 1.344794 34 197 94
0.599516 -0.606126 1.356215 34 197 94
0.589426 -0.600607 1.348683 34 197 94
0.586120 -0.604908 1.344423 34 197 94
0.595384 -0.601080 1.341830 34 197 94
0.592113 -0.606125 1.338340 34 197 94
0.592471 -0.612740 1.337430 34 197 94
0.594360 -0.617158 1.340848 34 197 94
0.596997 -0.619248 1.343934 34 197 94
0.598549 -0.601053 1.347597 34 197 94
0.601616 -0.602897 1.351040 34 197 94
0.603366 -0.607825 1.353365 34 197 94
0.605926 -0.601707 1.343024 34 197 94
0.610159 -0.605031 1.334297 34 197 94
0.615823 -0.621305 1.326470 34 197 94
0.610300 -0.620447 1.329818 34 197 94
0.610877 -0.617871 1.328644 34 197 94
0.615545 -0.618941 1.325248 34 197 94
0.606022 -0.617539 1.330900 34 197 94
0.607554 -0.615834 1.330245 34 197 94
0.607696 -0.610586 1.331359 34 197 94
0.612383 -0.611856 1.328272 34 197 94
0.610906 -0.607203 1.332866 34 197 94
0.615043 -0.607736 1.331749 34 197 94
0.617034 -0.612960 1.325368 34 197 94
0.618529 -0.617850 1.322941 34 197 94
0.620970 -0.614219 1.323167 34 197 94
0.620282 -0.620151 1.324126 34 197 94
0.606153 -0.609382 1.329893 34 197 94
0.602073 -0.620222 1.335738 34 197 94
0.609651 -0.622612 1.332861 34 197 94
0.616530 -0.623075 1.329591 34 197 94
0.621573 -0.621250 1.326796 34 197 94
0.610871 -0.623367 1.337000 34 197 94
0.617269 -0.622786 1.333921 34 197 94
0.621859 -0.620357 1.331715 34 197 94
0.612863 -0.621367 1.340862 34 197 94
0.618293 -0.620580 1.337022 34 197 94
0.602856 -0.618681 1.347414 34 197 94
0.601263 -0.621212 1.341782 34 197 94
0.621173 -0.619268 1.334249 34 197 94
0.623564 -0.615201 1.323250 34 197 94
0.624994 -0.616312 1.326444 34 197 94
0.615619 -0.605824 1.334380 34 197 94
0.619340 -0.608396 1.328582 34 197 94
0.620651 -0.607767 1.331124 34 197 94
0.615805 -0.605200 1.338304 34 197 94
0.621730 -0.607875 1.333799 34 197 94
0.623761 -0.610427 1.326984 34 197 94
0.621437 -0.610541 1.325593 34 197 94
0.600002 -0.618151 1.349198 34 197 94
0.602178 -0.613318 1.352944 34 197 94
0.604981 -0.613722 1.351005 34 197 94
0.614407 -0.616106 1.344204 34 197 94
0.607240 -0.608227 1.350827 34 197 94
0.607243 -0.603558 1.347233 34 197 94
0.616358 -0.606703 1.341704 34 197 94
0.615811 -0.610568 1.344262 34 197 94
0.621919 -0.609929 1.336745 34 197 94
0.621172 -0.612331 1.338288 34 197 94
0.620061 -0.616938 1.338526 34 197 94
0.624338 -0.612766 1.332989 34 197 94
0.624804 -0.611027 1.329987 34 197 94
0.624389 -0.616671 1.331105 34 197 94
0.622949 -0.613781 1.335213 34 197 94
0.622679 -0.616658 1.334386 34 197 94
0.616083 -0.640786 1.416519 34 197 94
0.616720 -0.637229 1.411584 34 197 94
0.611342 -0.639215 1.413652 34 197 94
0.602993 -0.641542 1.414832 34 197 94
0.595766 -0.645092 1.420985 34 197 94
0.602022 -0.636839 1.410722 34 197 94
0.611092 -0.634696 1.409797 34 197 94
0.619127 -0.631364 1.407786 34 197 94
0.593198 -0.633060 1.408829 34 197 94
