ply
format ascii 1.0
element vertex 778
property float x
property float y
property float z
property uchar red
property uchar green
property uchar blue
end_header
-0.019015 -0.061272 0.010879 239 68 68
0.224847 -0.097851 0.087494 239 68 68
0.209814 -0.094338 0.023416 239 68 68
0.117639 -0.105257 0.258434 239 68 68
0.030673 0.036897 0.096156 239 68 68
-0.030932 -0.073612 0.153827 239 68 68
0.016432 -0.130423 0.112763 239 68 68
0.041868 -0.042637 0.068356 239 68 68
-0.139504 0.049148 0.018452 239 68 68
0.029378 -0.003841 -0.027105 239 68 68
0.038114 0.085045 -0.067095 239 68 68
0.275754 -0.124237 -0.035847 239 68 68
0.088700 -0.151823 0.133468 239 68 68
0.080139 -0.035667 0.129007 239 68 68
0.173740 0.046971 0.201635 239 68 68
-0.123480 -0.002978 0.024736 239 68 68
0.065244 -0.020020 0.054785 239 68 68
0.194604 0.030855 0.110353 239 68 68
0.390848 0.086047 0.017660 239 68 68
0.314023 -0.077637 -0.205632 239 68 68
0.019880 -0.123960 0.003356 239 68 68
0.277389 -0.108887 0.244828 239 68 68
0.040079 -0.015493 0.103973 239 68 68
0.145219 0.081929 -0.009577 239 68 68
0.114997 -0.085784 0.110631 239 68 68
0.008141 -0.384081 0.045613 239 68 68
-0.029115 -0.059252 0.153240 239 68 68
0.090421 0.206366 0.107097 239 68 68
0.077579 -0.028031 0.131234 239 68 68
0.195298 -0.056300 0.064753 239 68 68
0.091417 -0.052197 -0.011696 239 68 68
0.242426 0.257406 0.227922 239 68 68
0.092584 0.106750 -0.154383 239 68 68
-0.050791 -0.090645 0.031361 239 68 68
-0.005923 -0.131750 -0.000719 239 68 68
0.074216 -0.244795 0.046456 239 68 68
0.008659 -0.126759 0.179007 239 68 68
-0.029165 -0.134664 0.221862 239 68 68
0.089958 0.006544 -0.018139 239 68 68
0.132141 -0.291608 0.295949 239 68 68
0.013532 -0.110543 0.153003 239 68 68
0.251339 -0.113971 -0.294391 239 68 68
-0.083546 -0.013512 0.015897 239 68 68
0.053297 -0.209388 0.469873 239 68 68
0.120390 -0.243977 0.278974 239 68 68
0.044912 -0.091612 0.095396 239 68 68
0.023424 0.065798 0.054042 239 68 68
0.221044 0.073666 0.141906 239 68 68
0.329855 0.080278 0.147907 239 68 68
0.148830 -0.004446 0.371988 239 68 68
0.226393 -0.322473 0.188355 239 68 68
0.148676 -0.350171 0.019075 239 68 68
-0.043838 -0.034740 0.094485 239 68 68
0.386829 -0.052137 -0.137189 239 68 68
0.121439 -0.082012 0.200357 239 68 68
0.101835 0.020443 0.014568 239 68 68
0.044656 -0.128207 -0.012242 239 68 68
-0.041093 -0.391449 0.248172 239 68 68
0.171150 -0.372142 0.022838 239 68 68
0.056781 -0.059982 0.032069 239 68 68
0.021962 -0.214620 0.058486 239 68 68
0.011920 -0.106950 0.062433 239 68 68
-0.037686 -0.042055 0.172978 239 68 68
0.180575 -0.110839 0.043775 239 68 68
0.133954 -0.130114 0.292179 239 68 68
0.021939 -0.104028 -0.056403 239 68 68
0.032962 0.030924 0.135977 239 68 68
0.036941 -0.096441 0.113225 239 68 68
-0.029661 0.002072 -0.056999 239 68 68
0.224255 0.031269 0.176038 239 68 68
0.217981 -0.293306 0.101919 239 68 68
0.170527 -0.065371 0.349184 239 68 68
0.149127 0.021659 0.144963 239 68 68
0.127439 -0.058580 0.264120 239 68 68
0.105175 -0.027979 0.285593 239 68 68
0.298120 -0.134671 -0.025393 239 68 68
0.017194 -0.134269 0.177504 239 68 68
0.073189 0.000496 -0.015713 239 68 68
0.107154 -0.150868 0.241894 239 68 68
0.055315 -0.040659 -0.013856 239 68 68
-0.048695 -0.158400 -0.013075 239 68 68
-0.060711 -0.011510 0.208945 239 68 68
0.304444 -0.183445 0.177395 239 68 68
0.111935 -0.230669 0.063576 239 68 68
0.050995 -0.068087 0.058884 239 68 68
-0.043880 -0.283429 0.019991 239 68 68
0.069496 -0.081543 -0.164195 239 68 68
0.278954 -0.096831 0.103426 239 68 68
0.003572 -0.380882 -0.003861 239 68 68
0.028703 -0.056925 0.063791 239 68 68
0.218114 -0.139939 0.078451 239 68 68
-0.115142 0.011096 0.087415 239 68 68
0.192267 -0.129921 0.045447 239 68 68
0.354026 -0.024474 0.130151 239 68 68
0.089640 -0.025722 0.178172 239 68 68
0.132356 -0.166265 0.011289 239 68 68
0.162375 -0.005727 0.068177 239 68 68
0.007056 -0.181724 0.071681 239 68 68
0.085503 -0.255263 0.073826 239 68 68
0.099352 -0.097917 0.022026 239 68 68
0.065035 -0.080956 -0.010824 239 68 68
0.196863 -0.044242 0.332470 239 68 68
0.077156 -0.306188 0.354645 239 68 68
0.126967 -0.077695 0.085430 239 68 68
0.044190 -0.460746 -0.036842 239 68 68
0.153955 -0.112537 0.023146 239 68 68
0.093067 0.070942 0.139027 239 68 68
0.225598 -0.009175 -0.032713 239 68 68
-0.016754 0.243597 -0.083834 239 68 68
0.090721 -0.019611 0.390875 239 68 68
0.119610 -0.488932 0.072214 239 68 68
0.053874 -0.102457 -0.061983 239 68 68
0.285408 -0.107566 0.204139 239 68 68
0.036406 -0.010381 0.163895 239 68 68
0.071317 -0.016912 0.163662 239 68 68
0.053372 -0.064024 0.175219 239 68 68
0.018658 -0.155775 0.094478 239 68 68
0.145626 -0.230081 0.234470 239 68 68
0.154305 -0.012775 -0.094009 239 68 68
0.051415 -0.488854 0.083767 239 68 68
-0.067259 -0.274875 0.053418 239 68 68
0.204916 -0.024312 -0.042701 239 68 68
0.412060 -0.159593 0.058583 239 68 68
0.079090 -0.073047 0.157207 239 68 68
0.275764 -0.127199 0.123242 239 68 68
0.204809 -0.083165 -0.188006 239 68 68
-0.019694 -0.118466 0.041579 239 68 68
-0.062335 0.017295 -0.145446 239 68 68
0.158806 -0.017945 -0.007962 239 68 68
0.119746 0.113750 -0.004910 239 68 68
0.101619 -0.186845 -0.060445 239 68 68
0.124079 0.057478 0.144208 239 68 68
0.027304 -0.431083 0.136225 239 68 68
0.154203 -0.084083 -0.028441 239 68 68
0.314275 -0.330672 0.094088 239 68 68
0.067041 0.016615 0.001242 239 68 68
0.033721 -0.080343 0.144408 239 68 68
0.094470 -0.184999 0.057487 239 68 68
0.015853 0.004010 0.259910 239 68 68
0.012918 -0.126824 -0.032106 239 68 68
0.157237 0.080419 -0.001235 239 68 68
0.171619 -0.071301 0.249340 239 68 68
0.372834 -0.043084 0.000274 239 68 68
0.066662 -0.298216 0.097047 239 68 68
0.225165 -0.159024 0.132694 239 68 68
0.083536 0.017970 0.218541 239 68 68
0.008233 -0.019919 0.220087 239 68 68
0.029748 -0.019512 0.275184 239 68 68
0.093639 0.152122 0.319394 239 68 68
0.186471 -0.073676 0.032999 239 68 68
0.097783 -0.163435 0.018431 239 68 68
0.023325 -0.147392 0.137426 239 68 68
0.099208 -0.120628 0.248420 239 68 68
-0.106102 -0.020885 0.083379 239 68 68
-0.014879 -0.073703 -0.079918 239 68 68
0.451653 -0.067201 0.041468 239 68 68
0.001422 -0.236995 -0.047477 239 68 68
0.039437 -0.005945 0.237073 239 68 68
-0.102265 -0.035141 0.106450 239 68 68
0.055569 -0.031619 0.125319 239 68 68
0.128409 -0.198955 0.142877 239 68 68
0.062272 -0.042210 0.051472 239 68 68
0.114296 -0.131252 0.068825 239 68 68
0.044731 -0.212387 0.053266 239 68 68
0.046470 -0.076027 0.214436 239 68 68
0.196859 -0.021400 0.453811 239 68 68
0.077278 -0.024954 0.245624 239 68 68
0.094532 -0.117082 0.124137 239 68 68
0.325138 -0.141467 -0.008886 239 68 68
-0.034302 -0.160368 0.171745 239 68 68
0.223382 -0.111703 0.018691 239 68 68
0.157997 -0.207188 -0.068516 239 68 68
0.050840 0.155169 -0.045538 239 68 68
0.129493 -0.188690 0.113283 239 68 68
-0.027985 -0.143540 0.239113 239 68 68
0.058822 -0.045831 0.050708 239 68 68
-0.027602 -0.228747 0.098122 239 68 68
0.076505 -0.131591 0.114727 239 68 68
-0.146148 -0.104901 0.046421 239 68 68
-0.041456 0.148296 0.052241 239 68 68
0.146583 0.028090 0.022854 239 68 68
0.241120 -0.078450 0.154985 239 68 68
0.267661 -0.054426 0.313625 239 68 68
0.098624 -0.157234 0.118851 239 68 68
-0.134587 0.053528 -0.021686 239 68 68
0.016212 -0.183691 0.211609 239 68 68
0.031780 -0.082580 0.073232 239 68 68
0.080593 0.119218 -0.050482 239 68 68
0.152848 -0.047792 0.042135 239 68 68
0.053422 -0.357521 0.055896 239 68 68
0.087646 -0.042313 -0.102230 239 68 68
0.009754 -0.028335 0.318506 239 68 68
0.204211 -0.115015 0.298298 239 68 68
0.012471 -0.014046 0.175761 239 68 68
0.019458 -0.116842 0.028428 239 68 68
-0.000069 -0.067072 0.133532 239 68 68
0.044445 -0.038606 0.110675 239 68 68
0.065543 -0.288219 0.224430 239 68 68
0.053072 0.077283 0.090621 239 68 68
0.221792 -0.121312 0.179712 239 68 68
0.613828 0.035378 0.198240 239 68 68
0.120276 0.254000 -0.121364 239 68 68
0.282948 -0.047126 0.061459 239 68 68
0.033183 -0.581396 0.099243 239 68 68
0.028499 -0.024050 0.088669 239 68 68
0.108647 -0.049072 -0.128010 239 68 68
0.038659 -0.172868 0.006051 239 68 68
0.149334 -0.088322 0.070152 239 68 68
0.045848 0.095922 -0.107652 239 68 68
-0.085512 -0.241363 0.000196 239 68 68
0.520626 0.207091 0.170112 239 68 68
0.029637 0.083869 0.203095 239 68 68
0.109600 -0.005556 0.244423 239 68 68
0.041994 -0.061853 0.190062 239 68 68
0.014556 -0.114163 0.208576 239 68 68
0.064619 0.039505 0.199672 239 68 68
-0.011223 -0.007832 0.273683 239 68 68
0.097165 -0.113728 0.074623 239 68 68
0.252025 -0.091763 0.128724 239 68 68
0.081617 -0.051137 0.023794 239 68 68
0.045901 -0.169080 0.115959 239 68 68
-0.045567 -0.038471 0.280998 239 68 68
-0.025508 0.050347 0.089359 239 68 68
-0.094000 0.096363 0.114941 239 68 68
-0.175032 -0.255285 0.051264 239 68 68
0.033717 0.066709 0.171019 239 68 68
0.254290 -0.025693 -0.116808 239 68 68
0.087622 -0.031921 0.242274 239 68 68
-0.004807 0.137380 0.013146 239 68 68
0.138019 0.013033 0.032652 239 68 68
0.193291 -0.089484 -0.066284 239 68 68
-0.349108 -0.046826 0.281266 239 68 68
-0.027599 0.042483 0.005079 239 68 68
0.134363 0.070815 -0.284099 239 68 68
0.020584 -0.072985 0.135218 239 68 68
0.048774 -0.159412 -0.300374 239 68 68
0.070462 0.007447 0.110128 239 68 68
0.271609 0.015548 0.212083 239 68 68
0.090067 -0.008247 0.159984 239 68 68
-0.013099 0.000285 -0.028470 239 68 68
0.187209 0.042882 0.082110 239 68 68
0.157666 -0.056525 0.151306 239 68 68
0.237908 -0.043919 0.201425 239 68 68
0.046750 -0.101324 0.125205 239 68 68
0.015365 0.051602 0.036530 239 68 68
0.173415 -0.085854 0.045499 239 68 68
-0.116574 -0.161998 -0.080329 239 68 68
-0.003087 0.051712 -0.090784 239 68 68
0.061896 -0.030586 -0.001053 239 68 68
-0.127450 -0.128668 0.016288 239 68 68
-0.004482 -0.179516 0.052389 239 68 68
0.098110 -0.026698 0.159815 239 68 68
0.027169 -0.118978 0.072748 239 68 68
0.191722 0.066330 -0.188765 239 68 68
0.022592 -0.094231 0.067645 239 68 68
0.016020 -0.221429 -0.030254 239 68 68
-0.014065 -0.064806 0.150123 239 68 68
0.068960 0.138200 0.182118 239 68 68
0.094086 0.046250 0.114168 239 68 68
0.116818 -0.244138 -0.183008 239 68 68
0.108633 -0.186501 -0.044715 239 68 68
-0.000382 -0.129960 -0.052542 239 68 68
-0.052035 -0.154376 0.290895 239 68 68
0.028573 0.059906 0.372476 239 68 68
0.117291 -0.171626 0.012767 239 68 68
0.082371 -0.170920 0.085022 239 68 68
0.037768 -0.352597 0.195441 239 68 68
-0.032154 -0.082629 0.310992 239 68 68
0.001790 -0.100563 0.221272 239 68 68
0.252204 0.192865 0.157182 239 68 68
0.103281 -0.011591 0.117562 239 68 68
0.162790 -0.129694 0.101098 239 68 68
0.022805 0.018999 0.198656 239 68 68
0.087218 -0.015538 0.203658 239 68 68
0.190928 -0.125776 0.160911 239 68 68
0.003020 0.244427 0.199252 239 68 68
0.027851 0.005966 0.193429 239 68 68
-0.101711 0.084724 0.031904 239 68 68
-0.055451 0.048934 0.000047 239 68 68
0.086306 -0.235543 0.339112 239 68 68
0.256593 -0.125530 0.215687 239 68 68
-0.009083 -0.298879 -0.043001 239 68 68
0.056187 -0.276350 -0.190094 239 68 68
-0.027968 -0.188778 -0.085576 239 68 68
0.084070 -0.067836 0.054338 239 68 68
0.128423 -0.130733 0.117681 239 68 68
0.142492 -0.100305 0.256365 239 68 68
-0.074964 -0.000678 -0.059397 239 68 68
0.130300 -0.246878 -0.126615 239 68 68
-0.113029 -0.137290 0.196839 239 68 68
-0.187270 -0.076831 0.022678 239 68 68
0.034243 -0.017269 0.227554 239 68 68
0.223951 -0.135363 0.210731 239 68 68
0.332779 0.063273 -0.372301 239 68 68
0.228087 -0.122032 0.140549 239 68 68
0.037481 -0.136934 0.243518 239 68 68
0.112527 -0.256458 0.052497 239 68 68
0.130988 -0.165683 0.106655 239 68 68
0.182299 -0.033818 -0.028996 239 68 68
0.029043 0.227129 -0.016606 239 68 68
0.134191 -0.076838 0.051443 239 68 68
0.046521 -0.099586 0.031214 239 68 68
0.103567 -0.109194 0.036398 239 68 68
0.100587 -0.149339 0.128881 239 68 68
-0.047363 -0.141053 0.060149 239 68 68
0.038177 -0.122792 0.009899 239 68 68
0.179341 0.049090 -0.043606 239 68 68
-0.205341 0.304673 0.052601 239 68 68
0.126809 -0.289835 0.047207 239 68 68
0.063542 -0.024167 -0.128205 239 68 68
0.159588 0.096527 0.114863 239 68 68
0.080926 -0.009853 0.064506 239 68 68
0.081831 -0.271326 0.013640 239 68 68
-0.054721 0.076329 0.218712 239 68 68
0.171467 0.290715 0.009180 239 68 68
-0.035628 -0.057259 0.040650 239 68 68
0.186515 0.073788 0.384196 239 68 68
0.162614 -0.298949 0.138475 239 68 68
-0.034156 -0.176778 0.216426 239 68 68
0.074655 0.203370 -0.009055 239 68 68
0.082179 -0.108239 0.076519 239 68 68
-0.043634 -0.114210 -0.161072 239 68 68
0.035670 -0.087087 0.038302 239 68 68
0.020977 -0.080115 0.060806 239 68 68
0.135655 -0.249479 0.036931 239 68 68
-0.094184 -0.173755 0.183382 239 68 68
0.161194 -0.307105 0.457123 239 68 68
-0.035042 -0.198545 -0.013354 239 68 68
0.057470 -0.041370 0.121560 239 68 68
-0.024619 -0.089990 0.177464 239 68 68
-0.087365 -0.329596 0.298382 239 68 68
0.293016 -0.119995 0.052892 239 68 68
0.102279 -0.061898 -0.032674 239 68 68
0.077077 -0.103208 0.074432 239 68 68
0.071242 0.043986 -0.044480 239 68 68
0.106847 -0.188307 -0.162230 239 68 68
0.132787 -0.023739 0.188344 239 68 68
0.034008 0.038065 0.035813 239 68 68
0.256270 -0.112213 0.128353 239 68 68
0.062150 -0.098849 0.083031 239 68 68
0.096197 -0.111719 -0.109075 239 68 68
0.057344 -0.015396 0.060114 239 68 68
0.080100 0.003988 0.029584 239 68 68
0.063782 -0.277197 0.185639 239 68 68
0.122556 -0.064873 0.282279 239 68 68
0.175095 -0.218590 0.162164 239 68 68
0.262166 -0.064710 0.078496 239 68 68
-0.002043 -0.027137 0.222360 239 68 68
0.134774 -0.152363 0.008407 239 68 68
0.122766 -0.068226 0.085886 239 68 68
0.142456 -0.041670 0.050540 239 68 68
0.244170 -0.054826 0.105805 239 68 68
-0.015730 -0.229215 0.107338 239 68 68
0.359918 -0.410549 0.269433 239 68 68
0.058719 -0.065649 0.106843 239 68 68
0.039382 0.177126 -0.052365 239 68 68
0.027522 -0.054728 0.038964 239 68 68
0.278205 0.017800 -0.057088 239 68 68
-0.020943 -0.149924 -0.111841 239 68 68
0.257619 -0.194550 0.016335 239 68 68
0.087658 0.333780 -0.021745 239 68 68
-0.329167 -0.198447 0.115921 239 68 68
0.082024 -0.207946 0.076166 239 68 68
-0.056813 0.006981 0.438898 239 68 68
0.079996 -0.022387 0.080458 239 68 68
-0.143471 0.038128 0.136671 239 68 68
0.108327 -0.046898 -0.000932 239 68 68
-0.129194 0.002031 0.113397 239 68 68
0.045681 -0.234239 0.169356 239 68 68
0.134768 -0.054390 0.056044 239 68 68
0.520343 -0.070390 0.034361 239 68 68
0.023908 -0.290958 0.269587 239 68 68
0.361165 0.003157 -0.008161 239 68 68
-0.068496 -0.119907 -0.105054 239 68 68
-0.195562 0.047120 0.113416 239 68 68
0.349130 0.169307 0.144224 239 68 68
0.088338 -0.015452 0.051067 239 68 68
0.085577 -0.332464 0.041075 239 68 68
0.420996 0.172635 0.305417 239 68 68
0.232447 -0.305981 0.159972 239 68 68
0.204645 -0.115199 0.041352 239 68 68
0.347436 0.010679 -0.000573 239 68 68
-0.066505 -0.024444 0.048920 239 68 68
0.090964 -0.170364 0.115378 239 68 68
0.127729 -0.236793 0.044268 239 68 68
0.018533 -0.101610 0.187996 239 68 68
0.180303 -0.047669 0.264577 239 68 68
0.074082 -0.038194 0.076743 239 68 68
0.076889 0.096539 0.001615 239 68 68
-0.028512 0.047906 0.085650 239 68 68
0.155387 0.259900 0.000774 239 68 68
0.181315 -0.100308 0.237174 239 68 68
0.117455 -0.009248 0.005994 239 68 68
0.258035 0.050851 0.057815 239 68 68
0.105085 -0.189613 0.106095 239 68 68
0.257397 -0.156105 0.177415 239 68 68
0.115819 -0.014875 0.060175 239 68 68
0.196582 -0.003266 0.223507 239 68 68
0.044283 0.004170 0.367585 239 68 68
0.176049 -0.070910 0.017924 239 68 68
0.019763 -0.175358 0.089103 239 68 68
0.117359 0.304751 0.115996 239 68 68
-0.006715 0.072377 0.284176 239 68 68
-0.183587 0.006534 0.098428 239 68 68
0.040705 -0.006527 0.214085 239 68 68
0.170942 -0.108738 -0.170412 239 68 68
0.140220 -0.211226 0.015491 239 68 68
0.085883 -0.051265 0.214134 239 68 68
-0.210657 -0.029710 0.075715 239 68 68
-0.020589 -0.150633 0.000439 239 68 68
0.000373 0.334525 -0.168736 239 68 68
-0.100121 0.096647 0.171010 239 68 68
0.026674 0.197506 0.075663 239 68 68
0.072562 -0.019365 -0.011067 239 68 68
0.079890 -0.116754 0.019373 239 68 68
0.069954 -0.125484 0.097901 239 68 68
0.005965 0.145263 0.112516 239 68 68
0.089238 -0.010919 0.301247 239 68 68
0.140927 0.029905 0.038261 239 68 68
0.270995 -0.146724 0.101938 239 68 68
0.135815 -0.048741 0.438685 239 68 68
0.001994 -0.100276 0.059179 239 68 68
0.048303 -0.175786 -0.123094 239 68 68
-0.017465 -0.068592 0.087335 239 68 68
0.318474 -0.033408 0.093097 239 68 68
0.263425 -0.217282 -0.259813 239 68 68
0.041573 -0.200347 0.112820 239 68 68
0.084144 -0.150436 0.024793 239 68 68
0.100572 0.267441 0.480054 239 68 68
0.001539 -0.107893 -0.031451 239 68 68
0.011307 0.023064 0.108333 239 68 68
0.060059 -0.019986 0.135395 239 68 68
0.033311 -0.120766 0.193613 239 68 68
-0.070318 0.339702 0.112938 239 68 68
0.034132 0.068885 0.068944 239 68 68
-0.000925 -0.047541 0.243656 239 68 68
0.004076 -0.309869 0.087377 239 68 68
-0.066712 -0.035024 0.088390 239 68 68
0.268573 -0.132546 0.114234 239 68 68
0.110399 -0.108632 0.040997 239 68 68
0.143767 0.045786 0.353065 239 68 68
-0.045834 -0.162613 0.127907 239 68 68
0.179347 -0.068148 -0.029417 239 68 68
0.251787 -0.276569 0.472058 239 68 68
-0.130824 -0.080223 0.062569 239 68 68
0.004480 -0.009885 0.225318 239 68 68
0.028879 -0.008551 -0.090107 239 68 68
-0.033131 0.057270 -0.038342 239 68 68
0.111768 -0.177951 0.035576 239 68 68
0.159211 -0.059659 0.073120 239 68 68
-0.013682 -0.143023 0.229977 239 68 68
0.143068 -0.115619 0.002573 239 68 68
-0.105770 -0.168462 0.126406 239 68 68
0.202063 0.050592 0.243237 239 68 68
-0.015350 -0.087846 0.028278 239 68 68
0.051439 -0.007631 0.263764 239 68 68
0.006362 -0.014469 0.014938 239 68 68
-0.309480 -0.243556 0.113597 239 68 68
-0.037078 0.133002 -0.106655 239 68 68
-0.033605 -0.155834 0.244870 239 68 68
0.018722 -0.261965 -0.185949 239 68 68
0.085700 -0.266499 -0.004678 239 68 68
-0.107486 -0.032945 0.014156 239 68 68
-0.162137 -0.015359 0.112668 239 68 68
-0.036114 -0.050853 0.176802 239 68 68
0.065695 -0.160930 -0.008398 239 68 68
0.238662 -0.108788 0.077739 239 68 68
-0.096263 -0.227486 0.046015 239 68 68
0.300266 -0.060826 0.070550 239 68 68
0.091906 -0.032089 0.172030 239 68 68
0.110335 -0.328035 0.124406 239 68 68
0.266590 -0.098600 0.091027 239 68 68
0.004701 -0.037547 0.058520 239 68 68
-0.024327 -0.090722 -0.241064 239 68 68
-0.120904 0.232130 0.086258 239 68 68
0.060435 -0.144020 0.053653 239 68 68
0.146051 -0.213970 0.047429 239 68 68
0.196971 -0.175491 0.018875 239 68 68
-0.003669 -0.126125 0.077680 239 68 68
0.074390 -0.110124 0.171310 239 68 68
0.017939 -0.058554 0.010621 239 68 68
0.095474 -0.104173 0.014006 239 68 68
0.082713 -0.137471 0.099262 239 68 68
0.278016 -0.005366 0.107207 239 68 68
0.131447 -0.076581 0.222397 239 68 68
0.198059 0.035351 0.039746 239 68 68
0.061915 -0.079018 0.398257 239 68 68
-0.067544 -0.144687 0.345011 239 68 68
0.148768 -0.084683 0.016817 239 68 68
0.010039 -0.375282 0.265980 239 68 68
-0.006749 -0.041674 0.009979 239 68 68
0.130442 0.002948 0.611507 239 68 68
0.044061 -0.054086 0.085250 239 68 68
0.242896 -0.072766 0.124901 239 68 68
-0.015378 -0.072842 0.077931 239 68 68
0.042525 0.006971 0.198173 239 68 68
-0.130059 0.023985 -0.042867 239 68 68
0.080726 0.099609 0.073368 239 68 68
-0.272310 -0.069518 0.017141 239 68 68
0.033737 0.007170 -0.022229 239 68 68
0.158375 -0.121323 0.280372 239 68 68
-0.092836 -0.088749 0.112094 239 68 68
0.131363 0.119973 0.082015 239 68 68
0.114012 -0.227778 0.067910 239 68 68
0.167580 -0.177423 0.202214 239 68 68
0.087292 0.096759 0.132747 239 68 68
0.376056 -0.082183 0.500406 239 68 68
0.044078 -0.034213 0.004674 239 68 68
0.084483 -0.073983 0.130237 239 68 68
0.213703 -0.211140 0.190809 239 68 68
0.123079 -0.054526 0.128763 239 68 68
0.141480 -0.133896 -0.042063 239 68 68
0.135519 -0.085195 0.101180 239 68 68
0.090505 -0.168461 0.051518 239 68 68
0.024089 0.014839 0.008878 239 68 68
0.197198 -0.287735 0.229154 239 68 68
0.135047 0.042593 -0.058137 239 68 68
0.020720 -0.308797 0.217510 239 68 68
0.211797 -0.035055 0.219939 239 68 68
0.238066 -0.035063 -0.015632 239 68 68
-0.052591 0.138090 0.094266 239 68 68
0.190330 -0.448224 0.081136 239 68 68
0.042174 -0.201088 0.055477 239 68 68
0.252207 -0.004518 0.081901 239 68 68
-0.024677 -0.079497 -0.142123 239 68 68
0.161807 -0.045766 0.216908 239 68 68
0.027910 -0.160054 0.303583 239 68 68
-0.073656 -0.332046 -0.175394 239 68 68
-0.130351 -0.155127 0.078622 239 68 68
0.068778 -0.085811 0.224751 239 68 68
0.243822 0.068673 0.106505 239 68 68
0.217883 0.070823 -0.024805 239 68 68
-0.047379 -0.097948 0.246791 239 68 68
0.320007 0.047884 0.205271 239 68 68
0.320349 -0.124661 0.128415 239 68 68
-0.002165 -0.135532 -0.007718 239 68 68
0.098133 -0.015569 -0.038527 239 68 68
0.077699 0.117652 0.251348 239 68 68
0.050762 -0.008403 0.295914 239 68 68
0.119061 -0.057050 0.094363 239 68 68
0.036346 -0.001185 0.032087 239 68 68
0.103053 -0.106368 -0.003562 239 68 68
0.059715 -0.103964 -0.197567 239 68 68
0.040460 -0.076553 -0.007927 239 68 68
0.032896 -0.074285 0.030759 239 68 68
0.265593 -0.080109 0.050992 239 68 68
0.175260 0.014734 0.049881 239 68 68
0.202888 -0.156084 0.138672 239 68 68
0.341991 -0.076285 0.179517 239 68 68
-0.134207 -0.192120 -0.044136 239 68 68
-0.038090 -0.110398 0.127734 239 68 68
0.016592 -0.004439 -0.017865 239 68 68
0.122019 -0.543787 0.090570 239 68 68
0.215776 0.001481 0.138126 239 68 68
0.191827 -0.013047 0.205250 239 68 68
-0.033903 -0.177237 0.200967 239 68 68
-0.041568 -0.045046 0.009686 239 68 68
0.380801 0.023062 0.021033 239 68 68
0.105247 -0.000591 0.009473 239 68 68
0.048289 -0.057217 0.485841 239 68 68
0.304461 -0.291004 -0.020086 239 68 68
0.194594 -0.030269 0.054433 239 68 68
-0.094194 -0.240203 -0.039503 239 68 68
0.253698 -0.502751 0.322497 239 68 68
-0.174823 -0.051635 0.058801 239 68 68
0.176767 -0.002398 0.178543 239 68 68
0.257235 -0.216242 0.155575 239 68 68
-0.038561 -0.060399 0.206400 239 68 68
0.209973 -0.035458 -0.049533 239 68 68
-0.069334 -0.107960 -0.084176 239 68 68
-0.061700 0.019566 -0.061379 239 68 68
0.093988 -0.060459 0.142987 239 68 68
0.045305 -0.225674 0.092368 239 68 68
0.075775 -0.017044 0.118018 239 68 68
-0.180252 -0.255229 0.144158 239 68 68
-0.050091 -0.121271 0.274284 239 68 68
-0.032588 0.052450 -0.149425 239 68 68
0.219543 -0.159915 0.222039 239 68 68
0.256508 0.071583 0.019183 239 68 68
0.089178 -0.056189 0.035011 239 68 68
-0.008255 -0.017941 0.088363 239 68 68
0.000040 0.009406 0.069876 239 68 68
0.048393 -0.079353 0.319766 239 68 68
0.048720 -0.285283 -0.054854 239 68 68
0.009601 -0.092024 0.239554 239 68 68
0.207585 0.110382 -0.087309 239 68 68
0.199739 -0.206694 -0.019529 239 68 68
0.156886 -0.188262 0.033370 239 68 68
-0.017497 0.100930 0.345094 239 68 68
-0.111544 -0.207797 0.008247 239 68 68
0.039646 -0.142358 -0.001144 239 68 68
0.127362 0.189210 -0.113123 239 68 68
-0.044574 -0.067704 0.336821 239 68 68
0.022823 0.078572 -0.063581 239 68 68
0.109464 0.211444 -0.008188 239 68 68
0.076448 -0.036041 0.193893 239 68 68
0.136188 -0.173222 0.097331 239 68 68
0.076160 0.023774 -0.007124 239 68 68
0.027161 -0.170535 0.205756 239 68 68
0.150958 -0.047632 0.020964 239 68 68
0.478658 -0.087945 0.127255 239 68 68
0.062503 -0.198434 0.211254 239 68 68
0.038664 -0.437466 0.095650 239 68 68
0.267501 -0.238610 0.042584 239 68 68
0.037293 -0.147770 0.035996 239 68 68
-0.024483 -0.019958 -0.080060 239 68 68
0.088572 0.162262 -0.012744 239 68 68
0.125527 -0.149119 0.278450 239 68 68
-0.125935 -0.078503 0.063591 239 68 68
0.431722 -0.000536 0.135248 239 68 68
0.053621 0.166326 0.041592 239 68 68
0.075671 -0.034170 0.064300 239 68 68
0.011517 -0.083060 0.101580 239 68 68
-0.196951 -0.327449 0.000848 239 68 68
-0.051237 -0.062484 0.204162 239 68 68
0.043026 0.022577 0.219159 239 68 68
0.043668 -0.118023 0.142871 239 68 68
0.073413 -0.287982 -0.000535 239 68 68
-0.089191 -0.203121 0.014971 239 68 68
-0.052960 -0.296388 -0.086635 239 68 68
0.075271 -0.449589 0.194897 239 68 68
-0.013870 -0.011644 0.164744 239 68 68
0.163810 0.011364 0.004881 239 68 68
0.039773 -0.123520 0.011829 239 68 68
0.171809 -0.155078 -0.114180 239 68 68
0.083217 0.020526 0.372442 239 68 68
0.098869 -0.075784 0.074502 239 68 68
0.061732 -0.088851 0.026881 239 68 68
-0.049380 -0.531754 -0.161113 239 68 68
0.061451 -0.065622 0.039630 239 68 68
0.117076 0.024634 0.059670 239 68 68
-0.030326 -0.056796 -0.044949 239 68 68
-0.026415 0.090063 -0.212466 239 68 68
0.173451 -0.160390 -0.100190 239 68 68
0.254356 -0.159034 0.249099 239 68 68
0.052841 -0.194036 0.285558 239 68 68
0.111768 -0.145152 0.018651 239 68 68
0.070783 -0.107296 -0.011701 239 68 68
0.047348 -0.201098 0.344909 239 68 68
0.115336 0.000064 0.294755 239 68 68
0.034195 -0.126276 0.067129 239 68 68
-0.005260 -0.065620 0.055852 239 68 68
0.114244 -0.022861 0.000659 239 68 68
0.056048 -0.190816 0.022618 239 68 68
0.195392 -0.191031 0.147738 239 68 68
0.037458 -0.128561 0.261138 239 68 68
-0.060557 0.079711 -0.006701 239 68 68
0.077851 -0.311626 0.005730 239 68 68
0.059476 -0.207851 -0.143456 239 68 68
0.420275 0.001542 0.004043 239 68 68
0.155691 -0.173183 0.116070 239 68 68
0.064976 -0.021848 0.142672 239 68 68
0.105919 -0.050067 0.051087 239 68 68
-0.010749 0.081338 0.002736 239 68 68
-0.075141 -0.146193 0.040247 239 68 68
-0.017451 -0.335688 0.189254 239 68 68
0.209495 -0.061973 -0.042628 239 68 68
-0.026538 0.072256 -0.070721 239 68 68
-0.027103 -0.401278 0.280139 239 68 68
0.392553 -0.149821 -0.191294 239 68 68
0.143526 0.058808 0.268587 239 68 68
0.147405 0.007480 0.127305 239 68 68
0.077149 -0.116254 0.205649 239 68 68
0.477798 0.033392 0.026988 239 68 68
0.142676 -0.236464 0.018677 239 68 68
0.134283 -0.025796 -0.086681 239 68 68
0.377528 -0.172041 0.035459 239 68 68
0.047334 -0.184384 0.300222 239 68 68
0.249399 0.013900 0.030898 239 68 68
-0.213996 -0.048452 -0.112893 239 68 68
0.030755 -0.094720 0.282314 239 68 68
-0.045410 -0.130100 -0.130162 239 68 68
0.120280 -0.007348 0.265150 239 68 68
0.010012 -0.420815 0.129578 239 68 68
-0.004007 -0.198942 0.061632 239 68 68
-0.018853 -0.005754 0.148508 239 68 68
-0.043241 -0.023223 0.050040 239 68 68
0.027028 -0.349491 -0.004558 239 68 68
-0.031018 -0.074097 0.447365 239 68 68
0.264251 -0.108215 0.047399 239 68 68
-0.139838 -0.122110 -0.012420 239 68 68
0.111241 -0.042881 -0.039272 239 68 68
0.096042 -0.066212 0.174144 239 68 68
0.269327 -0.122740 0.074607 239 68 68
0.242060 -0.137975 0.229443 239 68 68
0.018644 0.044285 0.189555 239 68 68
0.077356 -0.063745 0.222510 239 68 68
-0.056300 -0.309953 0.015953 239 68 68
0.041271 -0.452488 -0.024002 239 68 68
0.196119 0.003782 0.206427 239 68 68
0.029139 0.002299 -0.013591 239 68 68
0.032397 -0.027013 0.088383 239 68 68
0.216219 -0.169523 0.024330 239 68 68
0.131540 -0.274993 -0.020701 239 68 68
0.026010 -0.042493 0.022585 239 68 68
0.087379 0.001466 0.056928 239 68 68
0.245807 -0.044568 0.009438 239 68 68
0.089139 -0.031288 0.109755 239 68 68
0.191350 -0.006841 0.142222 239 68 68
0.018120 0.040567 0.207502 239 68 68
0.437586 -0.099621 0.163657 239 68 68
-0.047412 -0.095378 0.209703 239 68 68
0.098783 -0.048939 0.021432 239 68 68
-0.060456 0.011766 0.032735 239 68 68
0.065638 -0.036239 0.028349 239 68 68
0.421919 -0.018854 0.020695 239 68 68
0.135331 -0.345954 0.266147 239 68 68
0.030364 -0.082017 -0.060497 239 68 68
-0.035306 0.046830 0.186981 239 68 68
0.074354 -0.119667 0.137417 239 68 68
0.038719 -0.157330 -0.002696 239 68 68
0.085069 -0.076571 0.040811 239 68 68
0.147822 -0.003017 -0.016714 239 68 68
0.085776 -0.355522 -0.109975 239 68 68
0.055460 -0.037418 0.284478 239 68 68
0.018762 -0.026407 0.050208 239 68 68
0.142357 -0.061422 0.297296 239 68 68
0.013541 -0.080289 -0.138974 239 68 68
0.333783 -0.228095 0.022462 239 68 68
0.015449 -0.128631 0.096431 239 68 68
0.103314 -0.387499 0.297858 239 68 68
0.120017 -0.068122 0.093392 239 68 68
0.068186 -0.446684 0.286113 239 68 68
0.232030 -0.357744 0.050802 239 68 68
0.242219 0.018829 -0.017015 239 68 68
0.211891 0.247124 0.059377 239 68 68
-0.121986 -0.071714 0.045921 239 68 68
0.030516 -0.335836 0.274845 239 68 68
-0.008792 -0.074528 0.037368 239 68 68
-0.013465 -0.028771 0.044345 239 68 68
0.009078 0.023221 0.122605 239 68 68
-0.023439 -0.004389 0.120133 239 68 68
-0.150216 0.169396 -0.035139 239 68 68
0.005882 -0.124387 -0.074287 239 68 68
0.061683 -0.100384 0.104704 239 68 68
0.001060 0.020347 -0.038825 239 68 68
0.141023 -0.041342 0.050109 239 68 68
0.176440 -0.209701 0.041441 239 68 68
0.152253 -0.088860 0.049186 239 68 68
0.073840 -0.085280 0.082907 239 68 68
-0.300662 -0.272247 0.198630 239 68 68
0.079427 -0.337669 0.290938 239 68 68
-0.094934 -0.052682 -0.017206 239 68 68
-0.201573 -0.290349 0.125314 239 68 68
0.081778 -0.128908 0.222892 239 68 68
0.177003 -0.394734 -0.005257 239 68 68
-0.022702 -0.016098 -0.113815 239 68 68
0.133116 0.086263 0.094460 239 68 68
-0.012431 -0.013966 0.060582 239 68 68
0.129628 -0.022369 0.096234 239 68 68
0.043301 -0.041435 0.156924 239 68 68
0.140369 -0.076983 0.121359 239 68 68
0.060332 -0.224932 0.158602 239 68 68
-0.063892 -0.035004 -0.157356 239 68 68
0.273639 -0.209630 -0.089635 239 68 68
0.247355 -0.151033 0.103843 239 68 68
-0.028362 -0.129140 0.292494 239 68 68
0.093950 -0.076959 0.025627 239 68 68
0.111843 -0.115359 0.078444 239 68 68
-0.028452 -0.082730 0.319165 239 68 68
0.011790 -0.359157 0.315010 239 68 68
0.285622 -0.306548 0.226278 239 68 68
-0.018325 -0.097238 0.101852 239 68 68
0.245439 -0.127045 0.039499 239 68 68
0.063562 -0.175138 0.194233 239 68 68
-0.039901 -0.037335 0.109698 239 68 68
0.085296 -0.097309 0.099674 239 68 68
0.120302 -0.011434 0.016577 239 68 68
0.084729 -0.137030 0.126628 239 68 68
0.168749 -0.137335 0.049348 239 68 68
-0.070705 -0.139973 -0.149617 239 68 68
0.094650 -0.143318 0.021263 239 68 68
0.099808 0.039078 0.049735 239 68 68
0.045077 -0.217717 0.098074 239 68 68
-0.054577 -0.172790 0.166380 239 68 68
0.010511 -0.130807 -0.004966 239 68 68
0.190708 -0.064144 0.084711 239 68 68
0.032591 -0.037111 -0.023158 239 68 68
