ply
format ascii 1.0
element vertex 1024
property float x
property float y
property float z
property uchar red
property uchar green
property uchar blue
end_header
-0.112889 0.143046 0.148509 245 158 11
0.202692 -0.017494 -0.028062 245 158 11
0.177300 -0.029042 0.164593 245 158 11
0.228214 0.072712 0.114696 245 158 11
0.247342 0.030750 -0.168649 245 158 11
0.315374 0.030415 -0.026407 245 158 11
0.246870 -0.057227 0.185379 245 158 11
-0.138108 0.043083 0.323238 245 158 11
0.088839 0.033551 0.143113 245 158 11
0.162971 0.050892 0.317374 245 158 11
0.240450 0.086760 0.177708 245 158 11
0.126046 -0.049395 -0.075258 245 158 11
0.266709 -0.006444 -0.090610 245 158 11
0.038782 0.164941 0.043415 245 158 11
0.278591 0.096199 -0.166137 245 158 11
0.152122 0.060343 0.474037 245 158 11
0.200843 0.224630 -0.043556 245 158 11
0.291213 0.076214 -0.067784 245 158 11
-0.037637 0.161822 0.227873 245 158 11
0.249401 0.032769 0.083023 245 158 11
0.009404 0.085334 0.369818 245 158 11
0.190164 -0.085312 0.262831 245 158 11
0.077318 -0.061250 0.370599 245 158 11
0.229029 -0.233239 0.158473 245 158 11
0.207458 0.065842 0.141501 245 158 11
-0.238614 0.109849 0.092350 245 158 11
0.200006 0.087421 0.243158 245 158 11
-0.062932 0.118701 0.142214 245 158 11
0.031187 0.071184 0.453672 245 158 11
0.382359 -0.037233 0.283021 245 158 11
0.077899 0.238542 0.028377 245 158 11
0.128335 -0.031812 0.063192 245 158 11
0.235640 0.116794 0.233806 245 158 11
0.266565 0.024994 0.259212 245 158 11
-0.110416 0.048423 0.129738 245 158 11
-0.124576 0.153650 0.205850 245 158 11
-0.009004 -0.068896 0.045175 245 158 11
0.113643 0.154474 0.039429 245 158 11
-0.086901 -0.087123 0.199862 245 158 11
0.033889 0.020593 0.149015 245 158 11
0.020539 0.151116 0.041981 245 158 11
0.243533 0.123286 0.127129 245 158 11
0.320357 0.079636 0.124801 245 158 11
0.197139 0.092166 0.344790 245 158 11
0.265545 -0.034467 0.064961 245 158 11
0.050169 0.039995 0.303984 245 158 11
0.032518 0.012768 0.114789 245 158 11
-0.101251 0.029096 0.035563 245 158 11
0.002120 0.000475 -0.006341 245 158 11
0.246531 -0.000614 0.484084 245 158 11
0.177745 0.086218 0.456897 245 158 11
0.212460 0.064262 0.251283 245 158 11
-0.033532 -0.048052 0.016180 245 158 11
0.218892 0.003282 0.257766 245 158 11
0.111463 0.145166 -0.051175 245 158 11
0.257378 -0.018031 -0.082547 245 158 11
0.248042 0.049952 0.015991 245 158 11
0.337821 0.086314 0.056975 245 158 11
0.023189 0.104839 0.541848 245 158 11
-0.031898 0.063306 0.221714 245 158 11
0.076875 0.019449 0.300594 245 158 11
0.264592 -0.019778 0.226520 245 158 11
0.218501 0.011863 0.102994 245 158 11
0.254618 0.050139 0.459771 245 158 11
0.269304 0.025230 0.505176 245 158 11
0.128977 0.033765 0.557806 245 158 11
0.150241 0.049308 0.093162 245 158 11
0.256071 -0.049712 0.054339 245 158 11
0.248793 0.172099 0.520021 245 158 11
-0.238530 0.077878 0.251928 245 158 11
0.215901 0.088889 0.153276 245 158 11
0.030900 0.125937 0.002562 245 158 11
0.209270 0.074552 0.116017 245 158 11
-0.069686 0.171616 0.096872 245 158 11
0.060245 0.051583 0.346725 245 158 11
0.146613 0.074525 -0.005315 245 158 11
-0.229079 0.075148 0.235076 245 158 11
-0.127343 -0.124448 0.248351 245 158 11
0.066043 -0.011791 0.262656 245 158 11
0.271220 -0.033328 0.183067 245 158 11
0.060505 -0.059906 0.233545 245 158 11
-0.068883 0.026993 0.186887 245 158 11
0.244533 0.007634 0.177193 245 158 11
0.251230 0.010497 0.292051 245 158 11
0.188353 -0.100802 0.068867 245 158 11
0.110735 -0.320861 0.214708 245 158 11
-0.089490 -0.014363 -0.000361 245 158 11
-0.061787 0.056950 0.242564 245 158 11
0.036323 -0.048949 0.051180 245 158 11
0.179271 0.019471 0.409927 245 158 11
0.218474 0.029205 -0.183261 245 158 11
0.202700 0.058770 0.032784 245 158 11
0.152747 0.063106 0.446283 245 158 11
0.200435 0.033356 0.179846 245 158 11
0.061110 -0.037676 0.356507 245 158 11
0.173185 0.004244 -0.008914 245 158 11
0.034730 0.218102 -0.077203 245 158 11
0.017974 -0.121450 0.305536 245 158 11
0.191751 -0.039907 0.092496 245 158 11
0.225468 0.050791 0.069676 245 158 11
-0.224778 0.026870 0.084901 245 158 11
0.069304 0.017035 -0.022500 245 158 11
0.109841 0.019173 0.024200 245 158 11
0.023025 -0.027547 0.142339 245 158 11
0.328613 0.132946 0.020497 245 158 11
0.008267 0.028682 0.002702 245 158 11
-0.072887 0.036038 0.302726 245 158 11
0.058984 0.072317 -0.000478 245 158 11
0.222372 0.179399 0.095126 245 158 11
-0.210895 0.120797 0.219470 245 158 11
0.244930 0.094853 -0.069049 245 158 11
0.236962 -0.004284 0.181795 245 158 11
0.334897 0.099236 0.330327 245 158 11
0.192671 -0.002122 0.244558 245 158 11
-0.319771 -0.156557 0.226667 245 158 11
-0.086718 0.150630 0.405115 245 158 11
-0.044493 0.013222 0.193494 245 158 11
0.269688 0.155527 0.052947 245 158 11
0.205297 0.164837 0.129405 245 158 11
0.104293 0.103875 0.050264 245 158 11
0.105730 0.013513 0.254845 245 158 11
-0.067534 -0.033639 0.013964 245 158 11
-0.070970 0.004746 -0.031557 245 158 11
0.238919 0.066841 -0.220965 245 158 11
0.114436 0.113924 0.173046 245 158 11
0.207072 0.075433 -0.025787 245 158 11
0.157193 0.184367 0.328182 245 158 11
0.391624 0.293531 0.368021 245 158 11
0.243788 0.211306 0.363077 245 158 11
0.295665 0.121031 0.556371 245 158 11
0.072613 0.097426 0.281161 245 158 11
0.154094 0.002109 0.040499 245 158 11
0.182575 0.155652 0.192924 245 158 11
-0.002306 0.156198 0.109612 245 158 11
0.095730 0.072294 0.585348 245 158 11
0.175907 0.077107 0.147225 245 158 11
0.149523 0.121950 0.222519 245 158 11
0.190332 0.093554 0.296529 245 158 11
0.014250 0.116541 -0.156137 245 158 11
0.179667 0.022200 0.053794 245 158 11
-0.140557 0.040992 -0.122321 245 158 11
-0.133138 0.047075 0.188263 245 158 11
0.134053 -0.186874 0.296068 245 158 11
0.066583 0.044479 0.344202 245 158 11
-0.060643 0.053944 0.296457 245 158 11
0.154915 0.152984 0.147417 245 158 11
0.161532 0.094776 -0.290760 245 158 11
0.220938 0.085217 -0.130187 245 158 11
0.130577 0.017176 0.084163 245 158 11
0.242589 0.224480 -0.094462 245 158 11
0.259254 0.048070 0.218074 245 158 11
0.207335 0.011625 -0.066115 245 158 11
-0.193749 0.169352 -0.050991 245 158 11
0.214360 -0.023391 0.228242 245 158 11
0.222304 0.101881 0.012398 245 158 11
0.171605 0.235890 0.053401 245 158 11
0.252222 0.359063 0.294272 245 158 11
-0.041933 0.157783 0.081637 245 158 11
0.106326 -0.147688 0.085847 245 158 11
0.330058 0.126171 0.343804 245 158 11
0.322137 -0.133135 0.094797 245 158 11
0.228540 0.084798 0.127579 245 158 11
0.237707 0.021218 0.206719 245 158 11
-0.033086 0.098868 0.116671 245 158 11
0.245178 0.038515 -0.048636 245 158 11
0.292140 0.100492 0.179810 245 158 11
-0.159926 0.065647 0.055993 245 158 11
0.087091 -0.058409 0.232704 245 158 11
0.144765 0.023205 0.249232 245 158 11
0.195065 0.033021 0.220413 245 158 11
0.253693 -0.046069 -0.089207 245 158 11
0.342235 -0.033429 -0.089462 245 158 11
-0.183689 -0.010361 0.164360 245 158 11
-0.094684 -0.098105 -0.051795 245 158 11
0.268419 0.062030 -0.017832 245 158 11
0.172907 0.212739 0.353387 245 158 11
0.295331 0.062185 0.030711 245 158 11
0.069085 0.088997 -0.116323 245 158 11
0.272300 0.064554 0.169227 245 158 11
0.205232 0.059596 0.266552 245 158 11
0.101110 0.206498 0.172561 245 158 11
0.209453 0.141227 0.294551 245 158 11
-0.120706 0.012276 -0.040107 245 158 11
-0.301636 0.029418 0.264595 245 158 11
0.201227 0.216587 0.108836 245 158 11
0.077148 0.090765 0.050747 245 158 11
0.247747 0.058338 0.001863 245 158 11
0.131087 -0.088006 0.188251 245 158 11
0.015467 0.004370 -0.144490 245 158 11
0.215708 0.127889 0.047939 245 158 11
-0.025134 0.205640 -0.017782 245 158 11
0.013199 0.159904 0.150625 245 158 11
0.091587 0.108141 0.403001 245 158 11
0.247755 0.004645 0.091597 245 158 11
0.153757 0.146760 0.176460 245 158 11
0.007078 0.090333 0.275446 245 158 11
0.083344 0.018317 0.205748 245 158 11
0.314182 0.088129 0.485761 245 158 11
0.257373 0.099018 0.311724 245 158 11
0.128828 0.140772 0.234124 245 158 11
0.198934 0.030550 0.187856 245 158 11
-0.083916 0.090690 0.334496 245 158 11
-0.053080 0.249685 -0.040539 245 158 11
-0.018608 -0.011978 0.076016 245 158 11
0.053204 0.098792 -0.034488 245 158 11
0.267047 0.065461 0.194934 245 158 11
0.144493 0.105610 0.083511 245 158 11
0.365935 0.071344 0.124126 245 158 11
0.100058 0.049828 -0.149164 245 158 11
0.002115 0.175910 0.611280 245 158 11
0.111792 0.056321 0.044880 245 158 11
0.242514 0.064304 0.061499 245 158 11
0.200763 -0.105496 0.542123 245 158 11
0.069758 0.168525 0.071927 245 158 11
0.142622 0.059433 0.159729 245 158 11
0.088867 -0.108090 0.164904 245 158 11
0.224697 -0.196567 0.072236 245 158 11
0.153995 0.021237 -0.066860 245 158 11
0.095947 0.154167 0.065643 245 158 11
0.346118 -0.068119 -0.137170 245 158 11
0.196658 0.077911 0.166238 245 158 11
0.311146 0.125966 0.401598 245 158 11
0.040117 0.051986 -0.174431 245 158 11
0.039462 0.180616 -0.151697 245 158 11
0.051686 0.076651 0.044198 245 158 11
0.374070 -0.238594 0.308932 245 158 11
-0.093685 0.166339 -0.209537 245 158 11
0.108563 0.171420 0.349310 245 158 11
0.083270 -0.193283 0.395263 245 158 11
0.206542 -0.279109 -0.292961 245 158 11
0.274388 0.046223 0.246198 245 158 11
0.270019 0.023723 0.133912 245 158 11
0.312527 0.056900 0.094058 245 158 11
0.230080 -0.184885 0.149627 245 158 11
0.195496 0.007717 0.151761 245 158 11
0.246117 0.008713 0.272173 245 158 11
0.073611 0.024716 0.092216 245 158 11
0.107604 -0.032376 -0.080628 245 158 11
0.007199 0.040666 0.361947 245 158 11
0.220335 -0.282355 0.370967 245 158 11
0.186464 0.185456 0.283125 245 158 11
0.030906 0.121647 -0.059877 245 158 11
0.245325 0.009034 -0.123266 245 158 11
0.381862 -0.073363 0.471814 245 158 11
0.145127 0.012632 0.211631 245 158 11
0.297563 0.300338 0.031832 245 158 11
0.279486 0.175268 0.318376 245 158 11
0.011229 0.106603 0.068878 245 158 11
-0.020766 0.029583 0.424172 245 158 11
0.070854 0.086257 -0.091407 245 158 11
0.282608 0.038435 0.141344 245 158 11
0.220827 0.063293 -0.114731 245 158 11
0.387892 0.091221 0.117555 245 158 11
0.151368 0.034879 0.177576 245 158 11
0.107224 0.128747 0.268018 245 158 11
0.083460 0.046621 -0.049882 245 158 11
-0.194868 0.259523 0.311644 245 158 11
0.126996 -0.101325 0.155383 245 158 11
0.097413 0.168284 0.355405 245 158 11
0.243291 -0.028220 0.100950 245 158 11
0.068020 -0.051184 -0.021356 245 158 11
0.191733 0.101627 0.335442 245 158 11
-0.107878 0.082810 0.132259 245 158 11
0.399465 0.050511 0.161341 245 158 11
-0.141414 -0.011714 0.046906 245 158 11
-0.120933 0.129969 0.354376 245 158 11
0.348162 -0.159241 0.311074 245 158 11
0.048015 -0.038034 0.130928 245 158 11
-0.242485 0.046095 0.245888 245 158 11
0.098416 0.059069 0.406449 245 158 11
0.217856 0.019732 0.231477 245 158 11
0.281469 -0.100281 0.313905 245 158 11
-0.053755 0.134845 -0.267078 245 158 11
0.137717 0.106914 0.277911 245 158 11
0.190101 0.076732 -0.163369 245 158 11
0.484995 0.058903 0.156169 245 158 11
0.065681 0.125053 0.047666 245 158 11
0.361930 0.054543 0.067581 245 158 11
0.155080 0.141805 0.392476 245 158 11
-0.030580 -0.080066 0.200559 245 158 11
0.357571 0.016726 0.345869 245 158 11
0.152804 -0.245656 0.324045 245 158 11
0.237836 0.079889 0.468475 245 158 11
0.198316 0.038564 0.198154 245 158 11
0.510633 0.199104 -0.004316 245 158 11
0.080137 0.001556 0.061155 245 158 11
0.112845 0.019344 0.300437 245 158 11
0.248291 0.116576 0.289642 245 158 11
-0.216037 0.039070 0.028731 245 158 11
0.009620 0.268911 0.160082 245 158 11
0.208569 0.044357 0.513217 245 158 11
0.371206 0.132441 0.431576 245 158 11
0.224801 0.137318 0.286353 245 158 11
0.017434 0.017323 0.133502 245 158 11
0.197371 -0.234330 0.095688 245 158 11
0.185193 -0.021826 0.081270 245 158 11
0.115944 0.029364 0.447925 245 158 11
0.138478 -0.224734 0.396769 245 158 11
0.251509 0.053124 0.148414 245 158 11
0.310892 0.006978 0.135764 245 158 11
0.144929 -0.142616 0.187049 245 158 11
-0.037432 0.036831 0.381680 245 158 11
-0.144039 0.021456 0.173167 245 158 11
0.343675 -0.047221 -0.196019 245 158 11
0.054551 0.122962 0.379785 245 158 11
0.283509 -0.084173 0.250453 245 158 11
0.262737 0.056999 0.279805 245 158 11
0.075886 0.000901 0.150907 245 158 11
0.118923 -0.029104 0.246836 245 158 11
0.205892 0.138416 0.271468 245 158 11
0.070382 0.038923 0.082366 245 158 11
0.274723 0.037823 0.517955 245 158 11
0.137291 0.147015 0.126453 245 158 11
0.409458 0.152937 0.381420 245 158 11
-0.005342 0.132826 0.209356 245 158 11
0.149004 0.120440 0.121675 245 158 11
0.000827 -0.008103 0.564224 245 158 11
0.157859 -0.170176 0.007777 245 158 11
0.219198 0.119561 0.379828 245 158 11
-0.172413 0.065609 0.218310 245 158 11
0.217454 0.025060 0.001415 245 158 11
0.020012 -0.122998 0.436514 245 158 11
0.228907 0.104852 0.143417 245 158 11
0.164006 0.103514 0.178446 245 158 11
0.340525 0.099264 -0.120680 245 158 11
0.299550 -0.079518 0.156799 245 158 11
-0.181404 -0.108198 0.018064 245 158 11
0.215356 0.085720 0.285194 245 158 11
0.331500 0.125989 -0.033578 245 158 11
0.300688 0.121351 0.051631 245 158 11
0.287388 -0.033406 0.351606 245 158 11
-0.028143 0.013803 0.192990 245 158 11
0.146788 0.006837 0.399543 245 158 11
0.373964 0.212816 0.183115 245 158 11
0.003156 0.055749 0.230163 245 158 11
0.279532 -0.012480 0.259075 245 158 11
0.164627 -0.149571 0.035712 245 158 11
0.178516 0.088224 0.335685 245 158 11
0.214646 0.080609 0.072807 245 158 11
0.376336 -0.014014 0.040430 245 158 11
0.289161 0.202594 -0.214491 245 158 11
0.479118 0.112557 0.142037 245 158 11
0.125625 0.056018 0.249608 245 158 11
0.281895 -0.216048 0.029028 245 158 11
0.008929 0.103047 -0.011750 245 158 11
0.031942 -0.242790 0.228787 245 158 11
0.134680 0.018702 0.393674 245 158 11
0.135695 0.197144 0.223183 245 158 11
0.153249 0.159925 0.224732 245 158 11
0.246155 0.078888 -0.180558 245 158 11
-0.067420 0.043920 -0.078448 245 158 11
-0.017012 0.151556 0.287220 245 158 11
0.175228 0.207938 0.097047 245 158 11
0.360345 0.091241 0.186237 245 158 11
-0.103418 0.123244 0.398576 245 158 11
0.054224 0.156103 -0.134891 245 158 11
0.132183 0.252419 0.035497 245 158 11
0.162049 0.141464 0.026161 245 158 11
0.065171 0.226137 0.350778 245 158 11
0.218235 0.444004 0.163541 245 158 11
0.272407 0.082781 0.131213 245 158 11
0.275200 0.024845 0.085372 245 158 11
0.271745 0.104650 -0.078986 245 158 11
-0.063135 0.028700 0.098215 245 158 11
0.261797 0.033573 0.169601 245 158 11
0.196497 0.053271 0.350832 245 158 11
0.375199 0.044982 0.128761 245 158 11
-0.080190 0.179832 0.361978 245 158 11
-0.066155 0.164221 0.055127 245 158 11
0.339453 0.148649 0.204600 245 158 11
0.161031 0.035982 -0.138482 245 158 11
0.220275 0.127175 -0.168555 245 158 11
0.147748 0.081159 0.229036 245 158 11
0.265261 -0.100549 0.519631 245 158 11
-0.124635 0.154658 0.262351 245 158 11
-0.099244 -0.049638 -0.004508 245 158 11
0.286997 0.061789 0.427936 245 158 11
0.268799 -0.158076 0.257867 245 158 11
0.343811 0.091773 0.325385 245 158 11
0.072233 0.152811 0.158937 245 158 11
0.270576 0.116819 0.241101 245 158 11
0.250622 0.223240 0.353245 245 158 11
0.263646 0.144320 0.431496 245 158 11
0.219613 0.097095 0.158188 245 158 11
0.180751 0.130529 -0.068316 245 158 11
0.385463 -0.100189 0.048186 245 158 11
0.461453 0.147219 -0.170373 245 158 11
-0.106488 0.125969 0.332995 245 158 11
0.049135 -0.104602 0.451846 245 158 11
0.010525 0.075981 -0.144803 245 158 11
0.318817 -0.177713 0.538135 245 158 11
0.216546 0.221735 0.349843 245 158 11
0.090677 0.131563 0.190484 245 158 11
-0.019043 0.106939 0.258178 245 158 11
-0.003121 -0.054532 0.285262 245 158 11
0.349923 -0.126533 -0.118147 245 158 11
-0.189842 0.089653 -0.053443 245 158 11
0.137352 0.176299 0.031048 245 158 11
0.187056 0.103257 -0.023469 245 158 11
0.265746 0.053151 -0.230056 245 158 11
0.255266 0.169335 0.284289 245 158 11
0.012373 0.070356 0.224394 245 158 11
0.357329 0.049118 0.446382 245 158 11
-0.005977 0.173671 0.353661 245 158 11
0.004551 0.275592 -0.039728 245 158 11
0.214973 0.219588 -0.247352 245 158 11
0.219011 -0.082520 0.039990 245 158 11
0.077698 -0.343558 0.380188 245 158 11
0.230835 0.098707 0.032773 245 158 11
0.068585 0.061903 0.158698 245 158 11
0.134553 0.118078 -0.085765 245 158 11
0.354575 0.033358 0.031217 245 158 11
0.265490 -0.025957 -0.141538 245 158 11
0.245887 0.022687 0.092769 245 158 11
-0.363567 -0.043077 -0.230791 245 158 11
0.182646 0.082130 0.476358 245 158 11
0.036386 -0.036464 0.130190 245 158 11
0.221517 -0.063163 0.161028 245 158 11
0.267069 -0.123477 0.174701 245 158 11
0.094310 0.061030 -0.024025 245 158 11
-0.016938 0.004473 0.027162 245 158 11
0.383522 0.015155 0.277158 245 158 11
0.126923 0.114667 0.192539 245 158 11
0.365548 0.039529 0.159366 245 158 11
0.170840 0.071840 -0.033133 245 158 11
0.201343 0.387678 0.366071 245 158 11
0.129833 -0.085427 0.168838 245 158 11
0.341214 0.045187 -0.191449 245 158 11
0.008342 0.087909 0.018824 245 158 11
0.207370 0.034270 0.102422 245 158 11
0.366118 -0.006397 0.122802 245 158 11
-0.076966 -0.139652 0.131908 245 158 11
-0.024006 -0.046507 0.218990 245 158 11
0.130141 0.076080 -0.013322 245 158 11
0.161550 0.018737 0.133413 245 158 11
0.336496 0.024249 0.232109 245 158 11
0.242609 0.107319 0.109663 245 158 11
0.144342 0.125078 0.009180 245 158 11
0.056203 0.045772 0.438474 245 158 11
0.126321 0.056999 0.358868 245 158 11
0.003379 0.097789 0.056408 245 158 11
0.136407 0.150442 0.032540 245 158 11
-0.041015 0.086138 0.348597 245 158 11
0.252740 0.200370 0.581287 245 158 11
-0.107238 -0.179023 0.434033 245 158 11
-0.059296 0.170459 0.456468 245 158 11
-0.303860 0.305549 0.160638 245 158 11
0.002738 0.258696 0.259376 245 158 11
0.260289 0.191306 -0.010037 245 158 11
0.146998 0.095913 -0.140074 245 158 11
-0.242994 -0.065283 0.233037 245 158 11
0.392799 0.114043 0.401588 245 158 11
-0.017634 -0.142967 0.204504 245 158 11
0.081385 0.051697 0.447642 245 158 11
0.243528 0.149765 0.208152 245 158 11
0.148797 0.000797 0.135022 245 158 11
0.179378 -0.053750 0.021155 245 158 11
-0.111452 0.004947 -0.083072 245 158 11
0.210026 0.023517 0.187045 245 158 11
0.100879 0.043819 0.003907 245 158 11
0.200510 0.125251 0.042217 245 158 11
0.230561 -0.012796 0.148073 245 158 11
0.055932 -0.010169 0.310357 245 158 11
0.101247 -0.055573 0.056777 245 158 11
0.000082 -0.045913 -0.081739 245 158 11
0.068292 0.078808 0.121069 245 158 11
-0.037566 -0.070170 0.234905 245 158 11
-0.054549 0.108927 0.007665 245 158 11
-0.028392 0.036110 0.254703 245 158 11
0.162003 -0.299227 0.251132 245 158 11
0.247806 -0.058789 0.315933 245 158 11
-0.045711 -0.189620 0.183039 245 158 11
0.122809 -0.032371 -0.076966 245 158 11
0.068336 -0.038687 0.119031 245 158 11
0.126456 -0.040008 0.378478 245 158 11
0.183949 -0.005763 0.526292 245 158 11
0.372934 -0.020812 0.235199 245 158 11
0.313471 -0.307052 0.187453 245 158 11
-0.203099 -0.055833 0.080554 245 158 11
0.095381 0.004518 -0.026121 245 158 11
0.190316 -0.182365 -0.025041 245 158 11
0.003507 -0.193102 0.224729 245 158 11
0.096098 0.043124 0.442187 245 158 11
0.144268 -0.041624 -0.004873 245 158 11
0.203460 -0.047520 0.162824 245 158 11
0.337237 0.002292 0.222867 245 158 11
0.012872 -0.031506 0.497677 245 158 11
0.131145 -0.028090 0.455755 245 158 11
0.312688 -0.065098 0.062177 245 158 11
-0.310642 0.110034 0.201722 245 158 11
0.120192 -0.026408 0.110403 245 158 11
0.067983 -0.124741 0.225001 245 158 11
0.088667 -0.054144 0.348143 245 158 11
0.291296 -0.084948 0.661985 245 158 11
0.004624 0.034082 0.274065 245 158 11
0.190369 -0.105555 0.295813 245 158 11
0.006536 -0.060426 0.287854 245 158 11
0.046212 0.027819 0.118460 245 158 11
0.253288 0.103695 0.551272 245 158 11
0.009429 -0.033214 0.003672 245 158 11
0.147789 -0.276011 0.290716 245 158 11
-0.119203 -0.116387 0.596697 245 158 11
0.418224 -0.168470 0.238214 245 158 11
0.181088 -0.217452 0.453225 245 158 11
-0.004549 -0.202891 -0.494688 245 158 11
-0.192226 -0.127414 0.280589 245 158 11
0.081901 0.334350 0.234937 245 158 11
0.000447 -0.138182 0.343631 245 158 11
0.406566 -0.003728 0.416087 245 158 11
0.050702 -0.067611 -0.001565 245 158 11
-0.065973 0.216217 0.180077 245 158 11
0.102059 -0.073060 -0.156989 245 158 11
0.152865 -0.101095 0.247939 245 158 11
0.254724 -0.312506 0.277419 245 158 11
-0.076537 -0.108939 0.036878 245 158 11
-0.150451 -0.237021 0.212367 245 158 11
0.289128 -0.143057 0.329076 245 158 11
0.162918 -0.032246 0.138754 245 158 11
0.276359 -0.066702 0.314071 245 158 11
0.282040 -0.080460 0.162843 245 158 11
0.109590 -0.067439 -0.145459 245 158 11
0.103900 -0.094859 0.480832 245 158 11
-0.114651 0.173509 0.016243 245 158 11
0.037298 -0.056988 0.315951 245 158 11
0.139006 -0.225790 0.457046 245 158 11
0.058541 -0.124180 0.362853 245 158 11
-0.080260 -0.198385 0.166732 245 158 11
-0.005227 0.002142 0.177982 245 158 11
0.234252 -0.121767 0.316063 245 158 11
0.030760 -0.085364 0.255766 245 158 11
-0.147577 0.155358 0.186046 245 158 11
0.215034 -0.132569 0.239552 245 158 11
0.028451 0.026853 -0.066944 245 158 11
0.239286 -0.051625 0.467063 245 158 11
0.289398 -0.052590 0.191492 245 158 11
0.437843 -0.090422 0.375814 245 158 11
0.058591 -0.027582 0.537149 245 158 11
-0.153966 -0.065599 -0.016112 245 158 11
0.049110 -0.050857 0.346407 245 158 11
0.201561 -0.154504 -0.119791 245 158 11
0.054928 -0.093157 0.387786 245 158 11
-0.017012 0.004108 0.316449 245 158 11
0.067226 -0.010745 0.161316 245 158 11
0.279034 -0.014147 -0.016299 245 158 11
0.123797 0.009129 0.113895 245 158 11
0.240385 0.002235 0.313489 245 158 11
0.043851 -0.014238 0.050937 245 158 11
0.070542 -0.043054 -0.132926 245 158 11
0.346953 0.126925 -0.169432 245 158 11
0.159385 0.113824 0.018715 245 158 11
-0.078563 -0.110954 0.124029 245 158 11
0.031748 -0.039587 0.522626 245 158 11
0.307644 -0.080825 -0.074973 245 158 11
0.255229 -0.016430 0.298155 245 158 11
0.228502 0.163309 0.414846 245 158 11
0.237597 -0.021978 0.274592 245 158 11
-0.184000 -0.023591 0.308079 245 158 11
-0.123750 0.440047 0.184006 245 158 11
0.098034 -0.121956 0.458224 245 158 11
0.164401 -0.038682 0.097207 245 158 11
0.170443 0.021399 0.122336 245 158 11
-0.132964 0.037970 -0.362098 245 158 11
0.314058 0.006847 0.095602 245 158 11
-0.124309 0.033692 0.193171 245 158 11
0.025588 0.128985 -0.117952 245 158 11
-0.003258 0.030502 0.382493 245 158 11
-0.062202 -0.119198 0.026798 245 158 11
0.130971 -0.104656 -0.299018 245 158 11
0.213993 -0.237690 0.156921 245 158 11
-0.125192 -0.070910 0.247718 245 158 11
0.244348 -0.036756 0.055329 245 158 11
0.306018 -0.004601 0.026871 245 158 11
0.135864 -0.017266 0.072832 245 158 11
0.160185 -0.040962 0.021086 245 158 11
-0.131437 0.102340 -0.037361 245 158 11
0.241224 -0.047940 0.296927 245 158 11
0.167569 0.030992 -0.039826 245 158 11
0.203745 0.040634 -0.108855 245 158 11
0.240567 0.117344 -0.278565 245 158 11
-0.013291 -0.033992 0.315260 245 158 11
0.165686 -0.142197 0.195600 245 158 11
0.205532 -0.045539 0.626263 245 158 11
-0.144170 0.042474 0.276149 245 158 11
0.095323 0.018985 0.290278 245 158 11
-0.148003 -0.021688 0.374803 245 158 11
0.146100 0.028977 0.244904 245 158 11
0.089318 0.121810 0.299342 245 158 11
0.061016 0.045060 -0.023739 245 158 11
0.198191 -0.061214 0.353323 245 158 11
0.301740 0.039213 0.270958 245 158 11
0.295634 0.056993 0.297704 245 158 11
0.158059 0.003881 0.178528 245 158 11
0.258600 -0.132972 0.285684 245 158 11
0.123597 0.088950 0.269205 245 158 11
0.192554 -0.159138 0.308684 245 158 11
-0.027903 0.308949 0.042966 245 158 11
0.112768 0.056448 0.446036 245 158 11
0.058037 -0.012079 0.057224 245 158 11
-0.330017 -0.029438 -0.100439 245 158 11
0.278781 0.146940 0.412823 245 158 11
0.213620 0.014228 0.239110 245 158 11
0.028327 0.041555 0.008321 245 158 11
0.269161 -0.092524 0.261100 245 158 11
0.083448 0.056322 -0.093076 245 158 11
-0.144633 0.066057 0.190031 245 158 11
0.169104 0.098472 0.166099 245 158 11
0.345928 0.033513 0.294947 245 158 11
0.228501 0.070444 -0.133405 245 158 11
0.222684 0.191557 0.017836 245 158 11
0.156311 -0.250725 0.042193 245 158 11
0.191161 -0.130413 -0.108988 245 158 11
-0.059398 -0.052734 0.183425 245 158 11
-0.093996 0.038014 0.167483 245 158 11
0.197858 0.025693 0.177828 245 158 11
0.299074 0.078920 0.149356 245 158 11
0.406981 0.019566 0.369029 245 158 11
0.135518 -0.077743 0.488510 245 158 11
0.076648 -0.124739 -0.047535 245 158 11
0.127194 0.039410 0.042674 245 158 11
-0.056934 0.163232 0.045968 245 158 11
0.250141 0.195929 0.301510 245 158 11
0.305648 0.132585 0.328886 245 158 11
0.451239 -0.019723 -0.059042 245 158 11
-0.129492 0.100593 0.245487 245 158 11
0.175592 0.051744 0.272431 245 158 11
0.185369 0.012682 0.499063 245 158 11
0.149946 -0.040426 0.010348 245 158 11
0.125631 0.154487 -0.338822 245 158 11
0.232104 0.060710 0.508273 245 158 11
0.173340 -0.077666 0.220617 245 158 11
-0.137847 0.029539 0.147075 245 158 11
0.143997 0.028458 0.392365 245 158 11
0.075289 -0.089968 0.186072 245 158 11
0.090614 -0.000504 0.035920 245 158 11
0.152284 -0.017688 0.097154 245 158 11
0.216471 0.048439 0.489601 245 158 11
0.218092 0.043661 0.184441 245 158 11
0.244853 -0.265101 0.031821 245 158 11
0.071505 -0.041864 0.260726 245 158 11
0.249634 0.049996 0.265031 245 158 11
0.251666 -0.000050 0.081402 245 158 11
0.256706 -0.001012 0.130026 245 158 11
0.012033 0.007518 0.340304 245 158 11
0.199333 0.023547 -0.030247 245 158 11
-0.009003 0.125093 -0.067275 245 158 11
0.072408 0.066024 0.089905 245 158 11
0.161283 0.202378 0.096457 245 158 11
0.178096 -0.083472 0.281661 245 158 11
0.067986 -0.355250 0.303223 245 158 11
-0.081921 0.136459 0.506721 245 158 11
0.282138 -0.205173 0.058154 245 158 11
0.231281 0.049534 0.045031 245 158 11
0.237093 0.051506 0.083198 245 158 11
0.245795 -0.062112 0.266528 245 158 11
0.322848 0.003667 0.187254 245 158 11
-0.106853 0.012916 0.310833 245 158 11
0.243844 -0.250618 0.318697 245 158 11
0.235386 0.052093 0.049026 245 158 11
0.129848 -0.034896 0.566170 245 158 11
0.276370 0.024093 0.145334 245 158 11
-0.064222 -0.024266 0.045978 245 158 11
0.114104 0.000254 -0.144206 245 158 11
0.152303 0.120040 0.318617 245 158 11
0.109100 -0.045962 0.225124 245 158 11
0.147158 0.013681 0.155940 245 158 11
0.151339 -0.002107 0.211521 245 158 11
0.318682 -0.016508 0.088852 245 158 11
0.090091 0.061345 0.639853 245 158 11
-0.018096 0.039772 0.273872 245 158 11
0.192586 -0.046647 0.356493 245 158 11
0.283610 -0.003638 -0.012546 245 158 11
0.013081 0.032931 0.316874 245 158 11
-0.002546 0.005129 0.321920 245 158 11
0.232418 -0.000250 -0.183573 245 158 11
0.295495 0.041577 0.064891 245 158 11
0.160279 -0.081501 0.046022 245 158 11
0.277656 0.327243 0.157225 245 158 11
-0.026571 0.036111 0.048704 245 158 11
0.310735 0.073846 0.099179 245 158 11
0.350898 0.004782 0.515657 245 158 11
0.304805 0.066868 -0.015742 245 158 11
0.053908 0.174358 0.177109 245 158 11
0.129445 -0.006639 0.291404 245 158 11
0.051947 -0.115450 0.041778 245 158 11
-0.021197 0.001279 0.284865 245 158 11
0.223502 -0.041926 0.259488 245 158 11
0.196207 -0.045932 0.166402 245 158 11
0.172115 -0.120108 0.147840 245 158 11
0.284561 0.009093 0.081645 245 158 11
0.257274 0.160089 0.488037 245 158 11
-0.112477 -0.024864 0.179056 245 158 11
0.214702 -0.134065 0.220436 245 158 11
0.052714 -0.061863 0.035250 245 158 11
-0.374536 -0.089178 0.033641 245 158 11
0.108035 -0.076769 0.160043 245 158 11
0.166834 -0.009745 0.096217 245 158 11
0.157949 0.129122 0.034836 245 158 11
0.277798 0.015593 0.293753 245 158 11
-0.113723 0.015593 -0.136525 245 158 11
0.297281 -0.130499 0.320135 245 158 11
0.122381 -0.004433 -0.121186 245 158 11
0.101567 -0.031259 0.090618 245 158 11
0.277337 0.152096 0.152142 245 158 11
0.017331 -0.120514 0.213268 245 158 11
0.172823 0.001995 0.208117 245 158 11
0.236695 -0.070710 0.229892 245 158 11
-0.124738 0.045236 0.212763 245 158 11
0.399524 0.035387 -0.123975 245 158 11
0.242004 -0.035406 0.144898 245 158 11
0.367039 -0.166860 0.112394 245 158 11
-0.205339 -0.172673 0.605709 245 158 11
0.272006 -0.068420 0.322886 245 158 11
0.021042 -0.100328 0.349399 245 158 11
-0.063651 0.005360 0.379731 245 158 11
0.114260 0.007786 0.145228 245 158 11
0.193113 -0.006661 0.197145 245 158 11
0.188640 0.120254 0.362889 245 158 11
0.243562 -0.231744 0.316439 245 158 11
0.258540 0.024885 0.188537 245 158 11
-0.156347 -0.174380 0.400290 245 158 11
0.100957 -0.072997 -0.153829 245 158 11
0.253876 -0.135071 0.383089 245 158 11
0.287949 0.134570 0.348960 245 158 11
0.234756 0.167364 0.239986 245 158 11
0.379633 0.338859 0.119253 245 158 11
0.276922 0.014929 0.231675 245 158 11
-0.162248 -0.028820 0.287606 245 158 11
-0.076044 -0.001581 0.236864 245 158 11
0.328150 -0.011508 0.287144 245 158 11
-0.428563 -0.114790 0.010481 245 158 11
-0.253246 0.097857 0.538201 245 158 11
0.259937 -0.012527 0.637602 245 158 11
0.261981 0.049745 0.463922 245 158 11
0.230265 0.160146 0.318869 245 158 11
-0.097581 0.083523 0.458030 245 158 11
-0.023329 -0.134685 0.425071 245 158 11
0.286347 -0.093834 0.166208 245 158 11
0.277058 0.058328 0.407521 245 158 11
0.294855 0.028608 0.283449 245 158 11
0.173580 0.128818 0.139242 245 158 11
0.448414 0.249983 -0.065709 245 158 11
0.079118 0.016044 -0.005182 245 158 11
0.252151 0.028044 0.131815 245 158 11
-0.062151 -0.063410 0.279814 245 158 11
0.246869 -0.010775 -0.015161 245 158 11
0.217249 -0.070707 0.124759 245 158 11
0.279503 0.019966 0.325864 245 158 11
0.215853 -0.008405 0.012528 245 158 11
0.281455 0.068030 -0.023220 245 158 11
0.091397 -0.006803 0.264761 245 158 11
0.052626 0.250449 0.322128 245 158 11
0.082771 0.173628 0.068472 245 158 11
0.270426 0.022870 0.199771 245 158 11
0.274981 0.151415 0.003431 245 158 11
0.282567 0.014481 0.286473 245 158 11
-0.020211 0.168683 0.522267 245 158 11
0.386914 -0.250343 0.515060 245 158 11
0.225173 -0.050730 0.148916 245 158 11
0.291149 -0.017233 0.433847 245 158 11
0.109308 -0.036957 0.185625 245 158 11
0.093218 0.022679 0.180402 245 158 11
0.422746 0.105725 -0.034703 245 158 11
0.390612 0.032576 0.042781 245 158 11
0.341651 0.050441 0.215644 245 158 11
0.336808 -0.147628 0.248396 245 158 11
0.257393 0.170065 -0.067225 245 158 11
0.232423 -0.039164 0.341476 245 158 11
0.327739 -0.028392 0.136663 245 158 11
-0.099763 -0.043850 -0.186859 245 158 11
0.232382 -0.075641 0.120144 245 158 11
0.151354 0.080138 0.336236 245 158 11
-0.072747 0.055249 0.011771 245 158 11
0.180648 -0.189341 -0.091279 245 158 11
0.227996 -0.069398 0.214737 245 158 11
0.368619 0.018981 0.452710 245 158 11
-0.050153 0.074608 0.009801 245 158 11
0.149804 -0.088051 0.250789 245 158 11
0.080105 0.004254 -0.038608 245 158 11
0.256380 0.035688 0.248135 245 158 11
0.211844 0.027813 0.263966 245 158 11
-0.121154 0.002638 0.040044 245 158 11
-0.112063 0.055217 0.239156 245 158 11
0.264692 -0.045353 0.078508 245 158 11
0.231479 -0.278747 0.246237 245 158 11
-0.006089 -0.061720 0.166573 245 158 11
0.186528 -0.033863 0.250828 245 158 11
-0.064398 -0.047564 0.218933 245 158 11
0.181677 -0.056187 0.194376 245 158 11
-0.017786 0.032102 0.374974 245 158 11
0.234546 -0.005241 0.284297 245 158 11
0.137286 0.023167 0.034052 245 158 11
-0.256441 -0.015788 0.094401 245 158 11
0.239934 -0.047306 0.062075 245 158 11
-0.064561 -0.217546 0.019753 245 158 11
0.151831 -0.040114 0.445749 245 158 11
0.230940 0.169772 0.403095 245 158 11
0.137848 -0.016687 0.404420 245 158 11
0.137735 -0.005141 0.139867 245 158 11
0.316735 0.045772 0.448590 245 158 11
-0.091260 0.024347 0.220768 245 158 11
0.232233 0.043139 -0.000834 245 158 11
0.109348 -0.024353 0.243583 245 158 11
0.235181 0.056462 0.113038 245 158 11
0.232932 -0.012623 0.321693 245 158 11
0.320726 -0.044581 0.580019 245 158 11
0.229140 0.044140 0.057812 245 158 11
0.147221 0.165919 0.036833 245 158 11
-0.049855 -0.047968 0.010088 245 158 11
-0.056653 0.217064 0.069139 245 158 11
-0.225795 0.023932 0.195601 245 158 11
0.069383 0.069983 0.514906 245 158 11
-0.032557 0.007769 0.163950 245 158 11
0.271769 0.046911 0.356638 245 158 11
0.108294 0.060704 0.299130 245 158 11
0.266276 0.006251 0.196829 245 158 11
0.021908 0.035895 0.185776 245 158 11
0.287972 0.105960 0.162621 245 158 11
0.069216 -0.032871 0.241306 245 158 11
0.334363 -0.090733 0.167108 245 158 11
0.241660 -0.077036 0.135402 245 158 11
0.072742 -0.114193 0.186091 245 158 11
0.207097 -0.078832 0.316797 245 158 11
0.366950 0.012175 0.256606 245 158 11
-0.061414 -0.024208 -0.014510 245 158 11
0.023246 -0.068401 0.402332 245 158 11
0.310907 0.177689 0.513043 245 158 11
0.217923 0.008637 0.167551 245 158 11
0.077909 -0.014268 -0.113943 245 158 11
0.302515 0.251903 -0.191795 245 158 11
0.137055 -0.241946 -0.034629 245 158 11
0.271586 -0.079188 0.043720 245 158 11
0.069815 0.089383 0.376499 245 158 11
0.329207 0.011982 0.518955 245 158 11
0.231616 -0.027241 0.225667 245 158 11
0.202792 0.153209 0.290536 245 158 11
0.108395 -0.090204 0.297905 245 158 11
-0.022780 0.035873 0.310267 245 158 11
-0.217734 0.064380 -0.052544 245 158 11
0.156504 -0.174636 0.281711 245 158 11
0.134672 -0.092380 0.162614 245 158 11
0.191891 0.229170 0.102490 245 158 11
0.140987 -0.068670 0.348109 245 158 11
0.191828 -0.060097 0.178550 245 158 11
-0.193380 -0.173066 0.109677 245 158 11
0.243298 -0.079533 0.328356 245 158 11
0.230604 -0.179612 0.002026 245 158 11
0.372879 -0.033863 0.464573 245 158 11
0.244506 0.131169 0.712136 245 158 11
0.287602 0.032977 0.054278 245 158 11
0.222333 0.026599 -0.076256 245 158 11
0.117900 0.037040 0.186061 245 158 11
-0.013805 -0.042379 -0.020634 245 158 11
0.330150 -0.066413 0.221519 245 158 11
0.384737 -0.087342 0.113384 245 158 11
0.201956 -0.006479 0.279255 245 158 11
0.044907 0.058668 -0.024979 245 158 11
0.227272 -0.012597 0.605115 245 158 11
0.283770 0.200755 0.220057 245 158 11
-0.149815 -0.036838 0.052229 245 158 11
0.381463 -0.341732 0.158253 245 158 11
-0.129163 -0.049936 -0.211266 245 158 11
0.111652 0.006626 0.125532 245 158 11
0.119329 0.039730 0.211440 245 158 11
-0.260233 0.080615 0.428097 245 158 11
0.251814 -0.171127 0.370521 245 158 11
0.231847 -0.071028 0.243506 245 158 11
0.309544 -0.003610 0.290425 245 158 11
0.005730 -0.010291 0.227740 245 158 11
0.177907 0.014624 0.284228 245 158 11
0.410680 0.079059 0.466754 245 158 11
0.106301 -0.018354 0.050054 245 158 11
0.137151 0.128641 -0.057870 245 158 11
0.254100 -0.072806 0.024460 245 158 11
0.203793 0.055224 0.035765 245 158 11
0.319388 0.047053 0.068901 245 158 11
0.301417 -0.014497 0.011514 245 158 11
0.133633 -0.065254 0.460017 245 158 11
0.266378 0.106616 0.204418 245 158 11
0.086822 -0.007465 0.139175 245 158 11
0.140507 0.094558 0.364590 245 158 11
0.261818 0.069693 0.308284 245 158 11
0.207902 0.048552 0.253688 245 158 11
0.026987 0.097121 0.020918 245 158 11
0.176626 -0.141435 -0.095856 245 158 11
-0.113991 -0.225940 0.300345 245 158 11
-0.236368 0.162086 0.448285 245 158 11
0.281363 -0.042911 0.175716 245 158 11
0.225376 0.016565 0.121923 245 158 11
-0.014603 0.058848 0.147834 245 158 11
0.238712 0.018316 0.293727 245 158 11
0.163881 -0.012079 -0.141452 245 158 11
0.240648 -0.162373 0.086318 245 158 11
0.140991 -0.145041 0.210932 245 158 11
0.299452 0.040330 0.202215 245 158 11
0.058095 0.026938 -0.124134 245 158 11
0.172785 0.169790 0.087681 245 158 11
0.176160 0.029871 0.183704 245 158 11
0.242808 0.055927 0.128183 245 158 11
0.054518 0.183940 0.218153 245 158 11
-0.163900 0.015832 0.329775 245 158 11
0.279779 -0.287632 0.016108 245 158 11
0.225769 0.002209 0.246880 245 158 11
0.018843 0.040966 0.417606 245 158 11
0.013411 0.143253 0.206015 245 158 11
0.019543 0.082811 0.107250 245 158 11
0.254916 -0.166868 -0.136501 245 158 11
0.146519 -0.001186 0.058726 245 158 11
0.153856 0.032643 -0.001300 245 158 11
0.311178 -0.067968 0.253544 245 158 11
0.038366 0.043379 0.316918 245 158 11
0.313939 0.144957 0.111897 245 158 11
0.421605 0.243936 -0.304078 245 158 11
0.080388 0.021247 -0.108853 245 158 11
0.027237 -0.253647 0.365732 245 158 11
-0.037534 0.051769 0.344601 245 158 11
0.205477 -0.016445 0.268011 245 158 11
0.384234 0.035851 0.324022 245 158 11
0.263986 0.036874 0.378508 245 158 11
-0.072754 0.082100 0.208328 245 158 11
0.016497 0.023623 0.429041 245 158 11
0.175144 0.068351 0.173316 245 158 11
0.204050 -0.063449 0.281054 245 158 11
0.065996 -0.138392 0.363126 245 158 11
0.184509 -0.042297 0.254422 245 158 11
0.262308 0.005227 0.446863 245 158 11
0.008728 -0.117969 -0.149171 245 158 11
0.284301 -0.117677 0.356011 245 158 11
-0.041831 0.020266 0.229323 245 158 11
0.282669 0.047075 -0.303477 245 158 11
0.371455 -0.122984 0.155862 245 158 11
-0.079243 0.137598 0.060363 245 158 11
-0.150320 -0.035397 0.070331 245 158 11
0.197531 0.043623 0.546675 245 158 11
0.199504 0.136014 0.507280 245 158 11
-0.064950 -0.040366 -0.068692 245 158 11
-0.085191 -0.069589 -0.086688 245 158 11
0.285720 0.035988 0.291277 245 158 11
0.022711 -0.083768 -0.102368 245 158 11
-0.113307 0.111329 0.021419 245 158 11
0.159240 0.034116 0.371506 245 158 11
0.286681 -0.144611 0.308698 245 158 11
0.077929 0.086777 0.177261 245 158 11
0.362252 0.005169 0.373169 245 158 11
0.264090 -0.089915 0.099636 245 158 11
0.227614 0.094862 0.134835 245 158 11
0.062955 -0.004264 -0.149746 245 158 11
0.271462 0.072186 0.218211 245 158 11
0.138957 0.138950 0.054013 245 158 11
0.263821 0.036023 0.393353 245 158 11
0.106647 0.018937 -0.185831 245 158 11
0.347752 -0.452753 0.297105 245 158 11
0.184632 0.119182 0.324873 245 158 11
0.139038 -0.029333 0.238698 245 158 11
0.326037 0.000719 0.288264 245 158 11
-0.029687 0.035762 0.020257 245 158 11
0.227264 0.058296 0.211553 245 158 11
0.381960 0.197814 0.094055 245 158 11
-0.147951 0.021953 0.139558 245 158 11
0.267616 0.031821 -0.003156 245 158 11
0.041173 0.107652 0.395925 245 158 11
0.067134 -0.096685 0.081411 245 158 11
-0.212304 0.039019 0.160572 245 158 11
0.373207 0.029095 0.123188 245 158 11
-0.060552 -0.010639 0.467932 245 158 11
0.247115 0.073210 0.290867 245 158 11
0.306442 -0.032343 0.410173 245 158 11
-0.073568 0.042847 0.188396 245 158 11
0.093875 0.074462 0.228723 245 158 11
0.280358 0.025575 0.078689 245 158 11
0.350378 -0.003513 0.280631 245 158 11
0.378247 0.051067 0.434578 245 158 11
-0.302481 -0.102427 0.054880 245 158 11
0.010013 -0.048466 0.234755 245 158 11
-0.087906 0.029821 0.157748 245 158 11
0.307961 0.011335 0.044761 245 158 11
0.198335 0.137321 0.150231 245 158 11
-0.087130 -0.290683 0.482442 245 158 11
0.001759 0.029989 -0.254249 245 158 11
-0.016121 0.128678 -0.015091 245 158 11
-0.121502 0.043933 0.328783 245 158 11
0.215474 0.022968 0.112670 245 158 11
0.169298 -0.046609 0.161194 245 158 11
-0.060978 -0.178080 0.252557 245 158 11
-0.018873 0.022676 0.088750 245 158 11
0.278515 0.029817 0.261455 245 158 11
0.303223 0.157796 -0.000365 245 158 11
0.173871 0.026197 0.299030 245 158 11
0.136485 -0.022855 0.302543 245 158 11
0.191028 -0.197231 -0.174921 245 158 11
0.148424 -0.179717 -0.059278 245 158 11
0.007705 0.072682 0.197026 245 158 11
0.313368 -0.018633 0.000171 245 158 11
0.027991 -0.029421 0.384712 245 158 11
0.097303 -0.015301 0.091660 245 158 11
-0.165802 -0.029719 0.141169 245 158 11
0.295068 0.164322 0.207687 245 158 11
0.420352 -0.081041 0.238746 245 158 11
-0.083553 -0.063871 0.344273 245 158 11
0.042209 0.047241 0.299747 245 158 11
0.026670 -0.019413 0.103821 245 158 11
0.256954 -0.007942 0.001063 245 158 11
0.061353 -0.014102 0.218618 245 158 11
0.393643 -0.033582 0.466336 245 158 11
0.041432 0.057399 0.403567 245 158 11
0.284308 0.012922 0.474271 245 158 11
0.439591 0.084015 0.073892 245 158 11
0.166784 -0.047157 0.497405 245 158 11
0.406066 -0.038357 0.353498 245 158 11
0.354963 0.012387 0.166998 245 158 11
0.307252 -0.103561 -0.123456 245 158 11
0.342862 0.040561 0.240342 245 158 11
0.058299 0.039220 0.161592 245 158 11
0.275190 0.057343 0.093403 245 158 11
0.254804 0.014484 0.039468 245 158 11
0.207520 -0.015136 0.309454 245 158 11
0.169852 -0.044529 -0.073420 245 158 11
0.179055 0.049157 0.215621 245 158 11
0.276220 0.067500 0.004701 245 158 11
0.270499 0.045541 0.128707 245 158 11
0.272712 -0.032691 0.217069 245 158 11
-0.019579 -0.011753 0.416880 245 158 11
0.166369 -0.074295 0.090305 245 158 11
-0.415506 0.006437 0.164572 245 158 11
0.035419 -0.089744 0.089869 245 158 11
