ply
format ascii 1.0
element vertex 1024
property float x
property float y
property float z
property uchar red
property uchar green
property uchar blue
end_header
0.194708 0.040733 1.004179 59 130 246
0.197642 0.040805 1.003118 59 130 246
0.204135 0.043130 1.002027 59 130 246
0.178705 0.055944 0.994211 59 130 246
0.175634 0.063386 0.984973 59 130 246
0.180930 0.046888 0.988578 59 130 246
0.178035 0.050647 0.984600 59 130 246
0.177612 0.049561 0.982275 59 130 246
0.174349 0.068632 0.985549 59 130 246
0.174593 0.062284 0.980285 59 130 246
0.173274 0.068175 0.974471 59 130 246
0.181699 0.065978 0.984275 59 130 246
0.175279 0.079962 0.971589 59 130 246
0.176888 0.082909 0.966577 59 130 246
0.175415 0.076221 0.963133 59 130 246
0.173133 0.065336 0.969819 59 130 246
0.174477 0.053414 0.973093 59 130 246
0.173778 0.069872 0.967191 59 130 246
0.173979 0.068149 0.960056 59 130 246
0.173617 0.065883 0.961235 59 130 246
0.172930 0.060016 0.958619 59 130 246
0.183773 0.064576 0.985447 59 130 246
0.189782 0.052996 0.994736 59 130 246
0.196642 0.052834 0.993042 59 130 246
0.193770 0.045953 0.999153 59 130 246
0.190081 0.057006 0.990367 59 130 246
0.191126 0.060122 0.987282 59 130 246
0.203183 0.047678 0.996702 59 130 246
0.205800 0.050055 0.995403 59 130 246
0.211273 0.051940 0.992234 59 130 246
0.195153 0.064481 0.983022 59 130 246
0.203021 0.062419 0.983948 59 130 246
0.210203 0.053963 0.990642 59 130 246
0.184496 0.069053 0.981316 59 130 246
0.190296 0.067308 0.982195 59 130 246
0.189770 0.072026 0.978231 59 130 246
0.180716 0.081413 0.970227 59 130 246
0.185166 0.081513 0.971124 59 130 246
0.185326 0.077279 0.973788 59 130 246
0.197459 0.069010 0.979017 59 130 246
0.192393 0.085490 0.965670 59 130 246
0.197659 0.079552 0.969957 59 130 246
0.199340 0.078812 0.970432 59 130 246
0.194647 0.066703 0.981080 59 130 246
0.202215 0.068989 0.978204 59 130 246
0.194432 0.034889 0.996833 59 130 246
0.196909 0.031847 0.995994 59 130 246
0.202740 0.036921 1.006331 59 130 246
0.208149 0.040026 1.003759 59 130 246
0.205474 0.029970 1.000535 59 130 246
0.198271 0.028263 0.993373 59 130 246
0.206539 0.026897 0.997685 59 130 246
0.213150 0.023246 0.996187 59 130 246
0.217451 0.021440 0.995235 59 130 246
0.210671 0.014867 0.985617 59 130 246
0.211526 0.011179 0.982027 59 130 246
0.222778 0.009779 0.981992 59 130 246
0.220664 0.003421 0.974409 59 130 246
0.183824 0.039342 0.986737 59 130 246
0.178570 0.041068 0.977104 59 130 246
0.179274 0.037739 0.975702 59 130 246
0.178074 0.028165 0.963634 59 130 246
0.189642 0.024309 0.979314 59 130 246
0.182091 0.030782 0.973984 59 130 246
0.184185 0.025430 0.973132 59 130 246
0.180798 0.026472 0.968033 59 130 246
0.172034 0.048180 0.954243 59 130 246
0.172858 0.052073 0.963458 59 130 246
0.172697 0.050635 0.960382 59 130 246
0.172812 0.058701 0.954738 59 130 246
0.172768 0.049031 0.956034 59 130 246
0.172331 0.054588 0.948322 59 130 246
0.176464 0.031426 0.962334 59 130 246
0.172814 0.034777 0.951582 59 130 246
0.172180 0.052057 0.946953 59 130 246
0.171506 0.044151 0.943063 59 130 246
0.189854 0.039700 0.996502 59 130 246
0.194122 0.031076 0.992326 59 130 246
0.198772 0.021870 0.986780 59 130 246
0.187372 0.018668 0.970991 59 130 246
0.193152 0.010329 0.968331 59 130 246
0.179826 0.021171 0.959928 59 130 246
0.183209 0.014296 0.959871 59 130 246
0.193014 0.008477 0.966066 59 130 246
0.186189 0.012843 0.962497 59 130 246
0.188650 0.008733 0.962187 59 130 246
0.185592 0.004343 0.953773 59 130 246
0.173180 0.033146 0.950439 59 130 246
0.173369 0.025454 0.946732 59 130 246
0.174872 0.021415 0.948761 59 130 246
0.172003 0.036328 0.944666 59 130 246
0.172182 0.023758 0.940708 59 130 246
0.171878 0.028906 0.943097 59 130 246
0.175878 0.016523 0.946926 59 130 246
0.176119 0.010985 0.941421 59 130 246
0.171342 0.024433 0.934460 59 130 246
0.173022 0.012636 0.934770 59 130 246
0.196647 0.018833 0.981126 59 130 246
0.205263 0.013346 0.981758 59 130 246
0.201465 0.008805 0.974268 59 130 246
0.205992 0.007026 0.974830 59 130 246
0.209661 0.004462 0.973308 59 130 246
0.213698 0.002504 0.971802 59 130 246
0.194107 0.043230 1.001336 59 130 246
0.177066 0.087593 0.969301 59 130 246
0.179943 0.054135 0.995162 59 130 246
0.180418 0.053352 0.992631 59 130 246
0.174303 0.072105 0.978625 59 130 246
0.174862 0.068070 0.981688 59 130 246
0.177103 0.081584 0.972787 59 130 246
0.185412 0.050017 1.000746 59 130 246
0.191625 0.055168 0.991985 59 130 246
0.214358 0.036220 1.009117 59 130 246
0.174790 0.016239 0.943941 59 130 246
0.180361 0.058000 0.993122 59 130 246
0.177658 0.089133 0.966743 59 130 246
0.195089 0.104983 0.953106 59 130 246
0.176814 0.078152 0.957991 59 130 246
0.178211 0.076716 0.949621 59 130 246
0.176382 0.070814 0.947948 59 130 246
0.180669 0.090441 0.962489 59 130 246
0.188393 0.087530 0.965778 59 130 246
0.183086 0.090452 0.955322 59 130 246
0.181611 0.086426 0.953269 59 130 246
0.187582 0.091440 0.947457 59 130 246
0.192869 0.089904 0.962521 59 130 246
0.199319 0.088963 0.963028 59 130 246
0.200125 0.092315 0.959366 59 130 246
0.192111 0.097330 0.948329 59 130 246
0.197993 0.102758 0.948715 59 130 246
0.190474 0.092058 0.943718 59 130 246
0.201902 0.098503 0.939682 59 130 246
0.189036 0.088381 0.940954 59 130 246
0.185858 0.079802 0.934803 59 130 246
0.192814 0.091329 0.939605 59 130 246
0.190269 0.082428 0.931399 59 130 246
0.195619 0.089305 0.933586 59 130 246
0.200634 0.088429 0.927801 59 130 246
0.174338 0.062804 0.948016 59 130 246
0.172749 0.056637 0.946814 59 130 246
0.177518 0.067013 0.936991 59 130 246
0.180382 0.067751 0.929841 59 130 246
0.172662 0.051636 0.936955 59 130 246
0.171800 0.043895 0.936989 59 130 246
0.172140 0.046949 0.930434 59 130 246
0.173207 0.053550 0.935681 59 130 246
0.177233 0.060480 0.928542 59 130 246
0.174369 0.052639 0.929884 59 130 246
0.177416 0.057051 0.922620 59 130 246
0.183551 0.062181 0.915044 59 130 246
0.185019 0.074597 0.929000 59 130 246
0.188374 0.074749 0.923866 59 130 246
0.194751 0.083510 0.927686 59 130 246
0.203516 0.085656 0.922867 59 130 246
0.203461 0.082947 0.919132 59 130 246
0.183972 0.065145 0.919474 59 130 246
0.195284 0.073402 0.914244 59 130 246
0.188922 0.064301 0.909289 59 130 246
0.197500 0.074154 0.913240 59 130 246
0.196698 0.072166 0.911524 59 130 246
0.205899 0.071566 0.903876 59 130 246
0.172304 0.044788 0.926534 59 130 246
0.170558 0.036472 0.928435 59 130 246
0.173415 0.048080 0.924551 59 130 246
0.172492 0.041538 0.920601 59 130 246
0.174401 0.043832 0.914042 59 130 246
0.177532 0.049093 0.911658 59 130 246
0.170272 0.031937 0.922134 59 130 246
0.169679 0.021537 0.922336 59 130 246
0.170546 0.031127 0.915836 59 130 246
0.172479 0.037117 0.911040 59 130 246
0.172705 0.036875 0.909460 59 130 246
0.172637 0.035844 0.908006 59 130 246
0.184861 0.061042 0.911207 59 130 246
0.178653 0.048295 0.906270 59 130 246
0.185815 0.055209 0.901944 59 130 246
0.173832 0.033829 0.901482 59 130 246
0.179325 0.046876 0.902742 59 130 246
0.178922 0.043204 0.898272 59 130 246
0.182637 0.043790 0.892534 59 130 246
0.185805 0.058420 0.906160 59 130 246
0.195289 0.066060 0.904384 59 130 246
0.191480 0.057117 0.896822 59 130 246
0.203340 0.071247 0.904838 59 130 246
0.203243 0.065054 0.897594 59 130 246
0.209080 0.065006 0.895037 59 130 246
0.194788 0.057415 0.893883 59 130 246
0.190891 0.048769 0.887397 59 130 246
0.194007 0.049188 0.884659 59 130 246
0.211613 0.061710 0.889786 59 130 246
0.203700 0.053682 0.883488 59 130 246
0.179436 0.091506 0.966240 59 130 246
0.186467 0.093887 0.959360 59 130 246
0.195867 0.101047 0.952875 59 130 246
0.189144 0.096119 0.957253 59 130 246
0.199292 0.104944 0.949562 59 130 246
0.195161 0.102738 0.954216 59 130 246
0.214210 0.051682 0.992219 59 130 246
0.211723 0.064609 0.981199 59 130 246
0.212072 0.062191 0.983265 59 130 246
0.217738 0.060429 0.984337 59 130 246
0.222241 0.062162 0.982450 59 130 246
0.226014 0.062654 0.981750 59 130 246
0.235191 0.061411 0.982083 59 130 246
0.205177 0.087047 0.963006 59 130 246
0.214705 0.083921 0.964507 59 130 246
0.211342 0.069927 0.976844 59 130 246
0.211089 0.075208 0.972337 59 130 246
0.217103 0.073926 0.972990 59 130 246
0.214971 0.075276 0.971936 59 130 246
0.222921 0.068758 0.976910 59 130 246
0.225696 0.066699 0.978447 59 130 246
0.233692 0.072980 0.972262 59 130 246
0.220317 0.084089 0.963962 59 130 246
0.231832 0.078742 0.967665 59 130 246
0.240059 0.065302 0.978267 59 130 246
0.234690 0.075232 0.970266 59 130 246
0.243740 0.070218 0.973800 59 130 246
0.234545 0.079413 0.966790 59 130 246
0.236779 0.083036 0.963421 59 130 246
0.244104 0.088046 0.959558 59 130 246
0.243650 0.077803 0.967373 59 130 246
0.250940 0.073671 0.970605 59 130 246
0.249984 0.086170 0.961258 59 130 246
0.253437 0.078401 0.967392 59 130 246
0.258583 0.081502 0.963741 59 130 246
0.263788 0.082366 0.963939 59 130 246
0.258981 0.086893 0.960639 59 130 246
0.268656 0.088435 0.960944 59 130 246
0.217862 0.032758 1.009940 59 130 246
0.220656 0.031423 1.006992 59 130 246
0.228880 0.028223 1.003287 59 130 246
0.214840 0.041820 1.001276 59 130 246
0.227349 0.037583 1.004614 59 130 246
0.218051 0.028527 1.003358 59 130 246
0.234979 0.032782 1.007645 59 130 246
0.241223 0.034997 1.008297 59 130 246
0.228778 0.041234 0.999905 59 130 246
0.234212 0.044497 0.997754 59 130 246
0.237005 0.038053 1.003182 59 130 246
0.220471 0.024645 0.999250 59 130 246
0.223599 0.020867 0.994878 59 130 246
0.236597 0.030211 1.003456 59 130 246
0.241149 0.028399 0.998828 59 130 246
0.240319 0.024988 0.995082 59 130 246
0.246810 0.034656 1.002341 59 130 246
0.244767 0.043458 0.998357 59 130 246
0.249714 0.043279 0.998157 59 130 246
0.264221 0.047467 0.996367 59 130 246
0.251609 0.036834 1.000315 59 130 246
0.255557 0.036805 0.995892 59 130 246
0.254539 0.032587 0.991888 59 130 246
0.258398 0.039946 0.996672 59 130 246
0.257914 0.034782 0.989828 59 130 246
0.229313 0.017533 0.990306 59 130 246
0.231255 0.013032 0.983802 59 130 246
0.242942 0.019948 0.987164 59 130 246
0.241202 0.015372 0.982407 59 130 246
0.223992 0.004618 0.975667 59 130 246
0.233502 0.006057 0.975166 59 130 246
0.244387 0.013508 0.978192 59 130 246
0.248304 0.021677 0.984781 59 130 246
0.251768 0.020743 0.979868 59 130 246
0.228576 0.046106 0.996682 59 130 246
0.228555 0.051582 0.991276 59 130 246
0.238684 0.048935 0.992898 59 130 246
0.228207 0.054738 0.988105 59 130 246
0.244670 0.048557 0.993654 59 130 246
0.244929 0.051914 0.990168 59 130 246
0.252456 0.052996 0.989030 59 130 246
0.238338 0.058713 0.983864 59 130 246
0.247371 0.057531 0.984605 59 130 246
0.243220 0.064295 0.978828 59 130 246
0.254216 0.049406 0.992359 59 130 246
0.256900 0.054509 0.986568 59 130 246
0.266965 0.049558 0.990209 59 130 246
0.262423 0.054871 0.987397 59 130 246
0.252578 0.063209 0.979362 59 130 246
0.258431 0.064544 0.978939 59 130 246
0.267269 0.049558 0.989455 59 130 246
0.261200 0.034905 0.985241 59 130 246
0.267120 0.042056 0.979642 59 130 246
0.252124 0.070033 0.973677 59 130 246
0.261951 0.068111 0.974457 59 130 246
0.249929 0.016766 0.976698 59 130 246
0.243838 0.008287 0.971400 59 130 246
0.256077 0.022697 0.976590 59 130 246
0.266592 0.039506 0.977288 59 130 246
0.262705 0.028874 0.972828 59 130 246
0.270058 0.040325 0.965522 59 130 246
0.254851 0.019778 0.974460 59 130 246
0.255314 0.016302 0.969458 59 130 246
0.257428 0.016421 0.966232 59 130 246
0.266422 0.027729 0.961360 59 130 246
0.267717 0.028930 0.957891 59 130 246
0.267420 0.027186 0.956204 59 130 246
0.270485 0.035325 0.951566 59 130 246
0.270900 0.034327 0.945220 59 130 246
0.270763 0.038043 0.936742 59 130 246
0.268564 0.051897 0.988109 59 130 246
0.270310 0.054353 0.985529 59 130 246
0.266850 0.066391 0.977423 59 130 246
0.272407 0.057697 0.981137 59 130 246
0.274675 0.063258 0.975526 59 130 246
0.269427 0.048007 0.980020 59 130 246
0.274553 0.061247 0.973312 59 130 246
0.271540 0.047818 0.970484 59 130 246
0.266618 0.068135 0.976017 59 130 246
0.265316 0.077722 0.967835 59 130 246
0.273615 0.072908 0.969837 59 130 246
0.274802 0.066010 0.972009 59 130 246
0.274227 0.064863 0.967647 59 130 246
0.267530 0.079381 0.964701 59 130 246
0.271094 0.079407 0.961880 59 130 246
0.269192 0.080743 0.956819 59 130 246
0.269712 0.077164 0.955182 59 130 246
0.272790 0.065161 0.959805 59 130 246
0.272865 0.053861 0.955600 59 130 246
0.272964 0.061205 0.958996 59 130 246
0.269752 0.072286 0.951021 59 130 246
0.271739 0.046979 0.967060 59 130 246
0.272729 0.049235 0.957525 59 130 246
0.270694 0.040422 0.957009 59 130 246
0.271644 0.047146 0.951500 59 130 246
0.269667 0.060898 0.942106 59 130 246
0.270687 0.054225 0.940006 59 130 246
0.271297 0.047896 0.940577 59 130 246
0.226763 0.060951 0.983171 59 130 246
0.272746 0.080110 0.968099 59 130 246
0.266835 0.087109 0.956984 59 130 246
0.228945 0.033894 1.006669 59 130 246
0.231007 0.035106 1.009024 59 130 246
0.239768 0.036871 1.002794 59 130 246
0.249161 0.037650 1.005725 59 130 246
0.256069 0.042308 0.999233 59 130 246
0.263936 0.045654 0.995705 59 130 246
0.263004 0.046961 0.992765 59 130 246
0.266698 0.052057 0.991935 59 130 246
0.272491 0.058086 0.985836 59 130 246
0.271809 0.058428 0.980815 59 130 246
0.272936 0.058974 0.979680 59 130 246
0.272985 0.064617 0.974214 59 130 246
0.272723 0.069415 0.975250 59 130 246
0.270411 0.075700 0.968019 59 130 246
0.204756 0.091480 0.960265 59 130 246
0.208951 0.096616 0.954740 59 130 246
0.211168 0.088632 0.961254 59 130 246
0.216161 0.089741 0.959927 59 130 246
0.207506 0.102461 0.950820 59 130 246
0.206072 0.105655 0.946120 59 130 246
0.214352 0.098338 0.952823 59 130 246
0.210659 0.103023 0.940126 59 130 246
0.222849 0.091092 0.958198 59 130 246
0.222962 0.093232 0.956358 59 130 246
0.224977 0.095603 0.955235 59 130 246
0.216521 0.103621 0.949685 59 130 246
0.219504 0.106465 0.941860 59 130 246
0.222551 0.110272 0.944738 59 130 246
0.227209 0.103945 0.948511 59 130 246
0.227836 0.089240 0.959293 59 130 246
0.207179 0.101747 0.940167 59 130 246
0.225161 0.103910 0.938656 59 130 246
0.206382 0.092917 0.929784 59 130 246
0.215000 0.094001 0.927844 59 130 246
0.224567 0.101986 0.936355 59 130 246
0.224096 0.097913 0.931539 59 130 246
0.232452 0.096562 0.953582 59 130 246
0.233214 0.102223 0.949750 59 130 246
0.228431 0.105063 0.945960 59 130 246
0.231962 0.104596 0.940353 59 130 246
0.237196 0.108213 0.945088 59 130 246
0.239214 0.104640 0.943170 59 130 246
0.234215 0.091921 0.956735 59 130 246
0.241553 0.091654 0.957462 59 130 246
0.241639 0.096607 0.953056 59 130 246
0.241612 0.098774 0.938187 59 130 246
0.248861 0.090719 0.956339 59 130 246
0.250259 0.093588 0.955570 59 130 246
0.254418 0.101550 0.950138 59 130 246
0.246778 0.099156 0.949584 59 130 246
0.252991 0.099552 0.947901 59 130 246
0.247649 0.098087 0.941325 59 130 246
0.229754 0.099042 0.933515 59 130 246
0.236853 0.094451 0.930651 59 130 246
0.260918 0.089485 0.956531 59 130 246
0.265761 0.088196 0.955520 59 130 246
0.266515 0.087257 0.956192 59 130 246
0.214475 0.090339 0.923478 59 130 246
0.211876 0.084057 0.916641 59 130 246
0.219962 0.090112 0.922443 59 130 246
0.219541 0.086188 0.917623 59 130 246
0.228243 0.084920 0.916823 59 130 246
0.209821 0.075468 0.907349 59 130 246
0.221228 0.076811 0.906956 59 130 246
0.229443 0.081701 0.913474 59 130 246
0.231279 0.074833 0.906541 59 130 246
0.244963 0.090269 0.930773 59 130 246
0.249600 0.091564 0.935862 59 130 246
0.253406 0.088209 0.936085 59 130 246
0.257287 0.085956 0.938587 59 130 246
0.262050 0.072132 0.932436 59 130 246
0.256738 0.079421 0.930925 59 130 246
0.256667 0.074615 0.925878 59 130 246
0.233341 0.093530 0.928147 59 130 246
0.235866 0.087727 0.922639 59 130 246
0.244514 0.085385 0.924988 59 130 246
0.242172 0.083209 0.921193 59 130 246
0.245477 0.078321 0.917986 59 130 246
0.222086 0.073592 0.902846 59 130 246
0.222032 0.069765 0.898465 59 130 246
0.230074 0.070581 0.900817 59 130 246
0.228534 0.067257 0.896452 59 130 246
0.216407 0.062910 0.890418 59 130 246
0.223415 0.062073 0.889618 59 130 246
0.223447 0.057729 0.884505 59 130 246
0.232680 0.061523 0.891274 59 130 246
0.235586 0.060976 0.892076 59 130 246
0.262817 0.068488 0.929489 59 130 246
0.255118 0.070069 0.919182 59 130 246
0.261172 0.066386 0.924673 59 130 246
0.262420 0.061683 0.922372 59 130 246
0.265178 0.053430 0.921989 59 130 246
0.269636 0.040569 0.925476 59 130 246
0.258967 0.059241 0.913582 59 130 246
0.261531 0.057592 0.917106 59 130 246
0.259044 0.053875 0.908299 59 130 246
0.239905 0.073558 0.909312 59 130 246
0.250088 0.074550 0.918104 59 130 246
0.241503 0.066444 0.901898 59 130 246
0.248150 0.064467 0.905267 59 130 246
0.245581 0.064159 0.902529 59 130 246
0.249061 0.061415 0.902795 59 130 246
0.253735 0.055776 0.902606 59 130 246
0.241884 0.057912 0.892610 59 130 246
0.261689 0.086322 0.945598 59 130 246
0.266501 0.077505 0.946570 59 130 246
0.268222 0.073198 0.947138 59 130 246
0.268746 0.066673 0.942803 59 130 246
0.266696 0.065851 0.937018 59 130 246
0.266037 0.063826 0.932058 59 130 246
0.201783 0.107642 0.950449 59 130 246
0.201550 0.104774 0.948153 59 130 246
0.212762 0.107291 0.947215 59 130 246
0.216415 0.107708 0.945962 59 130 246
0.233617 0.109634 0.945810 59 130 246
0.240159 0.108220 0.946780 59 130 246
0.245102 0.102336 0.947181 59 130 246
0.250413 0.103481 0.949758 59 130 246
0.263223 0.095013 0.955377 59 130 246
0.264379 0.088853 0.957800 59 130 246
0.221874 0.109878 0.946899 59 130 246
0.258041 0.097451 0.953634 59 130 246
0.174121 -0.009549 0.918027 59 130 246
0.174878 -0.014395 0.915365 59 130 246
0.174286 -0.016443 0.912525 59 130 246
0.178111 -0.028340 0.908533 59 130 246
0.177910 -0.029835 0.906691 59 130 246
0.181591 0.002633 0.945671 59 130 246
0.197281 -0.003474 0.957099 59 130 246
0.188328 0.000301 0.951965 59 130 246
0.190426 -0.006660 0.947721 59 130 246
0.184451 -0.007679 0.938935 59 130 246
0.190220 -0.009110 0.944923 59 130 246
0.195718 -0.013862 0.944906 59 130 246
0.193244 -0.018257 0.937866 59 130 246
0.177659 0.004203 0.939585 59 130 246
0.177711 -0.000232 0.935579 59 130 246
0.182639 -0.003549 0.940886 59 130 246
0.174634 0.006035 0.933907 59 130 246
0.170597 0.011830 0.923228 59 130 246
0.175488 -0.000440 0.929048 59 130 246
0.176836 -0.007559 0.926541 59 130 246
0.176697 -0.010449 0.923489 59 130 246
0.184086 -0.014645 0.931693 59 130 246
0.173721 -0.005027 0.921531 59 130 246
0.203774 -0.002220 0.963202 59 130 246
0.210494 -0.002767 0.965268 59 130 246
0.207304 -0.006553 0.959934 59 130 246
0.221437 -0.001328 0.968751 59 130 246
0.221579 -0.005319 0.963922 59 130 246
0.204460 -0.012084 0.952289 59 130 246
0.210724 -0.013356 0.953126 59 130 246
0.215802 -0.019293 0.947495 59 130 246
0.226659 -0.009670 0.957585 59 130 246
0.222008 -0.016307 0.951042 59 130 246
0.190206 -0.020232 0.933022 59 130 246
0.202540 -0.022936 0.939069 59 130 246
0.205415 -0.026402 0.936606 59 130 246
0.198333 -0.033559 0.924819 59 130 246
0.198226 -0.036325 0.921642 59 130 246
0.179234 -0.014857 0.924039 59 130 246
0.187576 -0.019775 0.930646 59 130 246
0.178647 -0.022594 0.915126 59 130 246
0.178011 -0.017036 0.918783 59 130 246
0.181353 -0.028300 0.913413 59 130 246
0.190157 -0.030397 0.921804 59 130 246
0.187382 -0.031410 0.917920 59 130 246
0.216034 -0.025187 0.940700 59 130 246
0.212456 -0.024679 0.940742 59 130 246
0.224425 -0.020747 0.945108 59 130 246
0.222242 -0.026022 0.939413 59 130 246
0.210797 -0.030421 0.933742 59 130 246
0.219483 -0.032444 0.931895 59 130 246
0.220714 -0.028955 0.936115 59 130 246
0.229772 -0.029367 0.933760 59 130 246
0.226844 -0.033070 0.929744 59 130 246
0.181125 -0.039193 0.902767 59 130 246
0.181177 -0.043822 0.897274 59 130 246
0.198719 -0.038802 0.919176 59 130 246
0.206165 -0.047258 0.912982 59 130 246
0.184016 -0.037700 0.907246 59 130 246
0.185645 -0.044518 0.904463 59 130 246
0.181294 -0.034552 0.906900 59 130 246
0.185915 -0.033907 0.892375 59 130 246
0.183608 -0.038616 0.893747 59 130 246
0.194328 -0.043015 0.898934 59 130 246
0.190970 -0.037671 0.894629 59 130 246
0.197739 -0.037946 0.894216 59 130 246
0.190742 -0.049358 0.901152 59 130 246
0.197610 -0.049725 0.902398 59 130 246
0.187051 -0.045998 0.899097 59 130 246
0.195739 -0.044021 0.899400 59 130 246
0.199051 -0.048009 0.901134 59 130 246
0.205915 -0.050447 0.910142 59 130 246
0.200535 -0.053218 0.905701 59 130 246
0.207565 -0.054583 0.904641 59 130 246
0.211171 -0.051279 0.903443 59 130 246
0.199565 -0.041570 0.897474 59 130 246
0.205497 -0.040271 0.895397 59 130 246
0.213787 -0.038725 0.924511 59 130 246
0.212135 -0.043528 0.918746 59 130 246
0.223999 -0.045596 0.915776 59 130 246
0.228008 -0.041248 0.919805 59 130 246
0.236958 -0.041106 0.915489 59 130 246
0.223978 -0.049234 0.911382 59 130 246
0.223574 -0.052830 0.909030 59 130 246
0.233836 -0.043604 0.914417 59 130 246
0.232768 -0.050603 0.907526 59 130 246
0.214101 -0.053135 0.904057 59 130 246
0.215251 -0.050470 0.901947 59 130 246
0.221310 -0.050918 0.901964 59 130 246
0.220857 -0.046330 0.900163 59 130 246
0.212143 -0.044258 0.898855 59 130 246
0.211788 -0.037772 0.892495 59 130 246
0.218399 -0.036724 0.891186 59 130 246
0.224261 -0.050883 0.902005 59 130 246
0.229649 -0.049703 0.900426 59 130 246
0.224002 -0.033282 0.887767 59 130 246
0.229658 -0.042911 0.896082 59 130 246
0.230550 -0.037620 0.891123 59 130 246
0.226401 -0.054082 0.903008 59 130 246
0.232089 -0.053613 0.901867 59 130 246
0.237863 -0.049472 0.899410 59 130 246
0.175852 -0.003927 0.928017 59 130 246
0.206902 -0.015298 0.949577 59 130 246
0.204885 -0.020763 0.942427 59 130 246
0.177411 -0.038238 0.899366 59 130 246
0.187793 -0.045658 0.905754 59 130 246
0.205283 -0.051846 0.908758 59 130 246
0.169131 0.010516 0.913689 59 130 246
0.168690 0.011263 0.910648 59 130 246
0.168434 0.005264 0.906743 59 130 246
0.168828 0.001949 0.905058 59 130 246
0.168710 0.012061 0.898421 59 130 246
0.167734 0.005511 0.897287 59 130 246
0.167915 0.005725 0.888703 59 130 246
0.169372 -0.009086 0.903784 59 130 246
0.171158 -0.019437 0.901785 59 130 246
0.167366 0.001131 0.894108 59 130 246
0.167246 -0.009097 0.892520 59 130 246
0.169155 -0.018149 0.896131 59 130 246
0.172213 -0.025146 0.899686 59 130 246
0.165994 -0.015935 0.884299 59 130 246
0.166252 -0.021860 0.886445 59 130 246
0.165890 -0.019200 0.877725 59 130 246
0.170382 -0.016542 0.875867 59 130 246
0.174257 -0.017283 0.878237 59 130 246
0.168891 0.006139 0.879683 59 130 246
0.168227 0.001229 0.875308 59 130 246
0.171130 0.005701 0.867326 59 130 246
0.167541 -0.001730 0.872353 59 130 246
0.165666 -0.015346 0.874625 59 130 246
0.172306 -0.009791 0.869776 59 130 246
0.175980 -0.011730 0.874426 59 130 246
0.167920 -0.000398 0.865076 59 130 246
0.171285 0.002757 0.859193 59 130 246
0.170205 0.013279 0.921006 59 130 246
0.168848 0.016582 0.908873 59 130 246
0.170839 0.026708 0.902792 59 130 246
0.168657 0.014528 0.905949 59 130 246
0.172301 0.028309 0.897500 59 130 246
0.173610 0.028667 0.892908 59 130 246
0.173806 0.025304 0.887558 59 130 246
0.174856 0.028294 0.887828 59 130 246
0.179286 0.038289 0.890769 59 130 246
0.186633 0.041885 0.883088 59 130 246
0.184059 0.036629 0.879598 59 130 246
0.171440 0.019292 0.887475 59 130 246
0.174570 0.024931 0.884931 59 130 246
0.175809 0.026318 0.883178 59 130 246
0.179498 0.026985 0.874884 59 130 246
0.176356 0.019731 0.871910 59 130 246
0.182328 0.033458 0.878867 59 130 246
0.186471 0.035166 0.874929 59 130 246
0.193320 0.046537 0.881436 59 130 246
0.191825 0.041105 0.875763 59 130 246
0.214990 0.054151 0.880659 59 130 246
0.173203 0.013667 0.871904 59 130 246
0.176985 0.017831 0.867743 59 130 246
0.172679 0.009057 0.866767 59 130 246
0.176379 0.012511 0.861826 59 130 246
0.177295 -0.010151 0.872506 59 130 246
0.178390 -0.008035 0.869982 59 130 246
0.176731 -0.005768 0.868603 59 130 246
0.177716 -0.003871 0.867308 59 130 246
0.182883 -0.008029 0.869710 59 130 246
0.186081 -0.005402 0.867101 59 130 246
0.175631 0.005584 0.856142 59 130 246
0.178954 -0.001109 0.865232 59 130 246
0.181861 -0.001821 0.864529 59 130 246
0.185197 0.001675 0.861657 59 130 246
0.190292 -0.006948 0.867926 59 130 246
0.190216 -0.001172 0.863068 59 130 246
0.186151 0.004112 0.859209 59 130 246
0.196542 0.002417 0.859915 59 130 246
0.192778 0.008443 0.855261 59 130 246
0.204038 0.003123 0.859135 59 130 246
0.205639 0.001939 0.860135 59 130 246
0.204520 0.003255 0.858993 59 130 246
0.206836 0.003447 0.858887 59 130 246
0.201595 0.005913 0.856206 59 130 246
0.203554 0.006262 0.856702 59 130 246
0.205178 0.006651 0.856615 59 130 246
0.205822 0.005878 0.856659 59 130 246
0.204622 0.008991 0.854649 59 130 246
0.207360 0.003187 0.858946 59 130 246
0.206793 0.005977 0.856775 59 130 246
0.209708 0.005287 0.856767 59 130 246
0.209646 0.007218 0.855471 59 130 246
0.207753 0.007998 0.854580 59 130 246
0.208597 0.009271 0.853652 59 130 246
0.209073 0.009026 0.853878 59 130 246
0.208724 0.008068 0.854471 59 130 246
0.211654 0.005835 0.856410 59 130 246
0.211544 0.006469 0.855821 59 130 246
0.210071 0.007156 0.855157 59 130 246
0.189614 0.033576 0.868644 59 130 246
0.194508 0.042464 0.875046 59 130 246
0.212875 0.052722 0.878932 59 130 246
0.213823 0.051003 0.876520 59 130 246
0.197215 0.038235 0.867739 59 130 246
0.195900 0.032062 0.861119 59 130 246
0.206614 0.042397 0.868326 59 130 246
0.212204 0.042140 0.866555 59 130 246
0.214864 0.040272 0.863655 59 130 246
0.186446 0.026945 0.863864 59 130 246
0.186055 0.022320 0.858386 59 130 246
0.194829 0.024230 0.852211 59 130 246
0.178822 0.008401 0.853519 59 130 246
0.184517 0.014584 0.848505 59 130 246
0.183646 0.012480 0.849642 59 130 246
0.192904 0.014182 0.848650 59 130 246
0.194858 0.009781 0.854047 59 130 246
0.197324 0.013307 0.850376 59 130 246
0.201396 0.029044 0.853964 59 130 246
0.204800 0.028823 0.852224 59 130 246
0.217745 0.038151 0.861132 59 130 246
0.218309 0.030493 0.852074 59 130 246
0.203810 0.011594 0.852348 59 130 246
0.204286 0.011870 0.851420 59 130 246
0.197050 0.017701 0.844291 59 130 246
0.205843 0.010203 0.853336 59 130 246
0.208347 0.010235 0.852883 59 130 246
0.208666 0.011581 0.851051 59 130 246
0.210626 0.015069 0.848409 59 130 246
0.206402 0.024323 0.843990 59 130 246
0.213954 0.028105 0.849284 59 130 246
0.213865 0.012500 0.850565 59 130 246
0.213085 0.014262 0.848853 59 130 246
0.211743 0.017817 0.844000 59 130 246
0.220012 0.012199 0.850103 59 130 246
0.212108 0.022664 0.841060 59 130 246
0.219814 0.020108 0.840228 59 130 246
0.172012 -0.033802 0.889390 59 130 246
0.169618 -0.030908 0.887432 59 130 246
0.176895 -0.026007 0.885630 59 130 246
0.179339 -0.028586 0.888706 59 130 246
0.169580 -0.023410 0.881844 59 130 246
0.170617 -0.022105 0.880826 59 130 246
0.175037 -0.022662 0.882957 59 130 246
0.182934 -0.030148 0.889323 59 130 246
0.180130 -0.027412 0.887108 59 130 246
0.182229 -0.027387 0.886345 59 130 246
0.183327 -0.033146 0.892371 59 130 246
0.185865 -0.033389 0.891387 59 130 246
0.184765 -0.031485 0.890481 59 130 246
0.185723 -0.031574 0.890148 59 130 246
0.190559 -0.034159 0.891411 59 130 246
0.189979 -0.025915 0.884181 59 130 246
0.183067 -0.022113 0.881533 59 130 246
0.186308 -0.020839 0.880174 59 130 246
0.189250 -0.013882 0.873842 59 130 246
0.199129 -0.029398 0.886244 59 130 246
0.199158 -0.027044 0.884295 59 130 246
0.204843 -0.023935 0.881120 59 130 246
0.195750 -0.016000 0.875241 59 130 246
0.202213 -0.013497 0.872389 59 130 246
0.205498 -0.031670 0.887662 59 130 246
0.193806 -0.007436 0.868061 59 130 246
0.198738 -0.003104 0.864220 59 130 246
0.212047 -0.026984 0.883724 59 130 246
0.208540 -0.019122 0.876916 59 130 246
0.210184 -0.014093 0.871994 59 130 246
0.212261 -0.013351 0.871250 59 130 246
0.218272 -0.013304 0.870684 59 130 246
0.224264 -0.017486 0.873926 59 130 246
0.214925 -0.032141 0.887732 59 130 246
0.218906 -0.025068 0.881487 59 130 246
0.221376 -0.025372 0.881640 59 130 246
0.232347 -0.029280 0.884220 59 130 246
0.228375 -0.022759 0.879122 59 130 246
0.226163 -0.020845 0.877218 59 130 246
0.230709 -0.021947 0.877542 59 130 246
0.230526 -0.019989 0.876495 59 130 246
0.229870 -0.019816 0.875823 59 130 246
0.206879 -0.008949 0.869055 59 130 246
0.207980 -0.007570 0.867974 59 130 246
0.207994 -0.008162 0.868328 59 130 246
0.207847 -0.007593 0.867875 59 130 246
0.207899 -0.004865 0.865795 59 130 246
0.207860 -0.004984 0.865601 59 130 246
0.207689 -0.003949 0.863816 59 130 246
0.207889 -0.002331 0.863700 59 130 246
0.209486 -0.006716 0.867000 59 130 246
0.209085 -0.004047 0.864775 59 130 246
0.209147 -0.002030 0.863095 59 130 246
0.214012 -0.001108 0.862201 59 130 246
0.210449 -0.005874 0.866267 59 130 246
0.211944 -0.006291 0.866319 59 130 246
0.211502 -0.002264 0.862768 59 130 246
0.215426 -0.004327 0.864183 59 130 246
0.214168 -0.002918 0.863111 59 130 246
0.214789 -0.002476 0.862932 59 130 246
0.214852 -0.003305 0.863034 59 130 246
0.215064 -0.001806 0.862594 59 130 246
0.214510 -0.008136 0.867047 59 130 246
0.206036 0.000619 0.860978 59 130 246
0.206515 0.000772 0.861031 59 130 246
0.208461 -0.001242 0.861535 59 130 246
0.208363 0.000837 0.860830 59 130 246
0.208826 0.001236 0.860445 59 130 246
0.207559 0.002505 0.859530 59 130 246
0.209049 0.002304 0.859145 59 130 246
0.212575 -0.000341 0.861188 59 130 246
0.212732 0.000220 0.861147 59 130 246
0.213774 -0.000089 0.861059 59 130 246
0.210671 0.004361 0.857688 59 130 246
0.212876 0.004169 0.857867 59 130 246
0.213802 0.002663 0.857858 59 130 246
0.213207 0.004976 0.856822 59 130 246
0.217059 -0.004784 0.863999 59 130 246
0.218897 -0.005172 0.865211 59 130 246
0.218210 -0.004274 0.863446 59 130 246
0.215913 0.000448 0.860796 59 130 246
0.218871 -0.001064 0.861622 59 130 246
0.219434 -0.005492 0.865229 59 130 246
0.219740 -0.003845 0.864025 59 130 246
0.219398 -0.001297 0.861626 59 130 246
0.220052 -0.002256 0.862441 59 130 246
0.219294 -0.011342 0.868946 59 130 246
0.222045 -0.005520 0.864894 59 130 246
0.227150 -0.010097 0.867432 59 130 246
0.215523 0.000639 0.860232 59 130 246
0.214101 0.003893 0.857700 59 130 246
0.215349 0.002648 0.858629 59 130 246
0.216255 -0.000405 0.861062 59 130 246
0.216962 0.000809 0.859112 59 130 246
0.213995 0.004682 0.856105 59 130 246
0.227079 -0.000063 0.859272 59 130 246
0.217824 0.009891 0.851935 59 130 246
0.226337 0.009876 0.851004 59 130 246
0.167087 -0.024585 0.887420 59 130 246
0.165526 -0.007697 0.875799 59 130 246
0.169832 0.016596 0.919340 59 130 246
0.172796 0.007269 0.859459 59 130 246
0.179727 0.014722 0.855516 59 130 246
0.195424 0.022786 0.847942 59 130 246
0.213684 0.025597 0.846047 59 130 246
0.231033 0.001727 0.970221 59 130 246
0.239433 0.002030 0.966909 59 130 246
0.237950 -0.002412 0.962669 59 130 246
0.248906 0.008931 0.967855 59 130 246
0.243491 -0.000292 0.961286 59 130 246
0.250153 0.002035 0.957634 59 130 246
0.230634 -0.012253 0.954055 59 130 246
0.237716 -0.010336 0.953104 59 130 246
0.246238 -0.003317 0.955310 59 130 246
0.246535 -0.009377 0.947236 59 130 246
0.254100 0.011287 0.964450 59 130 246
0.255028 0.007042 0.957909 59 130 246
0.255111 0.004285 0.953946 59 130 246
0.262406 0.010632 0.947969 59 130 246
0.265721 0.017101 0.947683 59 130 246
0.254432 0.000639 0.950295 59 130 246
0.262884 0.008791 0.944332 59 130 246
0.261182 0.003338 0.940453 59 130 246
0.269426 0.026377 0.943155 59 130 246
0.267836 0.020509 0.944076 59 130 246
0.270724 0.029807 0.934585 59 130 246
0.270568 0.027577 0.932768 59 130 246
0.269567 0.026646 0.920666 59 130 246
0.264346 0.005457 0.934620 59 130 246
0.267667 0.015183 0.932182 59 130 246
0.265672 0.006397 0.930804 59 130 246
0.269042 0.016291 0.926399 59 130 246
0.269457 0.018120 0.917018 59 130 246
0.238585 -0.015150 0.946623 59 130 246
0.238836 -0.019180 0.940918 59 130 246
0.247214 -0.012551 0.942543 59 130 246
0.245216 -0.015944 0.939676 59 130 246
0.254412 -0.013879 0.930869 59 130 246
0.236314 -0.027225 0.933241 59 130 246
0.238293 -0.031755 0.926044 59 130 246
0.247506 -0.020344 0.932056 59 130 246
0.249560 -0.023138 0.926116 59 130 246
0.257461 -0.017213 0.920717 59 130 246
0.260902 -0.001306 0.934845 59 130 246
0.257724 -0.009332 0.930020 59 130 246
0.265270 0.001172 0.922436 59 130 246
0.264127 -0.000663 0.924323 59 130 246
0.266502 0.002296 0.918521 59 130 246
0.266774 0.006885 0.926226 59 130 246
0.269196 0.015747 0.913941 59 130 246
0.268254 0.006591 0.910422 59 130 246
0.262837 -0.007106 0.920455 59 130 246
0.259571 -0.017125 0.914534 59 130 246
0.267350 -0.001371 0.905974 59 130 246
0.265815 -0.006806 0.904302 59 130 246
0.238038 -0.035899 0.921204 59 130 246
0.240366 -0.038181 0.916388 59 130 246
0.237132 -0.043498 0.912442 59 130 246
0.256154 -0.023775 0.914168 59 130 246
0.255476 -0.027801 0.909888 59 130 246
0.244558 -0.038767 0.911601 59 130 246
0.240444 -0.045802 0.906587 59 130 246
0.239732 -0.043352 0.895888 59 130 246
0.244161 -0.037377 0.890281 59 130 246
0.247343 -0.033261 0.886350 59 130 246
0.257826 -0.029579 0.902188 59 130 246
0.257288 -0.032133 0.899857 59 130 246
0.256689 -0.035276 0.896689 59 130 246
0.262017 -0.018150 0.906390 59 130 246
0.263847 -0.018550 0.897787 59 130 246
0.264612 -0.019182 0.892186 59 130 246
0.245730 -0.047931 0.900639 59 130 246
0.243842 -0.047220 0.896851 59 130 246
0.244424 -0.042180 0.893170 59 130 246
0.251570 -0.044834 0.896905 59 130 246
0.255565 -0.040920 0.889002 59 130 246
0.258484 -0.036220 0.885340 59 130 246
0.266227 0.015351 0.942832 59 130 246
0.268849 0.012772 0.919619 59 130 246
0.260587 -0.034936 0.890795 59 130 246
0.226424 0.056120 0.883148 59 130 246
0.232160 0.055599 0.884325 59 130 246
0.232394 0.052066 0.881157 59 130 246
0.242166 0.051180 0.885420 59 130 246
0.235674 0.042845 0.871579 59 130 246
0.238816 0.040121 0.870704 59 130 246
0.268340 0.041839 0.920945 59 130 246
0.269031 0.031190 0.918303 59 130 246
0.262684 0.048638 0.910412 59 130 246
0.262300 0.046641 0.908422 59 130 246
0.264193 0.038467 0.904404 59 130 246
0.269250 0.029482 0.919861 59 130 246
0.267908 0.030634 0.910628 59 130 246
0.267454 0.024779 0.904573 59 130 246
0.260735 0.039730 0.897698 59 130 246
0.265518 0.025714 0.896890 59 130 246
0.248426 0.050287 0.890134 59 130 246
0.250850 0.051697 0.894393 59 130 246
0.255386 0.044030 0.892121 59 130 246
0.245757 0.052321 0.889786 59 130 246
0.256982 0.050984 0.903069 59 130 246
0.253262 0.042267 0.888157 59 130 246
0.253712 0.036864 0.882373 59 130 246
0.247025 0.037218 0.874303 59 130 246
0.262030 0.031356 0.892261 59 130 246
0.244988 0.033439 0.868250 59 130 246
0.246451 0.028190 0.864051 59 130 246
0.247584 0.019162 0.855535 59 130 246
0.267862 0.018037 0.901503 59 130 246
0.267966 0.012498 0.898791 59 130 246
0.265186 0.021058 0.891776 59 130 246
0.264055 0.022058 0.888507 59 130 246
0.267140 -0.001540 0.902413 59 130 246
0.267527 0.001176 0.891904 59 130 246
0.263736 0.017525 0.884837 59 130 246
0.265830 0.007714 0.883659 59 130 246
0.268258 0.006899 0.899282 59 130 246
0.261948 0.028236 0.888896 59 130 246
0.258341 0.029404 0.881947 59 130 246
0.262360 0.019395 0.882195 59 130 246
0.249072 0.034075 0.873489 59 130 246
0.252654 0.024425 0.867703 59 130 246
0.263311 0.013922 0.879158 59 130 246
0.259752 0.013519 0.869387 59 130 246
0.250841 0.025327 0.866149 59 130 246
0.255702 0.015200 0.863022 59 130 246
0.217287 0.047591 0.872271 59 130 246
0.228479 0.046952 0.873220 59 130 246
0.223940 0.038741 0.862492 59 130 246
0.230964 0.039729 0.865855 59 130 246
0.226745 0.037158 0.861375 59 130 246
0.231637 0.031819 0.857065 59 130 246
0.236343 0.029909 0.857502 59 130 246
0.228978 0.026373 0.849664 59 130 246
0.235824 0.021828 0.848065 59 130 246
0.235636 0.025837 0.852432 59 130 246
0.231802 -0.010990 0.868075 59 130 246
0.236690 -0.026446 0.880814 59 130 246
0.239741 -0.028022 0.881875 59 130 246
0.248039 -0.031072 0.884233 59 130 246
0.238213 -0.016593 0.872290 59 130 246
0.235082 -0.012455 0.869023 59 130 246
0.237913 -0.014597 0.870591 59 130 246
0.251914 -0.028453 0.881807 59 130 246
0.254943 -0.030986 0.883033 59 130 246
0.253904 -0.025357 0.878967 59 130 246
0.255026 -0.024440 0.878467 59 130 246
0.256274 -0.025767 0.879801 59 130 246
0.259053 -0.024955 0.876240 59 130 246
0.245584 -0.014215 0.869791 59 130 246
0.255024 -0.017312 0.872222 59 130 246
0.254451 -0.013559 0.869447 59 130 246
0.255050 -0.013646 0.869012 59 130 246
0.252561 -0.017957 0.872390 59 130 246
0.258794 -0.021626 0.873730 59 130 246
0.236892 -0.009948 0.866694 59 130 246
0.234305 -0.004828 0.862546 59 130 246
0.236538 -0.001743 0.860561 59 130 246
0.237323 -0.001998 0.860816 59 130 246
0.237302 -0.000850 0.860087 59 130 246
0.237986 -0.002143 0.860763 59 130 246
0.237263 -0.005363 0.862738 59 130 246
0.238343 -0.002176 0.860589 59 130 246
0.231342 0.005126 0.855206 59 130 246
0.233115 0.004269 0.856051 59 130 246
0.234551 0.003908 0.856415 59 130 246
0.228222 0.007877 0.852182 59 130 246
0.231272 0.006076 0.854620 59 130 246
0.232341 0.007497 0.853443 59 130 246
0.233242 0.007403 0.853191 59 130 246
0.234003 0.005499 0.854107 59 130 246
0.233279 0.006608 0.854060 59 130 246
0.230495 0.009320 0.851167 59 130 246
0.232963 0.007902 0.852926 59 130 246
0.234021 0.007854 0.852735 59 130 246
0.234824 0.005499 0.854633 59 130 246
0.234352 0.007175 0.853324 59 130 246
0.235293 0.007117 0.853222 59 130 246
0.236213 0.006443 0.853680 59 130 246
0.235056 0.009143 0.851501 59 130 246
0.235007 0.008380 0.852213 59 130 246
0.231345 0.000362 0.858407 59 130 246
0.234122 0.000515 0.857909 59 130 246
0.234145 0.002664 0.857026 59 130 246
0.236250 0.000799 0.858759 59 130 246
0.235758 0.001938 0.857643 59 130 246
0.236097 0.002027 0.857773 59 130 246
0.236327 0.000363 0.858695 59 130 246
0.234872 0.002983 0.856915 59 130 246
0.235842 0.003557 0.856168 59 130 246
0.237151 0.003707 0.856028 59 130 246
0.236698 0.003912 0.855581 59 130 246
0.239800 0.001794 0.857433 59 130 246
0.240971 0.002707 0.855797 59 130 246
0.247841 -0.000042 0.858362 59 130 246
0.248956 0.000014 0.858211 59 130 246
0.252193 0.013475 0.855624 59 130 246
0.242651 0.002768 0.855889 59 130 246
0.248156 0.000434 0.858168 59 130 246
0.242191 0.004634 0.854385 59 130 246
0.246477 0.005029 0.852132 59 130 246
0.250791 0.009582 0.847539 59 130 246
0.242169 -0.008619 0.865576 59 130 246
0.248123 -0.004155 0.861007 59 130 246
0.253839 -0.008444 0.864999 59 130 246
0.255057 -0.008280 0.865482 59 130 246
0.251898 -0.005055 0.861930 59 130 246
0.254840 -0.002192 0.857147 59 130 246
0.266370 -0.010073 0.894848 59 130 246
0.267014 -0.003624 0.886678 59 130 246
0.266345 -0.012719 0.886906 59 130 246
0.266117 -0.000583 0.879817 59 130 246
0.265655 -0.002948 0.875619 59 130 246
0.265330 -0.019404 0.885800 59 130 246
0.265217 -0.022043 0.881699 59 130 246
0.266685 -0.022202 0.874591 59 130 246
0.260886 -0.022837 0.874479 59 130 246
0.265583 -0.017536 0.868312 59 130 246
0.266873 -0.014299 0.869119 59 130 246
0.263659 0.005201 0.872804 59 130 246
0.260434 0.004434 0.862731 59 130 246
0.256101 0.010085 0.858704 59 130 246
0.259307 -0.011209 0.864465 59 130 246
0.261356 -0.000766 0.856646 59 130 246
0.263477 -0.010444 0.862255 59 130 246
0.254140 -0.033520 0.884439 59 130 246
0.261866 -0.028936 0.879058 59 130 246
0.264492 -0.025543 0.874973 59 130 246
0.229892 0.011713 0.850205 59 130 246
0.229949 0.012431 0.849201 59 130 246
0.229020 0.017249 0.842996 59 130 246
0.239860 0.011082 0.847251 59 130 246
0.237875 0.017210 0.842496 59 130 246
0.241330 0.008889 0.848502 59 130 246
0.241274 0.048390 0.882223 59 130 246
0.264269 0.032154 0.899007 59 130 246
0.268603 0.014219 0.905423 59 130 246
0.234297 0.021838 0.845484 59 130 246
0.264724 -0.026371 0.884101 59 130 246
0.255341 0.008519 0.853469 59 130 246
0.247945 0.015250 0.850410 59 130 246
